<svg width="64" height="36" viewBox="0 0 64 36" fill="none" xmlns="http://www.w3.org/2000/svg">
<g clip-path="url(#clip0_81_1121)">
<path d="M23.9916 30.725C23.9984 30.8584 23.9383 31.039 24.0918 31.1056C24.1253 31.1191 24.1588 31.1257 24.1989 31.1257C24.2524 31.1257 24.3126 31.1125 24.3661 31.1125C24.5197 31.1125 24.6668 31.1125 24.814 31.1056C24.8341 31.1056 24.8473 31.1056 24.8673 31.1191C24.9544 31.1657 24.9074 31.4064 24.9074 31.4797C24.9074 31.6534 24.9343 31.8339 24.9275 32.0074C24.9275 32.188 24.8673 32.3617 24.8673 32.542C24.8673 32.7157 24.8808 32.896 24.8808 33.0697C24.8742 33.2434 24.8742 33.4171 24.8673 33.584C24.8673 33.7977 24.9544 33.9915 24.9475 34.2052C24.9409 34.3254 24.9209 34.4459 24.9209 34.5661C24.9275 34.6597 24.9409 34.733 25.0077 34.7931C25.048 34.8331 25.0947 34.8534 25.1483 34.86C25.2751 34.8734 25.3954 34.88 25.5226 34.88C25.6563 34.88 25.79 34.8734 25.9235 34.8466C25.9705 34.84 26.0306 34.8466 26.0641 34.8199C26.2179 34.7198 26.1575 34.3655 26.1575 34.2187C26.1509 33.9514 26.1844 33.6844 26.1844 33.4171C26.1776 33.2434 26.1309 33.0697 26.1243 32.8894C26.1174 32.7824 26.1243 32.6688 26.1309 32.5554C26.1443 32.3147 26.1644 32.0678 26.1644 31.8271C26.1644 31.5801 26.1309 31.3395 26.1309 31.0922C26.3648 31.0922 26.5988 31.0991 26.8328 31.0991C26.8795 31.0991 26.9064 31.0656 26.9399 30.9854C26.9531 30.9319 26.98 30.8787 26.98 30.8117C26.9932 30.618 27.0132 30.2105 26.9731 30.0302C26.9465 29.93 26.8729 29.91 26.7927 29.91C26.746 29.91 26.6991 29.9166 26.6656 29.9166C26.659 29.9166 26.659 29.9166 26.6524 29.9166C26.512 29.8965 26.3714 29.8631 26.2245 29.8631C26.1575 29.8631 26.0842 29.843 26.0172 29.843C25.9103 29.843 25.8032 29.8699 25.703 29.8699C25.5693 29.8565 25.4023 29.8164 25.2685 29.8164C25.2416 29.8164 25.215 29.823 25.1949 29.823C25.1483 29.823 25.1082 29.8499 25.0612 29.8499C24.9008 29.8499 24.747 29.843 24.5932 29.843C24.4395 29.8499 24.2857 29.8831 24.1321 29.9031C24.1253 29.9031 24.1253 29.91 24.1187 29.91C24.0852 29.9166 24.0651 29.9232 24.0385 29.9701C24.0116 30.0101 23.9984 30.0568 23.9984 30.1103C23.985 30.284 23.9784 30.4577 23.9916 30.638C23.9916 30.6649 23.9916 30.6981 23.9916 30.725Z" fill="#6E58FF"/>
<path d="M29.0381 34.8937C29.065 34.8937 29.0916 34.8869 29.1183 34.8869C29.3322 34.8869 29.5461 34.8803 29.76 34.8803C29.8136 34.8803 29.8671 34.8803 29.9207 34.8803C30.1011 34.8803 30.2815 34.8803 30.462 34.8869C30.549 34.8869 30.6358 34.8803 30.7094 34.8468C30.9167 34.7466 30.8566 34.3391 30.8632 34.1522C30.8632 33.9851 30.8431 33.818 30.8297 33.6511C30.8231 33.6111 30.8365 33.5441 30.8096 33.5109C30.7429 33.4439 30.5957 33.4374 30.5089 33.4374C30.4219 33.4374 30.3282 33.4439 30.2415 33.4439C30.1679 33.4374 30.0877 33.4374 30.0141 33.4374C29.9407 33.4374 29.8671 33.4374 29.807 33.4508C29.7935 33.4574 29.76 33.4439 29.7534 33.4508C29.7134 33.4774 29.7334 33.5576 29.7334 33.6042C29.7334 33.6311 29.7268 33.6577 29.7268 33.6846C29.7268 33.6912 29.7134 33.6978 29.7134 33.7046C29.6999 33.7379 29.6197 33.7379 29.5931 33.7379C29.4728 33.7379 29.4124 33.7247 29.4124 33.5976C29.4124 33.551 29.4527 32.9629 29.4393 32.9629C29.486 32.9629 29.506 32.9563 29.553 32.9563C29.5931 32.9563 29.6398 32.9563 29.6799 32.9563C29.8136 32.9563 29.9539 32.9497 30.0742 32.8896C30.2014 32.8227 30.2415 32.402 30.248 32.2818C30.2549 32.1547 30.2681 31.9475 30.1547 31.8608C30.0943 31.8207 29.7134 31.8007 29.6332 31.8007C29.553 31.8007 29.4794 31.8007 29.4058 31.8073C29.4058 31.6671 29.3791 31.5334 29.3791 31.3932C29.3791 31.2595 29.4124 31.1259 29.4058 30.9857C29.4794 30.9857 29.5329 30.9923 29.6063 30.9923C29.6263 30.9923 29.6464 30.9923 29.6733 31.0057C29.7268 31.0257 29.7068 31.0792 29.6999 31.1259C29.6999 31.1728 29.7199 31.2329 29.7534 31.2661C29.7869 31.3062 30.0877 31.3465 30.1412 31.3465C30.2749 31.3465 30.4153 31.3196 30.549 31.3196C30.6427 31.3196 30.763 31.3131 30.803 31.2129C30.8297 31.1528 30.8096 31.0724 30.8096 31.0057C30.7962 30.7384 30.8632 30.4714 30.8431 30.2041C30.8365 30.1171 30.8566 29.9302 30.7761 29.8767C30.716 29.8301 30.6226 29.8367 30.5556 29.8301C30.5356 29.8301 30.5155 29.8301 30.4955 29.8301C30.3952 29.8301 30.2881 29.8501 30.1879 29.8501C30.1346 29.8501 30.0742 29.8701 30.0141 29.8701C29.7468 29.8701 29.4794 29.8301 29.2053 29.8301C29.1452 29.8301 29.085 29.8301 29.0249 29.8367C28.9043 29.8501 28.7909 29.8633 28.6703 29.8701C28.5168 29.8701 28.3696 29.8701 28.2158 29.8701C28.0354 29.8701 27.855 29.8833 27.6877 29.9569C27.6542 30.2376 27.6811 30.5181 27.7012 30.7985C27.7078 30.8454 27.7078 30.8921 27.7344 30.9322C27.7745 31.0123 27.875 31.0392 27.9684 31.0392C27.9953 31.0392 28.022 31.0323 28.042 31.0323C28.0489 31.0323 28.0621 31.0323 28.0689 31.0323C28.276 31.0323 28.1757 31.3531 28.1757 31.4934C28.1757 31.6671 28.2092 31.8474 28.2092 32.0211C28.2092 32.2014 28.2092 32.3751 28.2092 32.5556C28.2092 32.7291 28.1691 32.9096 28.1691 33.0833C28.1691 33.2571 28.1356 33.4305 28.1356 33.5976C28.1356 33.8048 28.1422 34.0051 28.1491 34.2055C28.1557 34.4261 28.1958 34.9003 28.4899 34.9269C28.53 34.9338 28.5635 34.9338 28.6036 34.9338C28.7508 34.9338 28.9043 34.9069 29.0381 34.8937Z" fill="#6E58FF"/>
<path d="M32.9971 34.8873C33.1374 34.9008 33.2843 34.9543 33.4315 34.9543C33.445 34.9543 33.4582 34.9543 33.4716 34.9543C33.6921 34.9343 33.9061 34.8607 34.1 34.8072C34.14 34.8006 34.1735 34.7605 34.2002 34.7271C34.2405 34.687 34.2938 34.6469 34.3007 34.5934C34.3207 34.3662 34.2471 34.1459 34.1936 33.9255C34.1735 33.8253 34.12 33.6382 33.9931 33.6382C33.953 33.6382 33.9129 33.6582 33.8594 33.6782C33.7256 33.7317 33.5719 33.7317 33.4249 33.7317C33.2711 33.7317 33.0772 33.7117 32.9702 33.5981C32.7697 33.3577 32.7029 32.9768 32.676 32.6695C32.6628 32.4892 32.6359 32.3223 32.6428 32.1752C32.6494 32.035 32.7095 31.9014 32.743 31.7677C32.7697 31.6341 32.7897 31.4938 32.8633 31.3736C32.91 31.3001 33.0103 31.1665 33.1039 31.1398C33.1173 31.1332 33.1239 31.1332 33.1308 31.1332C33.2242 31.1332 33.1841 31.3135 33.1775 31.367C33.1709 31.4071 33.1239 31.4672 33.144 31.5004C33.164 31.5339 33.211 31.5674 33.2511 31.574C33.4249 31.6341 33.6119 31.6341 33.7992 31.661C33.8393 31.6675 33.8728 31.6741 33.9129 31.6741C34.0599 31.6409 34.1068 31.4203 34.1469 31.3001C34.2002 31.1132 34.2202 30.9126 34.2738 30.7257C34.3139 30.5652 34.4342 30.3182 34.3073 30.178C34.2672 30.1311 34.2002 30.0976 34.1469 30.071C33.8127 29.9107 33.4381 29.8438 33.0707 29.8438C32.6494 29.8572 32.2616 30.0309 32.0142 30.3915C31.8873 30.5786 31.8338 30.8125 31.7602 31.0262C31.7 31.2065 31.6132 31.3871 31.5797 31.574C31.5462 31.7611 31.5531 31.9549 31.5462 32.1486C31.533 32.3355 31.5396 32.5292 31.5531 32.7164C31.5731 32.9101 31.5998 33.097 31.6399 33.2842C31.6868 33.6181 31.8338 34.0792 32.021 34.353C32.1479 34.5399 32.3352 34.687 32.5423 34.7872C32.6829 34.8607 32.8433 34.8673 32.9971 34.8873Z" fill="#6E58FF"/>
<path d="M35.3297 31.1059C35.6104 31.1328 35.497 31.4132 35.497 31.6204C35.497 31.7939 35.5371 31.9544 35.5371 32.1081C35.5371 32.2749 35.5371 32.4352 35.5371 32.6023C35.5371 32.7626 35.5637 32.9228 35.5637 33.0965C35.5637 33.2637 35.5503 33.4374 35.5437 33.6111C35.5437 33.7848 35.5503 33.9516 35.5571 34.1253C35.5571 34.299 35.5236 34.4728 35.5371 34.6399C35.5371 34.6465 35.5371 34.6531 35.5371 34.6599C35.5637 34.8869 35.7175 34.9269 35.9048 34.9269C36.0718 34.9269 36.5062 34.8803 36.6534 34.7933C36.8072 34.6865 36.7938 34.3926 36.7938 34.2389C36.7938 33.9717 36.7537 33.7112 36.7471 33.444C36.7471 33.2771 36.7803 33.1166 36.7803 32.9497C36.8207 32.9497 36.8539 32.9563 36.9008 32.9563C37.0947 32.9563 37.2818 32.9832 37.4822 32.9898C37.4822 33.0298 37.5226 33.0364 37.5226 33.0765C37.5226 33.2502 37.5157 33.4239 37.5157 33.5976C37.5091 33.9585 37.4822 34.3191 37.5091 34.6799C37.5292 34.8402 37.6094 34.8468 37.7365 34.8602C37.8099 34.8668 37.8835 34.8737 37.9502 34.8737C38.1375 34.8737 38.3248 34.8468 38.5052 34.8202C38.5519 34.8067 38.592 34.8202 38.6321 34.7933C38.7793 34.6931 38.7191 34.3792 38.7191 34.2255C38.7125 33.9585 38.7257 33.6912 38.7257 33.4305C38.7257 33.2502 38.7257 33.0765 38.7257 32.8962C38.7257 32.7225 38.7458 32.5422 38.7458 32.3685C38.7458 32.1882 38.7326 32.0145 38.7326 31.8342C38.7326 31.647 38.7326 31.4599 38.7326 31.2661C38.7257 31.0792 38.6724 30.8921 38.6724 30.6984C38.6724 30.5115 38.7257 30.3243 38.7257 30.1306C38.7257 30.057 38.6856 29.9969 38.6054 29.9503C38.5587 29.9234 38.5052 29.8567 38.4451 29.8501C38.3448 29.8433 38.1776 29.8301 38.0238 29.8301C37.8769 29.8301 37.7365 29.8433 37.6495 29.8767C37.4756 29.9503 37.5558 30.2843 37.5492 30.4313C37.5292 30.6651 37.5292 30.9055 37.5292 31.1393C37.5292 31.2595 37.5157 31.3732 37.5157 31.4868C37.5157 31.5935 37.4891 31.6937 37.4891 31.7939C37.3353 31.8007 37.1881 31.8073 37.0346 31.8141C36.9409 31.8141 36.8808 31.8007 36.7872 31.8007C36.7872 31.6136 36.7402 31.4467 36.7402 31.2595C36.7402 31.0724 36.7402 30.8855 36.7402 30.7052C36.7336 30.5181 36.7737 30.3309 36.7737 30.1506C36.7737 29.9838 36.6801 29.8902 36.5197 29.8902C36.5197 29.8902 36.5131 29.8902 36.5062 29.8902C36.1319 29.8902 35.7576 29.8968 35.3899 29.8968C35.3632 29.8968 35.3432 29.8968 35.3231 29.8968C35.2229 29.8968 35.1694 29.9034 35.1158 30.0038C35.0892 30.0504 35.0356 30.0971 35.0356 30.1572C35.029 30.3109 35.0958 30.5782 35.0892 30.7384C35.0892 30.9322 35.0958 31.0724 35.3297 31.1059Z" fill="#6E58FF"/>
<path d="M39.6947 31.1129C39.9823 31.1462 39.9356 31.4134 39.9356 31.6206C39.9287 31.7941 39.9021 31.9546 39.9021 32.1083C39.9021 32.2751 39.8886 32.4354 39.8886 32.6025C39.8886 32.7628 39.9221 32.923 39.9221 33.0968C39.9221 33.2639 39.8686 33.4376 39.8686 33.6113C39.8686 33.7515 39.8886 33.8917 39.9021 34.032C39.9021 34.1656 39.882 34.2927 39.882 34.4263C39.8754 34.6132 39.9221 34.8604 40.1426 34.8871C40.2764 34.9005 40.4167 34.914 40.5505 34.914C40.6776 34.914 40.7979 34.9005 40.9248 34.8805C41.0319 34.8539 41.072 34.8204 41.1121 34.7068C41.1656 34.5531 41.1456 34.3928 41.1456 34.2392C41.1456 33.9719 41.1387 33.7114 41.1387 33.4442C41.1387 33.2372 41.1321 33.0235 41.1321 32.8163C41.1321 32.6091 41.1121 32.3753 41.1121 32.1684C41.2057 32.3152 41.2993 32.4889 41.3927 32.6291C41.4864 32.7696 41.6135 32.8964 41.7072 33.0435C41.7939 33.1769 41.8675 33.3374 41.9612 33.4911C41.9612 33.6245 41.9343 33.765 41.9343 33.9052C41.9343 34.1256 41.9944 34.3459 42.0414 34.5665C42.0815 34.7669 42.1416 34.8805 42.3555 34.8939C42.603 34.8939 43.044 34.8871 43.1643 34.6266C43.1912 34.5731 43.2245 34.5265 43.2245 34.4664C43.2245 34.2927 43.2044 34.1121 43.2044 33.9318C43.2044 33.5712 43.2044 33.2172 43.2044 32.8563C43.2044 32.676 43.1912 32.4955 43.1912 32.322C43.1912 32.1415 43.1778 31.9612 43.1778 31.7809C43.1778 31.6006 43.1978 31.4269 43.1978 31.2463C43.1912 31.066 43.2245 30.8857 43.2179 30.7054C43.2179 30.5249 43.1978 30.3512 43.1912 30.1709C43.1912 30.0973 43.1577 30.0441 43.0775 29.9972C43.024 29.9639 42.9839 29.8904 42.9171 29.8835C42.877 29.8835 42.8235 29.877 42.7634 29.877C42.556 29.877 42.2753 29.897 42.1416 29.9571C41.9678 30.0306 41.9944 30.3179 41.9878 30.4648C41.9744 30.6986 41.9878 30.9392 41.9878 31.1796C41.9878 31.2598 41.9543 31.3599 41.9543 31.4401C41.8675 31.2932 41.7739 31.1462 41.6803 30.9993C41.5866 30.8588 41.5265 30.6986 41.4331 30.5449C41.326 30.378 41.2057 30.2244 41.1121 30.0573C41.0854 30.0172 41.0654 29.9771 41.0253 29.9505C40.9717 29.9104 40.8915 29.9036 40.8179 29.9036C40.7042 29.9036 40.584 29.9036 40.4703 29.9036C40.4101 29.9036 40.3566 29.9036 40.2964 29.9036C40.116 29.897 39.9356 29.8835 39.7549 29.8835C39.7216 29.8835 39.6881 29.8835 39.6615 29.8835C39.5678 29.8835 39.4943 29.8904 39.4476 29.984C39.4207 30.0306 39.4542 30.1042 39.4542 30.1574C39.4476 30.3111 39.4141 30.5784 39.4141 30.7386C39.4141 30.9725 39.4407 31.0927 39.6947 31.1129Z" fill="#6E58FF"/>
<path d="M43.998 33.3372C44.0249 33.4908 44.0183 33.6511 44.065 33.7913C44.2455 34.3191 44.3792 34.5729 44.9007 34.8267C45.1347 34.9469 45.3819 34.9538 45.6427 34.9538C46.1843 34.9538 46.5518 34.8402 46.8662 34.3792C47.0867 34.0586 47.2336 33.7312 47.2872 33.3438C47.3273 33.1566 47.3742 32.9697 47.3943 32.776C47.4075 32.5888 47.4009 32.3951 47.3874 32.2082C47.3808 31.9944 47.2537 31.2796 47.1804 31.0858C47.0601 30.6917 46.7926 30.1975 46.4048 30.0104C46.2043 29.9102 45.9704 29.8967 45.7364 29.8967C45.6293 29.8902 45.5156 29.8701 45.4088 29.8701C45.2484 29.8701 45.0144 29.9302 44.8738 29.9969C44.5731 30.144 44.1919 30.7653 44.0851 31.0792C44.0249 31.2595 43.9648 31.4467 43.9313 31.6336C43.8978 31.8207 43.9113 32.0145 43.9047 32.2082C43.8912 32.3951 43.8846 32.5888 43.8978 32.776C43.9179 32.9697 43.9579 33.1566 43.998 33.3372ZM45.255 32.2614C45.2616 32.0145 45.2951 31.7738 45.3887 31.5669C45.4623 31.3998 45.5357 31.2661 45.6427 31.226C45.9569 31.3465 46.0105 31.9876 46.0171 32.2614C46.0237 32.442 46.0572 32.6758 46.0371 32.8962C46.0105 33.13 45.9435 33.3572 45.8432 33.504C45.7965 33.5842 45.7163 33.6311 45.6427 33.6511C45.4019 33.5842 45.275 33.1034 45.2484 32.8962C45.2215 32.6758 45.2484 32.442 45.255 32.2614Z" fill="#6E58FF"/>
<path d="M48.3857 31.0858C48.4458 31.0924 48.4994 31.1327 48.5326 31.1794C48.5727 31.2461 48.5727 31.3262 48.5661 31.4066C48.5661 31.6404 48.5595 31.8742 48.5527 32.108C48.5527 32.2749 48.5996 32.4352 48.5996 32.6023C48.5996 32.7625 48.5595 32.9228 48.5595 33.0965C48.5595 33.2301 48.6128 33.3704 48.6062 33.5175C48.5996 33.6577 48.5996 33.7979 48.6128 33.9384C48.6128 34.1453 48.5928 34.3591 48.6397 34.5663C48.6798 34.7666 48.76 34.8937 48.9805 34.9069C49.014 34.9069 49.0407 34.9069 49.0742 34.9069C49.1343 34.9069 49.2013 34.9069 49.2615 34.9069C49.3082 34.9137 49.3549 34.9137 49.4018 34.9137C49.4954 34.9137 49.5888 34.9069 49.6825 34.9069C49.7896 34.9069 49.9434 34.8602 50.1037 34.8536C50.1103 34.8536 50.1238 34.8536 50.1304 34.8536C50.2842 34.8536 50.438 34.9069 50.5316 34.9069C50.6184 34.9069 50.7054 34.9003 50.7856 34.9003C51.0531 34.9003 51.1533 34.8001 51.1734 34.5463C51.1866 34.3926 51.1599 34.2323 51.1533 34.0718C51.1465 33.9917 51.1665 33.8981 51.1333 33.8114C51.1198 33.7779 51.0863 33.6711 51.0463 33.6511C51.0331 33.6443 51.0196 33.6443 50.9996 33.6443C50.7856 33.6443 50.5717 33.6511 50.3578 33.6511C50.3512 33.6511 50.3443 33.6511 50.3311 33.6511C50.2707 33.6511 50.1974 33.6577 50.1238 33.6577C49.8698 33.6577 49.8563 33.5441 49.8363 33.3237C49.8363 33.1901 49.8497 33.0633 49.8497 32.9362C49.8497 32.7625 49.8431 32.5957 49.8431 32.422C49.8363 32.2549 49.8363 32.0811 49.8363 31.9143C49.8363 31.8943 49.8431 31.8742 49.8431 31.8542C49.8431 31.667 49.8096 31.4799 49.8028 31.293C49.8028 31.1058 49.8162 30.919 49.8162 30.7318C49.8162 30.5447 49.8028 29.9503 49.5822 29.8767C49.5487 29.8701 49.5086 29.8701 49.4754 29.8701C49.3348 29.8701 49.1945 29.8833 49.0541 29.8833C49.0341 29.8833 49.0074 29.8833 48.9874 29.8833C48.9539 29.8833 48.9138 29.8833 48.8803 29.8833C48.7334 29.8833 48.5862 29.8902 48.4392 29.8902C48.3989 29.8902 48.3588 29.8902 48.3256 29.8902C48.2454 29.8902 48.1784 29.9033 48.1383 29.9837C48.1116 30.0304 48.0982 30.0971 48.0982 30.1572C48.0916 30.3109 48.0781 30.5781 48.0781 30.7318C48.0781 30.832 48.1048 30.9656 48.1784 31.0323C48.252 31.0924 48.2921 31.0724 48.3857 31.0858Z" fill="#6E58FF"/>
<path d="M51.9551 33.3372C51.982 33.4908 51.9754 33.6511 52.0221 33.7913C52.2025 34.3191 52.3362 34.5729 52.8577 34.8267C53.0917 34.9469 53.3389 34.9538 53.5998 34.9538C54.1413 34.9538 54.5088 34.8402 54.8232 34.3792C55.0437 34.0586 55.1907 33.7312 55.2442 33.3438C55.2843 33.1566 55.3313 32.9697 55.3513 32.776C55.3645 32.5888 55.3579 32.3951 55.3445 32.2082C55.3379 31.9944 55.2107 31.2796 55.1374 31.0858C55.0171 30.6917 54.7496 30.1975 54.3619 30.0104C54.1614 29.9102 53.9274 29.8967 53.6934 29.8967C53.5863 29.8902 53.4726 29.8701 53.3658 29.8701C53.2054 29.8701 52.9714 29.9302 52.8308 29.9969C52.5301 30.144 52.149 30.7653 52.0421 31.0792C51.982 31.2595 51.9218 31.4467 51.8883 31.6336C51.8548 31.8207 51.8683 32.0145 51.8617 32.2082C51.8482 32.3951 51.8416 32.5888 51.8548 32.776C51.8749 32.9697 51.915 33.1566 51.9551 33.3372ZM53.212 32.2614C53.2186 32.0145 53.2521 31.7738 53.3458 31.5669C53.4193 31.3998 53.4927 31.2661 53.5998 31.226C53.9139 31.3465 53.9675 31.9876 53.9741 32.2614C53.9807 32.442 54.0142 32.6758 53.9941 32.8962C53.9675 33.13 53.9005 33.3572 53.8003 33.504C53.7536 33.5842 53.6734 33.6311 53.5998 33.6511C53.3589 33.5842 53.2321 33.1034 53.2054 32.8962C53.1785 32.6758 53.2054 32.442 53.212 32.2614Z" fill="#6E58FF"/>
<path d="M56.1255 33.2969C56.1656 33.6174 56.3194 34.1051 56.4932 34.3655C56.7538 34.7398 57.0413 34.8666 57.4758 34.9201C57.623 34.9467 57.7565 34.9802 57.9037 34.9802C57.9171 34.9802 57.9303 34.9802 57.9438 34.9802C57.9438 35.1004 57.9904 35.1739 57.9973 35.2274C58.0374 35.4278 58.1041 35.5345 58.298 35.548C58.4719 35.548 58.9868 35.4813 59.0601 35.3076C59.0801 35.2541 59.0801 35.1874 59.0801 35.1273C59.0736 34.9401 59.0335 34.773 59.0335 34.6196C59.0335 34.4325 59.0401 34.2653 59.0401 34.1117C59.0335 33.9314 59.067 33.7645 59.067 33.604C59.067 33.4437 59.0469 33.2834 59.0469 33.0963C59.0401 32.9426 59.0401 32.7824 59.0401 32.5886C59.0401 32.4349 59.02 32.2681 59.02 32.0809C59.02 31.9207 58.9599 31.854 58.7995 31.8339C58.7393 31.8271 58.6858 31.8271 58.6256 31.8271C58.4988 31.8271 58.365 31.8339 58.2379 31.8405C58.0909 31.8471 57.9438 31.8606 57.7968 31.8672C57.7098 31.874 57.5628 31.854 57.5093 31.9473C57.4824 31.9942 57.4758 32.0477 57.4692 32.101C57.4623 32.2815 57.4692 32.4618 57.4692 32.6355C57.4692 32.7088 57.4623 32.8092 57.5159 32.8625C57.5293 32.8759 57.5425 32.8759 57.5628 32.8759C57.6095 32.8759 57.6631 32.8559 57.7032 32.8625C57.7633 32.8693 57.8301 32.896 57.8836 32.9226C58.0173 32.9961 57.9839 33.3101 57.9839 33.4371C57.9839 33.5239 57.9973 33.6309 57.9638 33.7176C57.9638 33.7244 57.9572 33.7376 57.9504 33.7445C57.9303 33.7511 57.877 33.7577 57.857 33.7577C57.7098 33.7577 57.556 33.7044 57.4623 33.5974C57.3555 33.4772 57.2418 33.3435 57.1883 33.1833C57.1482 33.023 57.1883 32.8425 57.1751 32.6822C57.1616 32.5019 57.155 32.3348 57.1616 32.188C57.1951 31.6734 57.3555 31.0455 57.9773 31.0455C58.0841 31.0455 58.1978 31.0722 58.3249 31.1191C58.365 31.1325 58.3983 31.1457 58.4252 31.1457C58.5254 31.1457 58.6924 30.9319 58.7193 30.8452C58.766 30.6246 58.7327 30.3976 58.7124 30.1773C58.7058 30.1238 58.7594 30.0302 58.7193 29.9901C58.6858 29.9635 58.6256 29.9435 58.5855 29.93C58.3249 29.8565 58.0173 29.8164 57.7433 29.8164C56.881 29.8164 56.4863 30.2906 56.2257 31.0389C56.1656 31.2193 56.0986 31.3996 56.0585 31.5867C56.0252 31.7736 56.0453 31.9673 56.0384 32.1611C56.0252 32.3482 56.0318 32.542 56.0453 32.7289C56.0653 32.9226 56.0785 33.1097 56.1255 33.2969Z" fill="#6E58FF"/>
<path d="M62.6964 31.24C62.7834 31.0529 62.8367 30.8525 62.9238 30.6722C63.0106 30.4851 63.1309 30.3182 63.2179 30.1311C63.2514 30.0575 63.278 29.9642 63.2179 29.9173C63.1844 29.8907 63.1243 29.8706 63.0641 29.8638C62.9974 29.8572 62.9103 29.8572 62.8167 29.8572C62.2619 29.8572 62.1348 29.9039 61.8475 30.4049C61.7404 30.6187 61.6602 30.8325 61.56 31.0463C61.4598 30.8325 61.3661 30.6253 61.259 30.4118C61.1857 30.2847 61.1387 30.1511 61.052 30.0309C60.9317 29.8706 60.7979 29.8506 60.604 29.8438C60.5439 29.8438 60.4838 29.8438 60.4236 29.8438C60.3701 29.8438 60.3099 29.8438 60.2498 29.8438C60.1762 29.8438 59.9557 29.8437 59.8887 29.8838C59.8285 29.9107 59.795 29.9708 59.775 30.0309C59.7483 30.1377 59.7549 30.2513 59.7549 30.3649C59.7549 30.4851 59.7549 30.6121 59.7483 30.7389C59.7483 30.8391 59.7283 30.9661 59.8085 31.0328C59.862 31.0729 59.9156 31.0797 59.9757 31.0797C60.0158 31.0797 60.049 31.0797 60.0891 31.0797C60.2363 31.0797 60.3099 31.1533 60.3835 31.2735C60.497 31.4403 60.5906 31.6209 60.6776 31.8012C60.7109 31.8879 60.7378 31.9749 60.7911 32.0484C60.8446 32.1286 60.8982 32.2087 60.9383 32.2954C60.9449 32.3023 60.9583 32.3289 60.9649 32.3423C60.9784 32.3756 60.9517 32.4156 60.9517 32.4491C60.9449 32.5092 60.9583 32.5693 60.9583 32.6294C60.9649 32.7499 60.9718 32.8701 60.9718 32.9903C60.9784 33.2441 60.9784 33.4913 60.9649 33.7383C60.9449 34.0323 60.9048 34.3262 60.9517 34.6135C60.9918 34.8138 61.0786 34.9074 61.2925 34.9074C61.3395 34.9074 61.3862 34.9074 61.4263 34.9008C61.6067 34.8942 61.7805 34.8541 61.9544 34.8207C61.961 34.8207 61.9678 34.8207 61.9744 34.8207C61.9945 34.8207 62.028 34.8272 62.0546 34.8272C62.0681 34.8272 62.0815 34.8207 62.0947 34.8138C62.2485 34.7136 62.1548 34.3662 62.1548 34.2194C62.1483 33.9521 62.2152 33.6851 62.2152 33.4178C62.2152 33.2641 62.1883 33.1039 62.1883 32.9433C62.1883 32.7831 62.1749 32.6294 62.1749 32.4691C62.1749 32.4291 62.1683 32.389 62.1683 32.3489C62.2619 32.1686 62.3487 31.9815 62.4424 31.7943C62.5294 31.614 62.6096 31.4271 62.6964 31.24Z" fill="#6E58FF"/>
<mask id="mask0_81_1121" style="mask-type:luminance" maskUnits="userSpaceOnUse" x="3" y="0" width="30" height="29">
<path d="M3.88281 0.463867H32.4244V28.6841H3.88281V0.463867Z" fill="white"/>
</mask>
<g mask="url(#mask0_81_1121)">
<path d="M13.5774 28.6858H3.88281L22.7432 0.479492H32.4379L13.5774 28.6858Z" fill="#6E58FF"/>
</g>
<mask id="mask1_81_1121" style="mask-type:luminance" maskUnits="userSpaceOnUse" x="23" y="0" width="10" height="29">
<path d="M23.8164 0.45166H32.2752V28.6982H23.8164V0.45166Z" fill="white"/>
</mask>
<g mask="url(#mask1_81_1121)">
<path d="M23.8164 0.45166H32.2752V28.6982H23.8164V0.45166Z" fill="#6E58FF"/>
</g>
<path d="M63.9658 18.6004C63.7985 16.3792 62.6786 14.6147 61.17 13.0704C59.8747 11.7446 58.5533 10.4429 57.2065 9.16943C56.55 8.54814 55.9834 7.8102 55.1431 7.39939C55.1124 7.38874 55.082 7.37784 55.0512 7.36617C54.9794 7.3365 54.9074 7.30785 54.8355 7.27818C54.1519 7.04158 53.5778 7.19728 53.0759 7.75365C52.5957 8.28568 52.5003 8.91052 52.8295 9.57213C53.2279 10.373 53.9045 10.9329 54.5566 11.5128C55.9887 12.94 57.4441 14.3441 58.8456 15.8005C60.4251 17.4427 60.8228 19.3796 60.0419 21.5217C59.3547 23.4058 57.9712 24.4998 56.0194 24.8997C55.9877 24.9061 55.9572 24.9132 55.9257 24.9195C55.8159 24.9268 55.7062 24.934 55.5966 24.9411C55.4149 24.9385 55.2322 24.9322 55.0505 24.934C53.4728 24.9474 52.1395 24.4072 51.0871 23.208C50.748 22.8216 50.4737 22.392 50.1839 21.9713C49.8332 21.4616 49.4094 21.0373 48.7465 20.9833C47.3802 20.872 46.44 22.2426 47.0805 23.5369C48.1484 25.6945 49.7964 27.2763 52.0981 28.0944C53.2271 28.4953 54.3919 28.6886 55.591 28.4215C56.0049 28.4459 56.4016 28.3434 56.801 28.2608C56.8414 28.2453 56.8809 28.2301 56.9215 28.2149C57.069 28.1806 57.2164 28.1464 57.3641 28.1114L57.4073 28.1248L57.4359 28.0898C57.6412 28.1259 57.7527 27.9235 57.9227 27.892C59.5428 27.591 60.7581 26.5815 61.797 25.4355C63.5349 23.5174 64.1591 21.1631 63.9658 18.6004Z" fill="#6E58FF"/>
<path d="M49.397 16.7006C50.6212 17.9472 51.8223 19.221 53.1734 20.3365C53.4881 20.6385 53.784 20.9639 54.1223 21.2372C54.9455 21.9031 56.2057 21.9194 56.7894 21.2956C57.3903 20.6537 57.2886 19.5499 56.4836 18.7338C55.5112 17.7486 54.5775 16.7221 53.5241 15.8196C52.8125 14.9442 51.9068 14.2618 51.1448 13.4341C50.6996 12.9495 50.1995 12.4705 49.9378 11.8961C48.9933 9.82048 49.2252 7.82956 50.6357 6.01362C50.8633 5.72073 51.0793 5.41871 51.4003 5.18668C52.2685 4.55753 53.2399 4.2446 54.2806 4.09093C55.8378 4.0146 57.2393 4.38407 58.4087 5.47805C59.0122 6.04329 59.3946 6.77692 59.9342 7.39263C60.4442 7.97512 61.0936 8.2457 61.7613 8.01291C62.5122 7.7512 62.9639 7.11572 62.9441 6.35698C62.9307 5.8493 62.7569 5.3898 62.5016 4.96479C61.9922 4.11882 61.3626 3.389 60.6125 2.72663C59.2226 1.49673 57.635 0.801899 55.8071 0.608666C55.7324 0.59979 55.6578 0.590661 55.584 0.580771C55.2262 0.464121 54.86 0.519657 54.4966 0.530561C54.3877 0.525236 54.2788 0.510781 54.171 0.517121C50.4756 0.711115 47.1024 3.46355 46.2099 7.04572C45.5435 9.72082 45.8465 12.243 47.4559 14.555C48.0137 15.3568 48.7225 16.0128 49.397 16.7006Z" fill="#6E58FF"/>
<mask id="mask2_81_1121" style="mask-type:luminance" maskUnits="userSpaceOnUse" x="28" y="8" width="19" height="21">
<path d="M28.0469 8.91846H46.9423V28.6982H28.0469V8.91846Z" fill="white"/>
</mask>
<g mask="url(#mask2_81_1121)">
<mask id="mask3_81_1121" style="mask-type:luminance" maskUnits="userSpaceOnUse" x="28" y="8" width="19" height="21">
<path d="M37.4946 8.91846C32.2768 8.91846 28.0469 13.3463 28.0469 18.8084C28.0469 24.2704 32.2768 28.6982 37.4946 28.6982C42.7124 28.6982 46.9423 24.2704 46.9423 18.8084C46.9423 13.3463 42.7124 8.91846 37.4946 8.91846Z" fill="white"/>
</mask>
<g mask="url(#mask3_81_1121)">
<path d="M28.0469 8.91846H46.9423V28.6982H28.0469V8.91846Z" fill="#6E58FF"/>
</g>
</g>
<mask id="mask4_81_1121" style="mask-type:luminance" maskUnits="userSpaceOnUse" x="33" y="14" width="9" height="9">
<path d="M33.6562 14.9766H41.3259V22.6405H33.6562V14.9766Z" fill="white"/>
</mask>
<g mask="url(#mask4_81_1121)">
<mask id="mask5_81_1121" style="mask-type:luminance" maskUnits="userSpaceOnUse" x="33" y="14" width="9" height="9">
<path d="M37.4911 14.9766C35.3734 14.9766 33.6562 16.6921 33.6562 18.8085C33.6562 20.9247 35.3734 22.6405 37.4911 22.6405C39.6091 22.6405 41.3259 20.9247 41.3259 18.8085C41.3259 16.6921 39.6091 14.9766 37.4911 14.9766Z" fill="white"/>
</mask>
<g mask="url(#mask5_81_1121)">
<path d="M33.6562 14.9766H41.3259V22.6405H33.6562V14.9766Z" fill="white"/>
</g>
</g>
<mask id="mask6_81_1121" style="mask-type:luminance" maskUnits="userSpaceOnUse" x="0" y="28" width="56" height="7">
<path d="M0 28.5264H55.7937V34.439H0V28.5264Z" fill="white"/>
</mask>
<g mask="url(#mask6_81_1121)">
<path d="M9.73217 34.448H0L46.0584 -34.4321H55.7888L9.73217 34.448Z" fill="#6E58FF"/>
</g>
</g>
<defs>
<clipPath id="clip0_81_1121">
<rect width="64" height="36" fill="white"/>
</clipPath>
</defs>
</svg>
