<svg width="62" height="62" viewBox="0 0 62 62" fill="none" xmlns="http://www.w3.org/2000/svg">
<circle cx="31" cy="31" r="31" fill="white"/>
<path d="M25.7547 38.9564C25.7592 39.0444 25.7197 39.1634 25.8205 39.2073C25.8425 39.2162 25.8645 39.2205 25.8908 39.2205C25.9259 39.2205 25.9654 39.2118 26.0005 39.2118C26.1013 39.2118 26.1979 39.2118 26.2945 39.2073C26.3076 39.2073 26.3163 39.2073 26.3294 39.2162C26.3866 39.2469 26.3557 39.4055 26.3557 39.4538C26.3557 39.5683 26.3734 39.6873 26.3689 39.8017C26.3689 39.9207 26.3294 40.0352 26.3294 40.154C26.3294 40.2685 26.3383 40.3873 26.3383 40.5018C26.3339 40.6163 26.3339 40.7308 26.3294 40.8408C26.3294 40.9817 26.3866 41.1094 26.3821 41.2503C26.3777 41.3295 26.3646 41.4089 26.3646 41.4881C26.3689 41.5498 26.3777 41.5981 26.4215 41.6377C26.448 41.6641 26.4787 41.6775 26.5138 41.6818C26.5971 41.6907 26.676 41.695 26.7594 41.695C26.8472 41.695 26.935 41.6907 27.0226 41.673C27.0534 41.6686 27.0928 41.673 27.1148 41.6554C27.2158 41.5894 27.1761 41.3559 27.1761 41.2591C27.1718 41.083 27.1938 40.907 27.1938 40.7308C27.1893 40.6163 27.1586 40.5018 27.1543 40.383C27.1498 40.3124 27.1543 40.2376 27.1586 40.1629C27.1675 40.0042 27.1806 39.8414 27.1806 39.6828C27.1806 39.52 27.1586 39.3614 27.1586 39.1985C27.3122 39.1985 27.4657 39.203 27.6193 39.203C27.6499 39.203 27.6676 39.1809 27.6896 39.1281C27.6982 39.0928 27.7159 39.0577 27.7159 39.0136C27.7245 38.8859 27.7377 38.6173 27.7114 38.4985C27.6939 38.4325 27.6456 38.4192 27.593 38.4192C27.5623 38.4192 27.5315 38.4236 27.5095 38.4236C27.5052 38.4236 27.5052 38.4236 27.5009 38.4236C27.4088 38.4104 27.3165 38.3883 27.2201 38.3883C27.1761 38.3883 27.128 38.3751 27.084 38.3751C27.0139 38.3751 26.9436 38.3928 26.8778 38.3928C26.7901 38.384 26.6805 38.3576 26.5927 38.3576C26.5751 38.3576 26.5576 38.3619 26.5444 38.3619C26.5138 38.3619 26.4875 38.3796 26.4567 38.3796C26.3514 38.3796 26.2505 38.3751 26.1496 38.3751C26.0487 38.3796 25.9477 38.4015 25.847 38.4147C25.8425 38.4147 25.8425 38.4192 25.8381 38.4192C25.8162 38.4236 25.803 38.4279 25.7855 38.4589C25.7679 38.4853 25.7592 38.516 25.7592 38.5513C25.7504 38.6658 25.7461 38.7803 25.7547 38.8991C25.7547 38.9168 25.7547 38.9387 25.7547 38.9564Z" fill="#6E58FF"/>
<path d="M29.0675 41.6991C29.0851 41.6991 29.1026 41.6946 29.1201 41.6946C29.2605 41.6946 29.4009 41.6903 29.5413 41.6903C29.5764 41.6903 29.6115 41.6903 29.6467 41.6903C29.7651 41.6903 29.8835 41.6903 30.0019 41.6946C30.059 41.6946 30.116 41.6903 30.1643 41.6682C30.3003 41.6022 30.2609 41.3336 30.2652 41.2104C30.2652 41.1003 30.252 40.9901 30.2432 40.8801C30.2389 40.8537 30.2477 40.8096 30.2301 40.7877C30.1863 40.7436 30.0897 40.7392 30.0327 40.7392C29.9756 40.7392 29.9141 40.7436 29.8572 40.7436C29.8089 40.7392 29.7563 40.7392 29.708 40.7392C29.6598 40.7392 29.6115 40.7392 29.5721 40.7481C29.5632 40.7524 29.5413 40.7436 29.5369 40.7481C29.5106 40.7656 29.5238 40.8185 29.5238 40.8492C29.5238 40.8669 29.5194 40.8845 29.5194 40.9022C29.5194 40.9065 29.5106 40.9109 29.5106 40.9154C29.5018 40.9373 29.4492 40.9373 29.4317 40.9373C29.3527 40.9373 29.3131 40.9286 29.3131 40.8449C29.3131 40.8141 29.3396 40.4265 29.3308 40.4265C29.3614 40.4265 29.3746 40.4222 29.4054 40.4222C29.4317 40.4222 29.4623 40.4222 29.4886 40.4222C29.5764 40.4222 29.6685 40.4178 29.7474 40.3782C29.8309 40.3341 29.8572 40.0568 29.8615 39.9776C29.866 39.8938 29.8747 39.7573 29.8002 39.7001C29.7606 39.6737 29.5106 39.6605 29.458 39.6605C29.4054 39.6605 29.3571 39.6605 29.3088 39.6649C29.3088 39.5724 29.2913 39.4843 29.2913 39.3919C29.2913 39.3038 29.3131 39.2157 29.3088 39.1233C29.3571 39.1233 29.3922 39.1277 29.4403 39.1277C29.4535 39.1277 29.4667 39.1277 29.4843 39.1365C29.5194 39.1497 29.5063 39.185 29.5018 39.2157C29.5018 39.2467 29.5149 39.2863 29.5369 39.3082C29.5589 39.3346 29.7563 39.3612 29.7914 39.3612C29.8792 39.3612 29.9713 39.3434 30.059 39.3434C30.1205 39.3434 30.1994 39.3391 30.2257 39.2731C30.2432 39.2335 30.2301 39.1805 30.2301 39.1365C30.2212 38.9604 30.2652 38.7844 30.252 38.6082C30.2477 38.5509 30.2609 38.4277 30.2081 38.3924C30.1686 38.3617 30.1073 38.366 30.0634 38.3617C30.0502 38.3617 30.037 38.3617 30.0239 38.3617C29.9581 38.3617 29.8878 38.3749 29.822 38.3749C29.7871 38.3749 29.7474 38.3881 29.708 38.3881C29.5326 38.3881 29.3571 38.3617 29.1772 38.3617C29.1377 38.3617 29.0983 38.3617 29.0588 38.366C28.9797 38.3749 28.9053 38.3836 28.8261 38.3881C28.7254 38.3881 28.6288 38.3881 28.5279 38.3881C28.4095 38.3881 28.2911 38.3968 28.1813 38.4452C28.1593 38.6303 28.177 38.8151 28.1901 39C28.1945 39.0309 28.1945 39.0616 28.212 39.0881C28.2383 39.1409 28.3042 39.1586 28.3655 39.1586C28.3832 39.1586 28.4006 39.1541 28.4138 39.1541C28.4183 39.1541 28.427 39.1541 28.4315 39.1541C28.5673 39.1541 28.5016 39.3655 28.5016 39.4579C28.5016 39.5724 28.5235 39.6913 28.5235 39.8058C28.5235 39.9246 28.5235 40.0391 28.5235 40.1581C28.5235 40.2724 28.4972 40.3914 28.4972 40.5059C28.4972 40.6204 28.4753 40.7347 28.4753 40.8449C28.4753 40.9814 28.4796 41.1135 28.4841 41.2455C28.4884 41.3909 28.5147 41.7035 28.7077 41.721C28.7341 41.7255 28.756 41.7255 28.7823 41.7255C28.8789 41.7255 28.9797 41.7078 29.0675 41.6991Z" fill="#6E58FF"/>
<path d="M31.6541 41.6923C31.7462 41.7011 31.8426 41.7364 31.9392 41.7364C31.948 41.7364 31.9567 41.7364 31.9655 41.7364C32.1102 41.7232 32.2506 41.6747 32.3779 41.6395C32.4042 41.6351 32.4261 41.6087 32.4436 41.5866C32.4701 41.5602 32.5051 41.5338 32.5096 41.4986C32.5227 41.3488 32.4744 41.2036 32.4393 41.0583C32.4261 40.9923 32.391 40.8689 32.3077 40.8689C32.2814 40.8689 32.2551 40.8821 32.22 40.8954C32.1322 40.9306 32.0313 40.9306 31.9349 40.9306C31.8339 40.9306 31.7067 40.9174 31.6364 40.8425C31.5049 40.6841 31.4611 40.433 31.4434 40.2305C31.4347 40.1116 31.4171 40.0017 31.4216 39.9047C31.4259 39.8123 31.4654 39.7242 31.4874 39.6361C31.5049 39.548 31.518 39.4556 31.5663 39.3764C31.597 39.3279 31.6627 39.2398 31.7242 39.2223C31.733 39.2179 31.7373 39.2179 31.7418 39.2179C31.8031 39.2179 31.7768 39.3368 31.7725 39.372C31.7682 39.3984 31.7373 39.4381 31.7505 39.46C31.7637 39.482 31.7945 39.5041 31.8208 39.5084C31.9349 39.548 32.0576 39.548 32.1805 39.5658C32.2068 39.5701 32.2288 39.5744 32.2551 39.5744C32.3515 39.5525 32.3823 39.4071 32.4087 39.3279C32.4436 39.2047 32.4568 39.0725 32.4919 38.9493C32.5182 38.8435 32.5972 38.6807 32.5139 38.5883C32.4876 38.5574 32.4436 38.5353 32.4087 38.5178C32.1893 38.4122 31.9435 38.368 31.7024 38.368C31.4259 38.3769 31.1714 38.4914 31.0091 38.729C30.9258 38.8524 30.8907 39.0065 30.8424 39.1474C30.8029 39.2662 30.7459 39.3852 30.724 39.5084C30.702 39.6318 30.7065 39.7595 30.702 39.8872C30.6933 40.0103 30.6976 40.138 30.7065 40.2614C30.7196 40.3891 30.7371 40.5123 30.7634 40.6356C30.7942 40.8557 30.8907 41.1596 31.0136 41.3401C31.0968 41.4633 31.2197 41.5602 31.3556 41.6263C31.4479 41.6747 31.5532 41.6791 31.6541 41.6923Z" fill="#6E58FF"/>
<path d="M33.2002 39.2025C33.3843 39.2203 33.3099 39.4051 33.3099 39.5417C33.3099 39.656 33.3362 39.7618 33.3362 39.8631C33.3362 39.9731 33.3362 40.0787 33.3362 40.1888C33.3362 40.2945 33.3537 40.4001 33.3537 40.5146C33.3537 40.6247 33.3449 40.7392 33.3405 40.8537C33.3405 40.9682 33.3449 41.0782 33.3494 41.1927C33.3494 41.3072 33.3274 41.4217 33.3362 41.5318C33.3362 41.5362 33.3362 41.5405 33.3362 41.545C33.3537 41.6946 33.4546 41.721 33.5775 41.721C33.6871 41.721 33.9722 41.6903 34.0688 41.6329C34.1697 41.5626 34.1609 41.3688 34.1609 41.2676C34.1609 41.0914 34.1346 40.9197 34.1303 40.7436C34.1303 40.6336 34.1521 40.5278 34.1521 40.4178C34.1786 40.4178 34.2004 40.4222 34.2312 40.4222C34.3584 40.4222 34.4812 40.4399 34.6127 40.4442C34.6127 40.4706 34.6392 40.475 34.6392 40.5014C34.6392 40.6159 34.6347 40.7304 34.6347 40.8449C34.6304 41.0827 34.6127 41.3204 34.6304 41.5582C34.6435 41.6638 34.6962 41.6682 34.7796 41.6771C34.8277 41.6814 34.876 41.6859 34.9198 41.6859C35.0427 41.6859 35.1656 41.6682 35.284 41.6506C35.3147 41.6418 35.341 41.6506 35.3673 41.6329C35.4639 41.5669 35.4244 41.36 35.4244 41.2587C35.4201 41.0827 35.4288 40.9065 35.4288 40.7347C35.4288 40.6159 35.4288 40.5014 35.4288 40.3826C35.4288 40.2681 35.4419 40.1492 35.4419 40.0347C35.4419 39.9159 35.4333 39.8014 35.4333 39.6826C35.4333 39.5592 35.4333 39.4359 35.4333 39.3082C35.4288 39.185 35.3938 39.0616 35.3938 38.934C35.3938 38.8108 35.4288 38.6874 35.4288 38.5597C35.4288 38.5113 35.4025 38.4716 35.3498 38.4409C35.3192 38.4232 35.284 38.3792 35.2446 38.3749C35.1788 38.3704 35.069 38.3617 34.9681 38.3617C34.8717 38.3617 34.7796 38.3704 34.7225 38.3924C34.6084 38.4409 34.661 38.661 34.6567 38.758C34.6435 38.9121 34.6435 39.0705 34.6435 39.2246C34.6435 39.3038 34.6347 39.3787 34.6347 39.4536C34.6347 39.524 34.6172 39.59 34.6172 39.656C34.5163 39.6605 34.4197 39.6649 34.319 39.6694C34.2575 39.6694 34.218 39.6605 34.1566 39.6605C34.1566 39.5372 34.1258 39.4272 34.1258 39.3038C34.1258 39.1805 34.1258 39.0573 34.1258 38.9385C34.1214 38.8151 34.1478 38.6918 34.1478 38.5729C34.1478 38.463 34.0863 38.4013 33.9811 38.4013C33.9811 38.4013 33.9767 38.4013 33.9722 38.4013C33.7266 38.4013 33.4809 38.4056 33.2396 38.4056C33.2221 38.4056 33.209 38.4056 33.1958 38.4056C33.13 38.4056 33.0949 38.41 33.0598 38.4762C33.0423 38.5069 33.0071 38.5377 33.0071 38.5773C33.0028 38.6786 33.0466 38.8547 33.0423 38.9604C33.0423 39.0881 33.0466 39.1805 33.2002 39.2025Z" fill="#6E58FF"/>
<path d="M36.0387 39.2122C36.2274 39.2341 36.1967 39.4103 36.1967 39.5469C36.1922 39.6612 36.1747 39.767 36.1747 39.8683C36.1747 39.9782 36.1659 40.0839 36.1659 40.194C36.1659 40.2997 36.1879 40.4053 36.1879 40.5198C36.1879 40.6299 36.1528 40.7444 36.1528 40.8589C36.1528 40.9513 36.1659 41.0438 36.1747 41.1362C36.1747 41.2243 36.1616 41.308 36.1616 41.3961C36.1573 41.5193 36.1879 41.6822 36.3326 41.6998C36.4204 41.7086 36.5125 41.7175 36.6003 41.7175C36.6837 41.7175 36.7626 41.7086 36.8459 41.6954C36.9162 41.6779 36.9425 41.6558 36.9688 41.5809C37.0039 41.4797 36.9908 41.374 36.9908 41.2727C36.9908 41.0966 36.9863 40.9249 36.9863 40.7488C36.9863 40.6124 36.982 40.4715 36.982 40.3349C36.982 40.1984 36.9688 40.0443 36.9688 39.9079C37.0303 40.0046 37.0917 40.1191 37.153 40.2116C37.2144 40.3042 37.2979 40.3877 37.3593 40.4847C37.4163 40.5726 37.4646 40.6784 37.526 40.7797C37.526 40.8676 37.5084 40.9602 37.5084 41.0526C37.5084 41.1979 37.5479 41.3431 37.5787 41.4885C37.605 41.6206 37.6444 41.6954 37.7848 41.7043C37.9472 41.7043 38.2367 41.6998 38.3156 41.5281C38.3332 41.4929 38.3551 41.4621 38.3551 41.4225C38.3551 41.308 38.3419 41.189 38.3419 41.0702C38.3419 40.8325 38.3419 40.5992 38.3419 40.3613C38.3419 40.2425 38.3332 40.1235 38.3332 40.0092C38.3332 39.8902 38.3244 39.7713 38.3244 39.6525C38.3244 39.5336 38.3376 39.4192 38.3376 39.3002C38.3332 39.1813 38.3551 39.0625 38.3507 38.9436C38.3507 38.8246 38.3376 38.7102 38.3332 38.5913C38.3332 38.5428 38.3113 38.5077 38.2586 38.4768C38.2235 38.4549 38.1972 38.4065 38.1534 38.4019C38.1271 38.4019 38.0919 38.3976 38.0525 38.3976C37.9164 38.3976 37.7322 38.4108 37.6444 38.4504C37.5304 38.4989 37.5479 38.6883 37.5435 38.785C37.5347 38.9391 37.5435 39.0977 37.5435 39.2562C37.5435 39.309 37.5215 39.375 37.5215 39.4278C37.4646 39.3311 37.4031 39.2341 37.3417 39.1374C37.2802 39.0448 37.2408 38.9391 37.1795 38.8378C37.1092 38.7279 37.0303 38.6266 36.9688 38.5164C36.9513 38.49 36.9382 38.4636 36.9118 38.4461C36.8767 38.4197 36.8241 38.4151 36.7758 38.4151C36.7012 38.4151 36.6222 38.4151 36.5476 38.4151C36.5082 38.4151 36.473 38.4151 36.4335 38.4151C36.3151 38.4108 36.1967 38.4019 36.0782 38.4019C36.0563 38.4019 36.0344 38.4019 36.0169 38.4019C35.9554 38.4019 35.9071 38.4065 35.8765 38.4681C35.8588 38.4989 35.8808 38.5474 35.8808 38.5825C35.8765 38.6837 35.8545 38.8599 35.8545 38.9655C35.8545 39.1196 35.872 39.1989 36.0387 39.2122Z" fill="#6E58FF"/>
<path d="M38.8596 40.6791C38.8772 40.7804 38.8729 40.886 38.9035 40.9784C39.0219 41.3262 39.1097 41.4935 39.4519 41.6609C39.6055 41.7401 39.7677 41.7446 39.9389 41.7446C40.2943 41.7446 40.5354 41.6697 40.7418 41.3659C40.8865 41.1546 40.9829 40.9388 41.0181 40.6834C41.0444 40.5601 41.0752 40.4369 41.0883 40.3092C41.097 40.1858 41.0927 40.0581 41.0838 39.935C41.0795 39.7941 40.9961 39.3229 40.9479 39.1952C40.869 38.9355 40.6935 38.6097 40.439 38.4864C40.3074 38.4203 40.1539 38.4115 40.0003 38.4115C39.9301 38.4071 39.8555 38.3939 39.7853 38.3939C39.6801 38.3939 39.5265 38.4335 39.4343 38.4775C39.2369 38.5744 38.9868 38.9839 38.9167 39.1909C38.8772 39.3097 38.8377 39.433 38.8158 39.5562C38.7938 39.6796 38.8026 39.8073 38.7983 39.935C38.7894 40.0581 38.7851 40.1858 38.7938 40.3092C38.8069 40.4369 38.8332 40.5601 38.8596 40.6791ZM39.6844 39.9701C39.6888 39.8073 39.7107 39.6487 39.7722 39.5123C39.8205 39.4021 39.8686 39.314 39.9389 39.2876C40.1451 39.367 40.1802 39.7896 40.1845 39.9701C40.1889 40.0891 40.2108 40.2432 40.1977 40.3884C40.1802 40.5425 40.1362 40.6923 40.0705 40.7891C40.0398 40.8419 39.9872 40.8728 39.9389 40.886C39.7808 40.8419 39.6976 40.525 39.6801 40.3884C39.6624 40.2432 39.6801 40.0891 39.6844 39.9701Z" fill="#6E58FF"/>
<path d="M41.7341 39.1952C41.7735 39.1996 41.8087 39.2261 41.8305 39.2569C41.8568 39.3008 41.8568 39.3537 41.8525 39.4066C41.8525 39.5607 41.8481 39.7148 41.8437 39.8689C41.8437 39.9789 41.8745 40.0846 41.8745 40.1947C41.8745 40.3003 41.8481 40.406 41.8481 40.5205C41.8481 40.6085 41.8831 40.701 41.8788 40.7979C41.8745 40.8903 41.8745 40.9828 41.8831 41.0754C41.8831 41.2117 41.87 41.3526 41.9008 41.4892C41.9271 41.6212 41.9797 41.705 42.1244 41.7137C42.1464 41.7137 42.1639 41.7137 42.1859 41.7137C42.2254 41.7137 42.2693 41.7137 42.3088 41.7137C42.3394 41.7182 42.3701 41.7182 42.4009 41.7182C42.4623 41.7182 42.5236 41.7137 42.5851 41.7137C42.6554 41.7137 42.7563 41.6829 42.8615 41.6786C42.8659 41.6786 42.8747 41.6786 42.879 41.6786C42.9799 41.6786 43.0809 41.7137 43.1423 41.7137C43.1993 41.7137 43.2564 41.7093 43.309 41.7093C43.4846 41.7093 43.5503 41.6433 43.5635 41.476C43.5722 41.3747 43.5547 41.2691 43.5503 41.1633C43.5458 41.1105 43.559 41.0488 43.5372 40.9916C43.5284 40.9696 43.5064 40.8992 43.4801 40.886C43.4714 40.8815 43.4626 40.8815 43.4494 40.8815C43.309 40.8815 43.1686 40.886 43.0282 40.886C43.0239 40.886 43.0194 40.886 43.0108 40.886C42.9711 40.886 42.923 40.8903 42.8747 40.8903C42.708 40.8903 42.6992 40.8155 42.686 40.6702C42.686 40.5821 42.6948 40.4986 42.6948 40.4148C42.6948 40.3003 42.6905 40.1904 42.6905 40.0759C42.686 39.9657 42.686 39.8512 42.686 39.7413C42.686 39.728 42.6905 39.7148 42.6905 39.7016C42.6905 39.5783 42.6685 39.4549 42.664 39.3318C42.664 39.2084 42.6728 39.0852 42.6728 38.9619C42.6728 38.8385 42.664 38.4468 42.5193 38.3983C42.4973 38.3939 42.471 38.3939 42.4492 38.3939C42.3569 38.3939 42.2648 38.4026 42.1727 38.4026C42.1596 38.4026 42.1421 38.4026 42.1289 38.4026C42.1069 38.4026 42.0806 38.4026 42.0587 38.4026C41.9622 38.4026 41.8656 38.4071 41.7692 38.4071C41.7427 38.4071 41.7164 38.4071 41.6946 38.4071C41.642 38.4071 41.598 38.4158 41.5717 38.4688C41.5542 38.4996 41.5454 38.5435 41.5454 38.5831C41.5411 38.6844 41.5322 38.8606 41.5322 38.9619C41.5322 39.0279 41.5497 39.116 41.598 39.1599C41.6463 39.1996 41.6726 39.1863 41.7341 39.1952Z" fill="#6E58FF"/>
<path d="M44.0959 40.6791C44.1135 40.7804 44.1092 40.886 44.1399 40.9784C44.2583 41.3262 44.346 41.4935 44.6883 41.6609C44.8418 41.7401 45.004 41.7446 45.1752 41.7446C45.5306 41.7446 45.7718 41.6697 45.9781 41.3659C46.1228 41.1546 46.2192 40.9388 46.2544 40.6834C46.2807 40.5601 46.3115 40.4369 46.3247 40.3092C46.3333 40.1858 46.329 40.0581 46.3202 39.935C46.3158 39.7941 46.2324 39.3229 46.1843 39.1952C46.1053 38.9355 45.9298 38.6097 45.6753 38.4864C45.5438 38.4203 45.3902 38.4115 45.2367 38.4115C45.1664 38.4071 45.0918 38.3939 45.0217 38.3939C44.9164 38.3939 44.7629 38.4335 44.6706 38.4775C44.4733 38.5744 44.2231 38.9839 44.153 39.1909C44.1135 39.3097 44.0741 39.433 44.0521 39.5562C44.0301 39.6796 44.0389 39.8073 44.0346 39.935C44.0258 40.0581 44.0214 40.1858 44.0301 40.3092C44.0433 40.4369 44.0696 40.5601 44.0959 40.6791ZM44.9207 39.9701C44.9251 39.8073 44.9471 39.6487 45.0085 39.5123C45.0568 39.4021 45.1049 39.314 45.1752 39.2876C45.3814 39.367 45.4165 39.7896 45.4209 39.9701C45.4252 40.0891 45.4472 40.2432 45.434 40.3884C45.4165 40.5425 45.3726 40.6923 45.3068 40.7891C45.2761 40.8419 45.2235 40.8728 45.1752 40.886C45.0172 40.8419 44.9339 40.525 44.9164 40.3884C44.8988 40.2432 44.9164 40.0891 44.9207 39.9701Z" fill="#6E58FF"/>
<path d="M46.8431 40.6516C46.8694 40.8628 46.9703 41.1842 47.0844 41.3559C47.2554 41.6026 47.4441 41.6862 47.7292 41.7214C47.8258 41.739 47.9134 41.761 48.01 41.761C48.0188 41.761 48.0275 41.761 48.0363 41.761C48.0363 41.8403 48.067 41.8887 48.0715 41.924C48.0978 42.056 48.1416 42.1264 48.2688 42.1353C48.3829 42.1353 48.7208 42.0913 48.7689 41.9768C48.7821 41.9416 48.7821 41.8976 48.7821 41.858C48.7778 41.7346 48.7514 41.6245 48.7514 41.5234C48.7514 41.4 48.7558 41.2899 48.7558 41.1886C48.7514 41.0698 48.7734 40.9598 48.7734 40.854C48.7734 40.7483 48.7603 40.6427 48.7603 40.5194C48.7558 40.4181 48.7558 40.3124 48.7558 40.1847C48.7558 40.0835 48.7426 39.9735 48.7426 39.8501C48.7426 39.7445 48.7031 39.7005 48.5979 39.6873C48.5584 39.6828 48.5233 39.6828 48.4838 39.6828C48.4005 39.6828 48.3128 39.6873 48.2293 39.6917C48.1329 39.696 48.0363 39.7049 47.9399 39.7092C47.8828 39.7137 47.7864 39.7005 47.7512 39.7621C47.7336 39.793 47.7292 39.8282 47.7249 39.8633C47.7204 39.9823 47.7249 40.1012 47.7249 40.2157C47.7249 40.264 47.7204 40.3302 47.7555 40.3653C47.7644 40.3741 47.773 40.3741 47.7864 40.3741C47.817 40.3741 47.8521 40.3609 47.8785 40.3653C47.9179 40.3698 47.9617 40.3873 47.9969 40.4049C48.0846 40.4533 48.0626 40.6603 48.0626 40.744C48.0626 40.8012 48.0715 40.8717 48.0495 40.9289C48.0495 40.9334 48.0452 40.9421 48.0407 40.9466C48.0275 40.9509 47.9925 40.9553 47.9794 40.9553C47.8828 40.9553 47.7819 40.9202 47.7204 40.8496C47.6503 40.7704 47.5757 40.6823 47.5405 40.5767C47.5142 40.4711 47.5405 40.3521 47.5319 40.2464C47.5231 40.1276 47.5187 40.0174 47.5231 39.9207C47.545 39.5815 47.6503 39.1677 48.0583 39.1677C48.1284 39.1677 48.203 39.1853 48.2865 39.2162C48.3128 39.225 48.3346 39.2337 48.3523 39.2337C48.418 39.2337 48.5276 39.0928 48.5453 39.0357C48.5759 38.8902 48.5541 38.7407 48.5408 38.5954C48.5364 38.5601 48.5716 38.4985 48.5453 38.4721C48.5233 38.4545 48.4838 38.4413 48.4575 38.4325C48.2865 38.384 48.0846 38.3576 47.9048 38.3576C47.3389 38.3576 47.0799 38.6701 46.9089 39.1634C46.8694 39.2822 46.8254 39.401 46.7991 39.5244C46.7773 39.6476 46.7905 39.7753 46.786 39.903C46.7773 40.0263 46.7816 40.154 46.7905 40.2772C46.8036 40.4049 46.8123 40.5282 46.8431 40.6516Z" fill="#6E58FF"/>
<path d="M51.1324 39.2883C51.1895 39.165 51.2245 39.0329 51.2816 38.9141C51.3386 38.7907 51.4175 38.6807 51.4747 38.5574C51.4966 38.5089 51.5141 38.4474 51.4747 38.4165C51.4527 38.3989 51.4132 38.3857 51.3737 38.3812C51.3299 38.3769 51.2728 38.3769 51.2114 38.3769C50.8473 38.3769 50.7639 38.4076 50.5754 38.7379C50.5051 38.8788 50.4524 39.0197 50.3867 39.1606C50.3209 39.0197 50.2594 38.8832 50.1892 38.7424C50.141 38.6587 50.1102 38.5706 50.0533 38.4914C49.9743 38.3857 49.8866 38.3725 49.7593 38.368C49.7198 38.368 49.6804 38.368 49.6409 38.368C49.6058 38.368 49.5663 38.368 49.5268 38.368C49.4785 38.368 49.3338 38.368 49.2898 38.3944C49.2504 38.4122 49.2284 38.4518 49.2152 38.4914C49.1978 38.5617 49.2021 38.6366 49.2021 38.7115C49.2021 38.7907 49.2021 38.8745 49.1978 38.958C49.1978 39.0241 49.1846 39.1078 49.2372 39.1517C49.2724 39.1782 49.3075 39.1827 49.347 39.1827C49.3733 39.1827 49.3951 39.1827 49.4214 39.1827C49.518 39.1827 49.5663 39.2311 49.6146 39.3104C49.689 39.4203 49.7505 39.5393 49.8076 39.6582C49.8294 39.7153 49.8471 39.7727 49.8821 39.8211C49.9172 39.874 49.9523 39.9268 49.9786 39.9839C49.983 39.9884 49.9918 40.006 49.9961 40.0149C50.005 40.0368 49.9875 40.0632 49.9875 40.0852C49.983 40.1248 49.9918 40.1644 49.9918 40.2041C49.9961 40.2835 50.0006 40.3627 50.0006 40.4419C50.005 40.6092 50.005 40.7722 49.9961 40.935C49.983 41.1287 49.9567 41.3224 49.9875 41.5118C50.0138 41.6438 50.0707 41.7055 50.2111 41.7055C50.2419 41.7055 50.2726 41.7055 50.2989 41.7011C50.4173 41.6968 50.5314 41.6704 50.6455 41.6483C50.6498 41.6483 50.6543 41.6483 50.6586 41.6483C50.6718 41.6483 50.6938 41.6527 50.7112 41.6527C50.7201 41.6527 50.7289 41.6483 50.7376 41.6438C50.8385 41.5778 50.777 41.3488 50.777 41.252C50.7727 41.0759 50.8167 40.8999 50.8167 40.7237C50.8167 40.6224 50.799 40.5168 50.799 40.411C50.799 40.3053 50.7902 40.2041 50.7902 40.0984C50.7902 40.072 50.7859 40.0456 50.7859 40.0192C50.8473 39.9004 50.9043 39.777 50.9657 39.6537C51.0228 39.5348 51.0755 39.4116 51.1324 39.2883Z" fill="#6E58FF"/>
<mask id="mask0_83_1197" style="mask-type:luminance" maskUnits="userSpaceOnUse" x="12" y="19" width="20" height="19">
<path d="M12.5391 19H31.2694V37.6H12.5391V19Z" fill="white"/>
</mask>
<g mask="url(#mask0_83_1197)">
<path d="M18.9012 37.5991H12.5391L24.9162 19.0083H31.2783L18.9012 37.5991Z" fill="#6E58FF"/>
</g>
<mask id="mask1_83_1197" style="mask-type:luminance" maskUnits="userSpaceOnUse" x="25" y="19" width="7" height="19">
<path d="M25.6318 19H31.1829V37.6174H25.6318V19Z" fill="white"/>
</mask>
<g mask="url(#mask1_83_1197)">
<path d="M25.6318 19H31.1829V37.6174H25.6318V19Z" fill="#6E58FF"/>
</g>
<path d="M51.9746 30.9628C51.8649 29.4988 51.1299 28.3359 50.1399 27.318C49.2898 26.4442 48.4227 25.5862 47.5389 24.7469C47.108 24.3374 46.7362 23.851 46.1847 23.5802C46.1646 23.5732 46.1446 23.566 46.1245 23.5583C46.0773 23.5388 46.03 23.5199 45.9829 23.5003C45.5342 23.3444 45.1575 23.447 44.8281 23.8137C44.513 24.1644 44.4504 24.5762 44.6664 25.0123C44.9279 25.5401 45.3719 25.9092 45.7999 26.2914C46.7396 27.2321 47.6947 28.1575 48.6145 29.1174C49.6511 30.1998 49.912 31.4764 49.3996 32.8883C48.9486 34.1301 48.0406 34.8511 46.7598 35.1147C46.739 35.1189 46.719 35.1236 46.6983 35.1278C46.6262 35.1326 46.5543 35.1373 46.4823 35.142C46.3631 35.1403 46.2432 35.1361 46.124 35.1373C45.0886 35.1461 44.2136 34.7901 43.523 33.9997C43.3005 33.745 43.1204 33.4619 42.9303 33.1846C42.7001 32.8486 42.422 32.569 41.987 32.5334C41.0903 32.46 40.4733 33.3634 40.8937 34.2165C41.5945 35.6385 42.676 36.6812 44.1865 37.2204C44.9274 37.4846 45.6918 37.612 46.4787 37.436C46.7503 37.452 47.0106 37.3845 47.2727 37.33C47.2992 37.3198 47.3252 37.3098 47.3518 37.2997C47.4486 37.2772 47.5454 37.2546 47.6423 37.2316L47.6706 37.2404L47.6894 37.2173C47.8241 37.2411 47.8973 37.1077 48.0088 37.087C49.072 36.8886 49.8696 36.2232 50.5514 35.4679C51.6918 34.2036 52.1015 32.6519 51.9746 30.9628Z" fill="#6E58FF"/>
<path d="M42.4172 29.7066C43.2205 30.5282 44.0088 31.3678 44.8954 32.103C45.1019 32.3021 45.2961 32.5165 45.5181 32.6967C46.0584 33.1356 46.8854 33.1463 47.2684 32.7351C47.6628 32.3121 47.596 31.5846 47.0677 31.0467C46.4296 30.3974 45.8169 29.7208 45.1256 29.1259C44.6586 28.549 44.0642 28.0992 43.5641 27.5536C43.272 27.2342 42.9438 26.9185 42.7721 26.5399C42.1522 25.1719 42.3044 23.8597 43.23 22.6628C43.3794 22.4697 43.5211 22.2707 43.7318 22.1177C44.3015 21.7031 44.9391 21.4968 45.622 21.3955C46.6439 21.3452 47.5637 21.5887 48.3311 22.3098C48.7271 22.6823 48.9781 23.1659 49.3322 23.5717C49.6669 23.9556 50.0931 24.134 50.5312 23.9805C51.024 23.808 51.3205 23.3892 51.3075 22.8891C51.2987 22.5545 51.1846 22.2516 51.017 21.9715C50.6828 21.4139 50.2696 20.9329 49.7773 20.4963C48.8652 19.6857 47.8233 19.2277 46.6238 19.1004C46.5748 19.0945 46.5258 19.0885 46.4774 19.082C46.2426 19.0051 46.0022 19.0417 45.7638 19.0489C45.6923 19.0454 45.6209 19.0358 45.5501 19.04C43.125 19.1679 40.9113 20.982 40.3256 23.343C39.8883 25.1062 40.0871 26.7686 41.1433 28.2924C41.5094 28.8209 41.9745 29.2533 42.4172 29.7066Z" fill="#6E58FF"/>
<mask id="mask2_83_1197" style="mask-type:luminance" maskUnits="userSpaceOnUse" x="28" y="24" width="13" height="14">
<path d="M28.3955 24.5878H40.7956V37.6247H28.3955V24.5878Z" fill="white"/>
</mask>
<g mask="url(#mask2_83_1197)">
<mask id="mask3_83_1197" style="mask-type:luminance" maskUnits="userSpaceOnUse" x="28" y="24" width="13" height="14">
<path d="M34.5936 24.5891C31.1694 24.5891 28.3936 27.5075 28.3936 31.1075C28.3936 34.7076 31.1694 37.626 34.5936 37.626C38.0178 37.626 40.7937 34.7076 40.7937 31.1075C40.7937 27.5075 38.0178 24.5891 34.5936 24.5891Z" fill="white"/>
</mask>
<g mask="url(#mask3_83_1197)">
<path d="M28.3936 24.5891H40.7937V37.626H28.3936V24.5891Z" fill="#6E58FF"/>
</g>
</g>
<mask id="mask4_83_1197" style="mask-type:luminance" maskUnits="userSpaceOnUse" x="32" y="28" width="6" height="6">
<path d="M32.0869 28.5709H37.12V33.6222H32.0869V28.5709Z" fill="white"/>
</mask>
<g mask="url(#mask4_83_1197)">
<mask id="mask5_83_1197" style="mask-type:luminance" maskUnits="userSpaceOnUse" x="32" y="28" width="6" height="6">
<path d="M34.5878 28.5695C33.1981 28.5695 32.0713 29.7002 32.0713 31.0951C32.0713 32.4899 33.1981 33.6208 34.5878 33.6208C35.9778 33.6208 37.1044 32.4899 37.1044 31.0951C37.1044 29.7002 35.9778 28.5695 34.5878 28.5695Z" fill="white"/>
</mask>
<g mask="url(#mask5_83_1197)">
<path d="M32.0713 28.5695H37.1044V33.6208H32.0713V28.5695Z" fill="white"/>
</g>
</g>
<mask id="mask6_83_1197" style="mask-type:luminance" maskUnits="userSpaceOnUse" x="10" y="37" width="37" height="5">
<path d="M10 37.5059H46.6146V41.403H10V37.5059Z" fill="white"/>
</mask>
<g mask="url(#mask6_83_1197)">
<path d="M16.3867 41.4091H10L40.2259 -3.99002H46.6114L16.3867 41.4091Z" fill="#6E58FF"/>
</g>
</svg>
