<svg width="44" height="44" viewBox="0 0 44 44" fill="none" xmlns="http://www.w3.org/2000/svg">
<path d="M27.39 9.51533C28.083 8.7165 28.6115 7.78864 28.945 6.78501C29.2785 5.78138 29.4105 4.72176 29.3333 3.66699C27.2055 3.83875 25.2303 4.83951 23.8333 6.45366C23.1643 7.22728 22.6574 8.12727 22.3424 9.10034C22.0275 10.0734 21.9111 11.0998 22 12.1187C23.0379 12.1273 24.0639 11.897 24.9986 11.4456C25.9332 10.9941 26.7515 10.3337 27.39 9.51533V9.51533ZM32.01 23.1553C32.0223 21.7505 32.3923 20.372 33.0852 19.1499C33.778 17.9277 34.7708 16.9023 35.97 16.1703C35.2132 15.0799 34.2128 14.1809 33.0481 13.5444C31.8834 12.9079 30.5864 12.5516 29.26 12.5037C26.4 12.2103 23.76 14.172 22.2383 14.172C20.7166 14.172 18.5716 12.5403 16.1883 12.577C14.6302 12.6283 13.112 13.0826 11.7818 13.8955C10.4516 14.7084 9.35474 15.8522 8.59829 17.2153C5.37163 22.8253 7.77329 31.167 11 35.6953C12.4666 37.9137 14.3 40.4253 16.72 40.3337C19.14 40.242 19.9283 38.8303 22.7333 38.8303C25.5383 38.8303 26.4 40.3337 28.7833 40.2787C31.1666 40.2237 32.8533 38.0053 34.3933 35.787C35.4842 34.1765 36.3364 32.4166 36.9233 30.562C35.4703 29.9424 34.2307 28.9107 33.3575 27.5944C32.4844 26.2781 32.0159 24.7349 32.01 23.1553V23.1553Z" fill="#1A1919"/>
</svg>
