<svg xmlns="http://www.w3.org/2000/svg" width="289" height="289" fill="none"><g clip-path="url(#a)"><path fill="#DFC147" fill-opacity=".41" fill-rule="evenodd" d="M182.59 164.099c-1.887.864-14.549-3.504-17.933-6.103-.769-.591-.782-3.279-.248-6.521 1.018-5.306 2.819-23.888 3.715-36.836 1.118-18.011-6.278-36.718-4.631-38.862 12.115-15.774 7.71-64.324-8.004-87.96-18.217-27.382-28.342-13.246-16.834 2.654 15.141 20.882 21.98 43.18 20.405 66.562-.539 7.864-.869 7.976-4.588 1.833-18.691-30.426-64.241-11.236-59.47 25.056 3.256 24.415 33.19 30.971 54.901 12.096 4.94-4.362 8.128 16.957 5.934 40.35-1.869 19.626-1.199 18.436-7.759 15.834-28.165-11.407-33.431-7.416-23.968 17.992 4.211 11.391 6.414 28.423 6.092 48.264-.091 7.599 4.089 5.819 10.4-4.309 6.804-11.087 19.01-24.114 31.084-33.466 17.051-13.445 13.704-17.842 10.904-16.584m-39.36-73.084c-18.566 9.846-42.32-7.303-37.103-26.67 3.311-12.432 27.577-8.526 37.104 5.974 7.559 11.65 7.549 16.756-.001 20.696" clip-rule="evenodd"/></g><defs><clipPath id="a"><path fill="#fff" d="M288.598 153.812 134.784 288.594 0 134.78 153.816-.002z"/></clipPath></defs></svg>