<svg xmlns="http://www.w3.org/2000/svg" width="32" height="32" fill="none"><g clip-path="url(#a)"><path fill="#F6F5FF" d="M0 16c0 8.837 7.163 16 16 16s16-7.163 16-16S24.837 0 16 0 0 7.163 0 16"/><mask id="b" width="12" height="12" x="10" y="10" maskUnits="userSpaceOnUse" style="mask-type:alpha"><path fill="#D9D9D9" d="M10 22h12V10H10z"/></mask><g mask="url(#b)"><path fill="#6653EE" d="M14.85 12.85a.474.474 0 0 1 .137.35.474.474 0 0 1-.137.35L12.9 15.5h7.6c.142 0 .26.048.356.144A.483.483 0 0 1 21 16c0 .142-.048.26-.144.356a.483.483 0 0 1-.356.144h-7.6l1.95 1.95a.474.474 0 0 1 .137.35.474.474 0 0 1-.137.35.474.474 0 0 1-.35.137.474.474 0 0 1-.35-.137l-2.8-2.8a.442.442 0 0 1-.107-.163.556.556 0 0 1-.03-.187c0-.067.01-.13.03-.188a.442.442 0 0 1 .107-.162l2.8-2.8a.474.474 0 0 1 .35-.138c.142 0 .258.046.35.138"/></g></g><defs><clipPath id="a"><path fill="#fff" d="M0 0h32v32H0z"/></clipPath></defs></svg>