<svg width="12" height="13" viewBox="0 0 12 13" fill="none" xmlns="http://www.w3.org/2000/svg">
<path fill-rule="evenodd" clip-rule="evenodd" d="M12 6.39003C12 7.8543 11.4645 9.26803 10.4945 10.3649C9.52446 11.4618 8.18679 12.166 6.7335 12.345L8.16 7.02153C8.26659 6.65765 8.27949 6.27273 8.1975 5.90253C8.11388 5.52607 7.93491 5.17741 7.67775 4.89003H11.811C11.937 5.38006 12.0005 5.88406 12 6.39003ZM1.23487e-06 6.39003C-6.46237e-05 7.97189 0.624555 9.48977 1.73796 10.6134C2.85136 11.7371 4.36346 12.3756 5.94525 12.39L7.01475 8.39928C6.84292 8.48596 6.66069 8.55023 6.4725 8.59053C6.03547 8.68445 5.58038 8.64607 5.16525 8.48028C4.87038 8.36244 4.60378 8.18352 4.383 7.95528L0.474751 4.04703C0.160939 4.78828 -0.000515171 5.58509 1.23487e-06 6.39003ZM3.753 6.26478L0.831001 3.34203C1.4 2.37797 2.22727 1.59224 3.21935 1.07362C4.21142 0.554993 5.32876 0.324144 6.44514 0.407151C7.56151 0.490157 8.63243 0.88371 9.53689 1.54335C10.4414 2.20299 11.1433 3.10242 11.5635 4.14003H6.0495C5.72706 4.13278 5.40682 4.19493 5.1105 4.32228C4.7254 4.48698 4.39412 4.75625 4.1542 5.09956C3.91427 5.44288 3.77529 5.84653 3.753 6.26478ZM6 7.89003C6.39783 7.89003 6.77936 7.732 7.06066 7.45069C7.34197 7.16939 7.5 6.78786 7.5 6.39003C7.5 5.99221 7.34197 5.61068 7.06066 5.32937C6.77936 5.04807 6.39783 4.89003 6 4.89003C5.60218 4.89003 5.22065 5.04807 4.93934 5.32937C4.65804 5.61068 4.5 5.99221 4.5 6.39003C4.5 6.78786 4.65804 7.16939 4.93934 7.45069C5.22065 7.732 5.60218 7.89003 6 7.89003Z" fill="#6E58FF"/>
</svg>
