<svg width="12" height="13" viewBox="0 0 12 13" fill="none" xmlns="http://www.w3.org/2000/svg">
<g clip-path="url(#clip0_11479_51176)">
<path fill-rule="evenodd" clip-rule="evenodd" d="M12 6.49941C12 7.96368 11.4645 9.37741 10.4945 10.4743C9.52446 11.5711 8.18679 12.2754 6.7335 12.4544L8.16 7.13091C8.26659 6.76702 8.27949 6.38211 8.1975 6.01191C8.11388 5.63544 7.93491 5.28679 7.67775 4.99941H11.811C11.937 5.48944 12.0005 5.99344 12 6.49941ZM1.23487e-06 6.49941C-6.46237e-05 8.08126 0.624555 9.59915 1.73796 10.7228C2.85136 11.8465 4.36346 12.485 5.94525 12.4994L7.01475 8.50866C6.84292 8.59534 6.66069 8.65961 6.4725 8.69991C6.03547 8.79383 5.58038 8.75545 5.16525 8.58966C4.87038 8.47182 4.60378 8.2929 4.383 8.06466L0.474751 4.15641C0.160939 4.89765 -0.000515171 5.69447 1.23487e-06 6.49941ZM3.753 6.37416L0.831001 3.45141C1.4 2.48734 2.22727 1.70161 3.21935 1.18299C4.21142 0.664368 5.32876 0.433519 6.44514 0.516526C7.56151 0.599532 8.63243 0.993085 9.53689 1.65272C10.4414 2.31236 11.1433 3.21179 11.5635 4.24941H6.0495C5.72706 4.24215 5.40682 4.30431 5.1105 4.43166C4.7254 4.59636 4.39412 4.86562 4.1542 5.20894C3.91427 5.55226 3.77529 5.95591 3.753 6.37416ZM6 7.99941C6.39783 7.99941 6.77936 7.84137 7.06066 7.56007C7.34197 7.27876 7.5 6.89723 7.5 6.49941C7.5 6.10158 7.34197 5.72005 7.06066 5.43875C6.77936 5.15744 6.39783 4.99941 6 4.99941C5.60218 4.99941 5.22065 5.15744 4.93934 5.43875C4.65804 5.72005 4.5 6.10158 4.5 6.49941C4.5 6.89723 4.65804 7.27876 4.93934 7.56007C5.22065 7.84137 5.60218 7.99941 6 7.99941Z" fill="white"/>
</g>
<defs>
<clipPath id="clip0_11479_51176">
<rect width="12" height="12" fill="white" transform="translate(0 0.5)"/>
</clipPath>
</defs>
</svg>
