<svg xmlns="http://www.w3.org/2000/svg" width="36" height="37" fill="none"><g clip-path="url(#a)"><path fill="#6E58FF" d="M25.958 28.542c5.546-4.395 6.48-12.454 2.084-18-4.395-5.546-12.454-6.48-18-2.084-5.546 4.395-6.48 12.454-2.084 18 4.395 5.546 12.454 6.48 18 2.084"/><path fill="#fff" fill-rule="evenodd" d="M29.805 9.217A1.13 1.13 0 0 1 30 10.804l-9.188 11.76a1.13 1.13 0 0 1-1.587.194l-6.72-5.25a1.13 1.13 0 0 1 1.393-1.781l5.829 4.553 8.49-10.868a1.13 1.13 0 0 1 1.588-.195" clip-rule="evenodd"/></g><defs><clipPath id="a"><path fill="#fff" d="M0 0h36v37H0z"/></clipPath></defs></svg>