<svg width="32" height="32" viewBox="0 0 32 32" fill="none" xmlns="http://www.w3.org/2000/svg">
<g clip-path="url(#clip0_58_988)">
<mask id="mask0_58_988" style="mask-type:luminance" maskUnits="userSpaceOnUse" x="0" y="0" width="32" height="32">
<path d="M32 0H0V32H32V0Z" fill="white"/>
</mask>
<g mask="url(#mask0_58_988)">
<path d="M1.73964 31.8715L31.3355 17.075C32.2215 16.6321 32.2215 15.3678 31.3355 14.9249L1.73964 0.128451C0.940356 -0.271153 0 0.309996 0 1.20346V30.7965C0 31.69 0.940356 32.2711 1.73964 31.8715Z" fill="#F6B94C"/>
<path d="M0.401426 0.306641C0.15897 0.521928 0 0.836066 0 1.2032V30.7962C0 31.1634 0.15897 31.4775 0.401426 31.6928L16.0945 15.9997L0.401426 0.306641Z" fill="#52C1FF"/>
<path d="M21.8912 10.2031L1.73959 0.128375C1.26869 -0.107031 0.74909 -0.00184211 0.401367 0.306831L16.0944 15.9999L21.8912 10.2031Z" fill="#67C7A5"/>
<path d="M0.401367 31.6931C0.74909 32.0017 1.26869 32.1069 1.73959 31.8715L21.8912 21.7967L16.0944 16L0.401367 31.6931Z" fill="#F56C61"/>
</g>
</g>
<defs>
<clipPath id="clip0_58_988">
<rect width="32" height="32" fill="white"/>
</clipPath>
</defs>
</svg>
