<svg width="15" height="14" viewBox="0 0 15 14" fill="none" xmlns="http://www.w3.org/2000/svg">
<g id="Frame" clip-path="url(#clip0_36_1433)">
<path id="Vector" d="M7.5 14C11.366 14 14.5 10.866 14.5 7C14.5 3.13401 11.366 0 7.5 0C3.63401 0 0.5 3.13401 0.5 7C0.5 10.866 3.63401 14 7.5 14Z" fill="#F7BE39"/>
<path id="Vector_2" fill-rule="evenodd" clip-rule="evenodd" d="M5.44167 3.87759C6.80998 3.75524 8.18649 3.75524 9.55479 3.87759L10.1449 3.93035C10.733 3.98293 11.2082 4.43225 11.2936 5.01652C11.4859 6.33189 11.4859 7.66819 11.2936 8.98356C11.2082 9.56783 10.733 10.0172 10.1449 10.0697L9.55479 10.1225C8.18649 10.2448 6.80998 10.2448 5.44167 10.1225L4.85159 10.0697C4.26345 10.0172 3.78824 9.56783 3.70282 8.98356C3.51052 7.66819 3.51052 6.33189 3.70282 5.01652C3.78824 4.43225 4.26345 3.98293 4.85159 3.93035L5.44167 3.87759ZM5.10873 4.99323C5.01834 4.94456 4.90902 4.947 4.82089 4.99964C4.73276 5.05228 4.67879 5.14738 4.67879 5.25004V8.94448C4.67879 9.10556 4.80937 9.23615 4.97045 9.23615C5.13153 9.23615 5.26212 9.10556 5.26212 8.94448V5.73835L7.35994 6.86797C7.44628 6.91444 7.55019 6.91444 7.63652 6.86797L9.73434 5.73835V8.94448C9.73434 9.10556 9.86493 9.23615 10.026 9.23615C10.1871 9.23615 10.3177 9.10556 10.3177 8.94448V5.25004C10.3177 5.14738 10.2637 5.05228 10.1756 4.99964C10.0875 4.947 9.97814 4.94456 9.88772 4.99323L7.49823 6.27989L5.10873 4.99323Z" fill="white"/>
</g>
<defs>
<clipPath id="clip0_36_1433">
<rect width="15" height="14" fill="white"/>
</clipPath>
</defs>
</svg>
