<svg width="15" height="16" viewBox="0 0 15 16" fill="none" xmlns="http://www.w3.org/2000/svg">
<g id="Frame" clip-path="url(#clip0_36_1439)">
<path id="Vector" d="M7.5 15.25C11.5041 15.25 14.75 12.0041 14.75 8C14.75 3.99594 11.5041 0.75 7.5 0.75C3.49594 0.75 0.25 3.99594 0.25 8C0.25 12.0041 3.49594 15.25 7.5 15.25Z" fill="#F7BE39"/>
<g id="Clip path group">
<mask id="mask0_36_1439" style="mask-type:luminance" maskUnits="userSpaceOnUse" x="2" y="3" width="11" height="10">
<g id="clip0_0_1">
<path id="Vector_2" d="M12.3346 3.16663H2.66797V12.8333H12.3346V3.16663Z" fill="white"/>
</g>
</mask>
<g mask="url(#mask0_36_1439)">
<g id="Group">
<path id="Vector_3" fill-rule="evenodd" clip-rule="evenodd" d="M10.2189 7.59726L10.2165 7.69522L10.2189 7.79865L10.2166 7.89729L10.2189 8.00004L10.1429 11.3242C10.1335 11.7379 9.81881 12.0805 9.40741 12.1251C8.13959 12.2624 6.86061 12.2624 5.59275 12.1251C5.18136 12.0805 4.86671 11.7379 4.85725 11.3242L4.78126 8.00004L4.78363 7.89661L4.78127 7.79865L4.78375 7.69562L4.78125 7.59726L4.8492 4.92221C4.84965 4.90453 4.8505 4.88695 4.85176 4.86948L4.85623 4.68333C4.86648 4.25771 5.19155 3.90608 5.61506 3.8625C5.6503 3.85888 5.68555 3.85536 5.72081 3.85193C5.76864 3.84082 5.81768 3.83272 5.86773 3.82784C6.95341 3.72202 8.04679 3.72202 9.13247 3.82784C9.1825 3.83272 9.23156 3.84081 9.27937 3.85193C9.31465 3.85535 9.34989 3.85888 9.38518 3.8625C9.80866 3.90608 10.1337 4.25771 10.144 4.68333L10.1485 4.8699C10.1497 4.88724 10.1505 4.90468 10.151 4.92221L10.2189 7.59726ZM9.11121 10.316C9.27804 10.316 9.41329 10.1807 9.41329 10.0139C9.41329 9.84706 9.27804 9.7118 9.11121 9.7118H5.88899C5.72215 9.7118 5.5869 9.84706 5.5869 10.0139C5.5869 10.1807 5.72215 10.316 5.88899 10.316H9.11121ZM7.5001 11.907C7.83376 11.907 8.10426 11.6365 8.10426 11.3028C8.10426 10.9691 7.83376 10.6986 7.5001 10.6986C7.16644 10.6986 6.89593 10.9691 6.89593 11.3028C6.89593 11.6365 7.16644 11.907 7.5001 11.907Z" fill="white"/>
</g>
</g>
</g>
</g>
<defs>
<clipPath id="clip0_36_1439">
<rect width="15" height="16" fill="white"/>
</clipPath>
</defs>
</svg>
