<svg width="24" height="25" viewBox="0 0 24 25" fill="none" xmlns="http://www.w3.org/2000/svg">
<g id="Frame" clip-path="url(#clip0_37_810)">
<path id="Vector" d="M24 12.5C24 5.87258 18.6274 0.5 12 0.5C5.37258 0.5 0 5.87258 0 12.5C0 19.1274 5.37258 24.5 12 24.5C18.6274 24.5 24 19.1274 24 12.5Z" fill="#F2F2F2"/>
<path id="Vector_2" fill-rule="evenodd" clip-rule="evenodd" d="M16.2803 9.71967C16.5732 10.0126 16.5732 10.4874 16.2803 10.7803L12.2803 14.7803C11.9874 15.0732 11.5126 15.0732 11.2197 14.7803L7.21967 10.7803C6.92678 10.4874 6.92678 10.0126 7.21967 9.71967C7.51256 9.42678 7.98744 9.42678 8.28033 9.71967L11.75 13.1893L15.2197 9.71967C15.5126 9.42678 15.9874 9.42678 16.2803 9.71967Z" fill="#3D3D3D"/>
</g>
<defs>
<clipPath id="clip0_37_810">
<rect width="24" height="25" fill="white"/>
</clipPath>
</defs>
</svg>
