<svg width="36" height="36" viewBox="0 0 36 36" fill="none" xmlns="http://www.w3.org/2000/svg">
<path opacity="0.4" d="M36 10.458V25.542C36 32.094 32.094 36 25.542 36H10.458C10.098 36 9.738 35.982 9.396 35.964C7.182 35.82 5.31 35.19 3.834 34.11C3.078 33.588 2.412 32.922 1.89 32.166C0.648 30.456 0 28.224 0 25.542V10.458C0 4.266 3.492 0.432 9.396 0.0539999C9.738 0.0179999 10.098 0 10.458 0H25.542C28.224 0 30.456 0.648 32.166 1.89C32.922 2.412 33.588 3.078 34.11 3.834C35.352 5.544 36 7.776 36 10.458Z" fill="#292D32"/>
<path d="M11.088 8.37305H24.894C26.046 8.37305 26.982 9.30905 26.982 10.461V12.765C26.982 13.611 26.46 14.655 25.938 15.177L21.438 19.155C20.808 19.677 20.394 20.721 20.394 21.567V26.067C20.394 26.697 19.98 27.525 19.458 27.849L18 28.767C16.632 29.613 14.76 28.659 14.76 26.985V21.441C14.76 20.703 14.346 19.767 13.914 19.245L9.936 15.051C9.414 14.547 9 13.593 9 12.963V10.569C9 9.30905 9.936 8.37305 11.088 8.37305Z" fill="#292D32"/>
</svg>
