<svg xmlns="http://www.w3.org/2000/svg" width="37" height="36" fill="none"><circle cx="18.5" cy="18" r="18" fill="#fff"/><path fill="#6E58FF" d="M16.648 16.616a2 2 0 1 1 4 0 2 2 0 0 1-4 0"/><path fill="#6E58FF" fill-rule="evenodd" d="M13.588 15.925a4.946 4.946 0 0 1 4.93-4.54h.266a4.946 4.946 0 0 1 4.93 4.54 5.349 5.349 0 0 1-1.19 3.825l-2.95 3.608a1.192 1.192 0 0 1-1.846 0l-2.95-3.608a5.35 5.35 0 0 1-1.19-3.825m5.063-2.232a2.923 2.923 0 1 0 0 5.846 2.923 2.923 0 0 0 0-5.847" clip-rule="evenodd"/></svg>