<svg xmlns="http://www.w3.org/2000/svg" width="36" height="36" fill="none"><circle cx="18" cy="18" r="18" fill="#fff"/><path fill="#6E58FF" d="M19.731 22.247a11.364 11.364 0 0 1-5.886-5.717v-.001l-.32-.702a2.154 2.154 0 0 1 .762-2.68l.82-.55a.615.615 0 0 1 .822.125l1.495 1.853a.615.615 0 0 1-.113.881l-.773.573a7.472 7.472 0 0 0 3.391 3.392l.573-.774a.615.615 0 0 1 .881-.112l1.854 1.495c.248.2.302.557.124.822l-.546.814a2.154 2.154 0 0 1-2.665.768l-.419-.187"/><path fill="#6E58FF" d="M19.23 16a.461.461 0 0 0 .462.462h2.356a.462.462 0 1 0 0-.923h-1.242l1.944-1.944a.461.461 0 1 0-.652-.653l-1.944 1.944v-1.242a.461.461 0 1 0-.924 0V16"/></svg>