<svg xmlns="http://www.w3.org/2000/svg" width="24" height="25" fill="none"><g fill="#fff"><path d="M4.75 2.375a2.125 2.125 0 1 0 0 4.25 2.125 2.125 0 0 0 0-4.25M2.75 8.375a.125.125 0 0 0-.125.125v13c0 .069.056.125.125.125h4a.125.125 0 0 0 .125-.125v-13a.125.125 0 0 0-.125-.125zM9.25 8.375a.125.125 0 0 0-.125.125v13c0 .069.056.125.125.125h4a.125.125 0 0 0 .125-.125v-7a1.875 1.875 0 1 1 3.75 0v7c0 .069.056.125.125.125h4a.125.125 0 0 0 .125-.125v-8.62c0-2.427-2.11-4.325-4.525-4.106a7.168 7.168 0 0 0-2.169.548l-1.306.56V8.5a.125.125 0 0 0-.125-.125z"/></g></svg>