<svg xmlns="http://www.w3.org/2000/svg" width="37" height="36" fill="none"><circle cx="18.5" cy="18" r="18" fill="#fff"/><path fill="#6E58FF" fill-rule="evenodd" d="M15.39 12.905a36.542 36.542 0 0 1 6.509 0l.933.084c.931.083 1.683.794 1.818 1.718a21.698 21.698 0 0 1 0 6.278 2.019 2.019 0 0 1-1.818 1.718l-.933.084a36.542 36.542 0 0 1-6.509 0l-.934-.084a2.019 2.019 0 0 1-1.818-1.718 21.698 21.698 0 0 1 0-6.278 2.019 2.019 0 0 1 1.818-1.719zm-.527 1.765a.462.462 0 0 0-.68.407v5.846a.461.461 0 1 0 .923 0V15.85l3.32 1.787a.462.462 0 0 0 .437 0l3.32-1.787v5.073a.461.461 0 1 0 .923 0v-5.846a.462.462 0 0 0-.68-.407l-3.782 2.036-3.78-2.036" clip-rule="evenodd"/></svg>