<svg xmlns="http://www.w3.org/2000/svg" width="32" height="32" fill="none"><g clip-path="url(#a)"><path fill="#6653EE" d="M32 16c0-8.837-7.163-16-16-16S0 7.163 0 16s7.163 16 16 16 16-7.163 16-16"/><mask id="b" width="12" height="12" x="10" y="10" maskUnits="userSpaceOnUse" style="mask-type:alpha"><path fill="#D9D9D9" d="M22 10H10v12h12z"/></mask><g mask="url(#b)"><path fill="#fff" d="M17.15 19.15a.474.474 0 0 1-.137-.35c0-.142.045-.258.137-.35l1.95-1.95h-7.6a.483.483 0 0 1-.356-.144A.483.483 0 0 1 11 16c0-.142.048-.26.144-.357a.483.483 0 0 1 .356-.143h7.6l-1.95-1.95a.474.474 0 0 1-.137-.35c0-.142.045-.258.137-.35a.474.474 0 0 1 .35-.138c.142 0 .258.046.35.138l2.8 2.8c.05.05.085.104.107.162.02.059.03.121.03.188s-.01.13-.03.187a.442.442 0 0 1-.107.163l-2.8 2.8a.474.474 0 0 1-.35.137.474.474 0 0 1-.35-.137"/></g></g><defs><clipPath id="a"><path fill="#fff" d="M0 0h32v32H0z"/></clipPath></defs></svg>