<svg width="1440" height="386" viewBox="0 0 1440 386" fill="none" xmlns="http://www.w3.org/2000/svg">
<g clip-path="url(#clip0_126_1136)">
<rect width="1440" height="386" fill="#E5E5FD"/>
<path opacity="0.5" d="M321.2 343.8H111.6L78 443H-65.2L138 -118.6H296.4L499.6 443H354.8L321.2 343.8ZM286 238.2L216.4 32.6L147.6 238.2H286ZM901.444 155C933.977 161.933 960.11 178.2 979.844 203.8C999.577 228.867 1009.44 257.667 1009.44 290.2C1009.44 337.133 992.91 374.467 959.844 402.2C927.31 429.4 881.71 443 823.044 443H561.444V-118.6H814.244C871.31 -118.6 915.844 -105.533 947.844 -79.4C980.377 -53.2667 996.644 -17.8 996.644 27C996.644 60.0666 987.844 87.5333 970.244 109.4C953.177 131.267 930.244 146.467 901.444 155ZM698.244 108.6H787.844C810.244 108.6 827.31 103.8 839.044 94.2C851.31 84.0667 857.444 69.4 857.444 50.2C857.444 31 851.31 16.3333 839.044 6.2C827.31 -3.93333 810.244 -9 787.844 -9H698.244V108.6ZM799.044 332.6C821.977 332.6 839.577 327.533 851.844 317.4C864.644 306.733 871.044 291.533 871.044 271.8C871.044 252.067 864.377 236.6 851.044 225.4C838.244 214.2 820.377 208.6 797.444 208.6H698.244V332.6H799.044ZM1291.99 448.6C1250.92 448.6 1214.12 441.933 1181.59 428.6C1149.05 415.267 1122.92 395.533 1103.19 369.4C1083.99 343.267 1073.85 311.8 1072.79 275H1218.39C1220.52 295.8 1227.72 311.8 1239.99 323C1252.25 333.667 1268.25 339 1287.99 339C1308.25 339 1324.25 334.467 1335.99 325.4C1347.72 315.8 1353.59 302.733 1353.59 286.2C1353.59 272.333 1348.79 260.867 1339.19 251.8C1330.12 242.733 1318.65 235.267 1304.79 229.4C1291.45 223.533 1272.25 216.867 1247.19 209.4C1210.92 198.2 1181.32 187 1158.39 175.8C1135.45 164.6 1115.72 148.067 1099.19 126.2C1082.65 104.333 1074.39 75.8 1074.39 40.6C1074.39 -11.6667 1093.32 -52.4667 1131.19 -81.8C1169.05 -111.667 1218.39 -126.6 1279.19 -126.6C1341.05 -126.6 1390.92 -111.667 1428.79 -81.8C1466.65 -52.4667 1486.92 -11.4 1489.59 41.4H1341.59C1340.52 23.2667 1333.85 9.13332 1321.59 -1.00001C1309.32 -11.6667 1293.59 -17 1274.39 -17C1257.85 -17 1244.52 -12.4667 1234.39 -3.40002C1224.25 5.1333 1219.19 17.6666 1219.19 34.2C1219.19 52.3333 1227.72 66.4666 1244.79 76.6C1261.85 86.7333 1288.52 97.6667 1324.79 109.4C1361.05 121.667 1390.39 133.4 1412.79 144.6C1435.72 155.8 1455.45 172.067 1471.99 193.4C1488.52 214.733 1496.79 242.2 1496.79 275.8C1496.79 307.8 1488.52 336.867 1471.99 363C1455.99 389.133 1432.52 409.933 1401.59 425.4C1370.65 440.867 1334.12 448.6 1291.99 448.6Z" fill="#F2F2F2"/>
</g>
<defs>
<clipPath id="clip0_126_1136">
<rect width="1440" height="386" fill="white"/>
</clipPath>
</defs>
</svg>
