<svg width="29" height="28" viewBox="0 0 29 28" fill="none" xmlns="http://www.w3.org/2000/svg">
<path d="M23.754 10.0379C24.8336 12.8067 24.8392 15.8791 23.7697 18.6519C22.7001 21.4247 20.6327 23.6975 17.9733 25.0241C15.314 26.3507 12.2547 26.6353 9.39628 25.822C6.53784 25.0087 4.08667 23.1562 2.52402 20.6283C0.961382 18.1004 0.40015 15.0797 0.95052 12.1592C1.50089 9.23868 3.1231 6.62941 5.49866 4.84366C7.87422 3.0579 10.8315 2.22467 13.7899 2.50754C16.7483 2.79042 19.4941 4.16898 21.4882 6.37255" stroke="#6E58FF" stroke-width="1.48896"/>
<path d="M8.1875 10.957C9.29872 12.3115 10.3797 13.6291 11.2857 14.7334C12.4065 16.0996 14.4631 16.1943 15.7053 14.9376L28 2.49989" stroke="#6E58FF" stroke-width="1.48896" stroke-linecap="round"/>
</svg>
