<svg xmlns="http://www.w3.org/2000/svg" width="164" height="164" fill="none"><g clip-path="url(#a)"><path fill="#3F3D56" d="M157.502.001h-49.229c-2.376 0-4.681 1-6.536 2.838-1.855 1.838-3.15 4.403-3.673 7.273L73.19 146.765a12.922 12.922 0 0 0-.014 4.53 11.76 11.76 0 0 0 1.531 4.113c.747 1.217 1.699 2.216 2.79 2.929 1.091.712 2.295 1.12 3.528 1.195l50.607 3.089c2.71.165 5.376-.897 7.5-2.987 2.125-2.09 3.563-5.066 4.045-8.373l14.111-96.615 1.05.371 2.701-18.312-1.081-.334 3.939-26.97a9.832 9.832 0 0 0-.114-3.476 8.803 8.803 0 0 0-1.298-3.086c-.611-.898-1.374-1.618-2.235-2.108a5.417 5.417 0 0 0-2.747-.73h-.001"/><path fill="#fff" d="M114.753 2.947h-5.746c-1.65 0-3.251.699-4.536 1.98-1.285 1.283-2.178 3.07-2.53 5.068L78.065 145.533a6.847 6.847 0 0 0 0 2.369c.138.78.41 1.514.798 2.152a4.9 4.9 0 0 0 1.45 1.545c.567.38 1.194.603 1.838.655l50.443 4.095c1.423.116 2.83-.422 3.954-1.509 1.124-1.088 1.884-2.651 2.137-4.389l20.374-140.092a7.769 7.769 0 0 0-.089-2.729 6.942 6.942 0 0 0-1.014-2.425 5.387 5.387 0 0 0-1.748-1.666 4.278 4.278 0 0 0-2.152-.592h-5.451c-.528 0-1.041.215-1.459.613-.419.397-.72.955-.858 1.586-.121.557-.387 1.05-.757 1.4-.37.351-.823.541-1.289.54h-25.878c-.913 0-1.791-.426-2.461-1.193-.669-.768-1.08-1.82-1.15-2.946"/><path fill="#E6E6E6" d="M142.638 97.7a.363.363 0 0 0 .271-.112.545.545 0 0 0 .146-.304l11.155-76.253a.666.666 0 0 0-.006-.219.58.58 0 0 0-.079-.195.442.442 0 0 0-.137-.135.34.34 0 0 0-.17-.05l-50.752-.742h-.005a.364.364 0 0 0-.253.112.538.538 0 0 0-.141.284l-13.15 73.778a.63.63 0 0 0 .073.418.44.44 0 0 0 .132.141c.053.034.11.054.17.058l52.746 3.219M98.596 102.63a.18.18 0 0 0-.127.055.264.264 0 0 0-.072.141l-.475 2.523a.31.31 0 0 0 .034.207c.017.03.04.054.066.072a.177.177 0 0 0 .084.031l26.849 2.364a.177.177 0 0 0 .138-.053.264.264 0 0 0 .077-.152l.457-2.919a.296.296 0 0 0-.039-.203.218.218 0 0 0-.066-.069.173.173 0 0 0-.083-.029l-26.83-1.968zM131.216 117.394a.177.177 0 0 0 .136-.047.272.272 0 0 0 .079-.145l.582-2.925a.313.313 0 0 0-.033-.21.233.233 0 0 0-.066-.073.183.183 0 0 0-.085-.031l-34.288-2.97a.173.173 0 0 0-.131.044.255.255 0 0 0-.08.137l-.604 2.527a.318.318 0 0 0-.006.112.289.289 0 0 0 .033.103c.017.032.04.057.066.076a.177.177 0 0 0 .086.034zM129.375 126.77a.178.178 0 0 0 .136-.047.272.272 0 0 0 .079-.145l.582-2.925a.339.339 0 0 0 .002-.11.285.285 0 0 0-.036-.1.222.222 0 0 0-.066-.073.18.18 0 0 0-.085-.031l-34.287-2.97a.173.173 0 0 0-.132.044.255.255 0 0 0-.079.137l-.605 2.527a.315.315 0 0 0 .028.215c.017.032.04.057.066.076a.177.177 0 0 0 .086.034zM69.926 159.778c0 2.12-15.673 2.346-34.963 3.84C15.69 165.109 0 161.898 0 159.778c0-2.121 15.763-6.388 34.963-3.84 19.29 2.56 34.963 1.719 34.963 3.84"/><path fill="#7D7BF7" d="M113.583 142.798a.172.172 0 0 0 .138-.045.262.262 0 0 0 .08-.146l1.23-6.095a.301.301 0 0 0 .002-.108.255.255 0 0 0-.099-.174.181.181 0 0 0-.084-.032l-21.056-2.193a.182.182 0 0 0-.138.049.269.269 0 0 0-.08.148l-1.049 5.85a.31.31 0 0 0 .035.204.23.23 0 0 0 .064.071.172.172 0 0 0 .082.032z"/><path fill="#A0616A" d="M28.563 117.963a2.59 2.59 0 0 0 .65-.862c.164-.343.265-.726.296-1.123a3.33 3.33 0 0 0-.117-1.171 2.877 2.877 0 0 0-.505-1l.852-23.571-4.34.603.252 23.056c-.36.501-.559 1.147-.56 1.817 0 .671.198 1.318.557 1.819.36.502.854.823 1.392.902.537.079 1.08-.088 1.524-.471v.001M36.482 157.864l2.47.538 2.442-11.547-3.237-.793-1.675 11.802"/><path fill="#2F2E41" d="m43.314 162.28-7.764-1.691.527-3.716 4.765 1.038c.795.173 1.503.731 1.966 1.55.464.82.646 1.834.506 2.819"/><path fill="#A0616A" d="M29.701 159.395h2.508l1.194-11.983H29.7v11.983"/><path fill="#2F2E41" d="m37.046 162.28-7.883.001v-3.774H34c.808 0 1.583.398 2.154 1.105.571.708.892 1.668.892 2.668M40.166 155.1a.765.765 0 0 1-.117-.009l-2.952-.3a.876.876 0 0 1-.382-.157 1.1 1.1 0 0 1-.3-.33 1.38 1.38 0 0 1-.172-.45 1.524 1.524 0 0 1-.015-.497l2.931-17.911-1.841-12.031a.441.441 0 0 0-.121-.247.293.293 0 0 0-.223-.087.305.305 0 0 0-.214.114.459.459 0 0 0-.1.261l-2.714 30.568c-.025.322-.15.619-.35.829a.894.894 0 0 1-.716.295l-2.781-.128a.935.935 0 0 1-.644-.369 1.395 1.395 0 0 1-.284-.805l.222-36.938 14.42-2.233 1.008 19.269-.005.021-3.68 20.19a1.297 1.297 0 0 1-.354.68.885.885 0 0 1-.616.265"/><path fill="#A0616A" d="M34.148 74.962c2.776 0 5.025-2.786 5.025-6.224 0-3.437-2.25-6.224-5.025-6.224-2.775 0-5.025 2.787-5.025 6.224 0 3.438 2.25 6.224 5.025 6.224"/><path fill="#7D7BF7" d="M38.883 119.719c-.786.005-1.557-.268-2.221-.787-2.435-1.885-5.2-1.136-6.63-.522-.143.062-.294.083-.444.062a.879.879 0 0 1-.42-.184 1.123 1.123 0 0 1-.31-.385 1.422 1.422 0 0 1-.145-.515L26.11 88.595c-.436-4.824 1.91-9.36 5.58-10.785.137-.053.277-.104.42-.152a6.588 6.588 0 0 1 3.502-.201c1.166.25 2.273.814 3.243 1.651.99.847 1.816 1.952 2.423 3.237.607 1.285.979 2.72 1.09 4.202l2.191 28.986c.015.188-.005.377-.06.553-.054.176-.14.335-.252.462-.769.88-2.998 3.17-5.364 3.171"/><path fill="#7D7BF7" d="m30.957 94.77-5.872-.8a1.027 1.027 0 0 1-.473-.197 1.318 1.318 0 0 1-.363-.422 1.657 1.657 0 0 1-.188-.572 1.785 1.785 0 0 1 .02-.617l1.495-7.056a4.745 4.745 0 0 1 .377-1.509c.206-.467.483-.88.818-1.213a3.09 3.09 0 0 1 1.13-.73 2.651 2.651 0 0 1 1.271-.134c.427.06.84.224 1.215.482.375.259.705.607.971 1.024.266.417.463.896.578 1.408a4.95 4.95 0 0 1 .096 1.575l.222 7.266a1.76 1.76 0 0 1-.087.608 1.495 1.495 0 0 1-.285.508 1.15 1.15 0 0 1-.429.314.962.962 0 0 1-.496.065"/><path fill="#A0616A" d="M44.535 116.953c.241-.263.433-.588.562-.952.129-.365.191-.76.183-1.158a3.256 3.256 0 0 0-.229-1.145 2.692 2.692 0 0 0-.599-.918l-1.447-23.526-4.253 1.186 2.496 22.911a3.252 3.252 0 0 0-.379 1.888c.065.665.324 1.278.73 1.722.405.445.927.689 1.469.688.54-.002 1.064-.249 1.467-.696"/><path fill="#7D7BF7" d="M37.121 93.291a1.494 1.494 0 0 1-.284-.507 1.756 1.756 0 0 1-.088-.608l.222-7.266a4.948 4.948 0 0 1 .107-1.565c.118-.508.315-.982.581-1.395.266-.413.595-.757.968-1.013a2.83 2.83 0 0 1 1.208-.477 2.65 2.65 0 0 1 1.263.132c.41.146.793.39 1.126.72.334.33.612.737.818 1.2.207.462.338.97.386 1.495l1.494 7.056c.043.201.05.412.021.617-.029.205-.093.4-.188.572-.095.171-.22.315-.364.422a1.027 1.027 0 0 1-.472.197l-5.872.8a.957.957 0 0 1-.496-.065 1.147 1.147 0 0 1-.429-.316v.001"/><path fill="#2F2E41" d="M33.85 75.196a.95.95 0 0 1-.267-.038l-.025-.008c-4.418-.836-5.395-4.006-5.609-5.33-.222-1.37.03-2.693.602-3.207-.312-1.216-.262-2.296.148-3.209.716-1.59 2.267-2.128 2.476-2.195 1.24-1.133 2.722-.377 2.992-.223 2.398-1.099 3.315-.184 3.48.02 1.072.238 1.725.75 1.942 1.524.407 1.453-.881 3.259-.936 3.335l-.029.04-1.919.113a1.11 1.11 0 0 0-.523.17 1.397 1.397 0 0 0-.422.42c-.115.175-.2.377-.248.595a1.984 1.984 0 0 0-.03.67c.051.287.117.571.196.85.327 1.268.573 2.352.256 2.764a.481.481 0 0 1-.255.153.422.422 0 0 1-.282-.038c-.3-.1-.503-.079-.605.062-.157.218-.11.77.136 1.552.077.248.097.517.06.778a1.619 1.619 0 0 1-.274.704c-.107.156-.24.28-.389.367a.959.959 0 0 1-.476.131"/></g><defs><clipPath id="a"><path fill="#fff" d="M0 0h164v164H0z"/></clipPath></defs></svg>