<svg width="22" height="12" viewBox="0 0 22 12" fill="none" xmlns="http://www.w3.org/2000/svg">
<path d="M8.35392 10.1897C8.35618 10.2336 8.33639 10.2931 8.3869 10.315C8.39792 10.3195 8.40894 10.3216 8.42213 10.3216C8.43974 10.3216 8.45952 10.3173 8.47714 10.3173C8.52764 10.3173 8.57606 10.3173 8.62448 10.315C8.63107 10.315 8.63541 10.315 8.64201 10.3195C8.67064 10.3348 8.6552 10.414 8.6552 10.4382C8.6552 10.4953 8.66404 10.5548 8.66179 10.6119C8.66179 10.6713 8.64201 10.7285 8.64201 10.7878C8.64201 10.845 8.64643 10.9044 8.64643 10.9616C8.64426 11.0187 8.64426 11.0759 8.64201 11.1309C8.64201 11.2012 8.67064 11.265 8.66838 11.3354C8.66621 11.3749 8.65962 11.4146 8.65962 11.4542C8.66179 11.485 8.66621 11.5091 8.68817 11.5289C8.70144 11.5421 8.7168 11.5487 8.73442 11.5509C8.77615 11.5553 8.81572 11.5575 8.85755 11.5575C8.90154 11.5575 8.94553 11.5553 8.98944 11.5465C9.00488 11.5443 9.02467 11.5465 9.03569 11.5377C9.08627 11.5048 9.06641 11.3881 9.06641 11.3398C9.06424 11.2518 9.07526 11.1639 9.07526 11.0759C9.073 11.0187 9.05764 10.9616 9.05547 10.9022C9.05322 10.867 9.05547 10.8296 9.05764 10.7923C9.06207 10.713 9.06866 10.6317 9.06866 10.5525C9.06866 10.4712 9.05764 10.392 9.05764 10.3106C9.13461 10.3106 9.21158 10.3129 9.28854 10.3129C9.3039 10.3129 9.31275 10.3018 9.32377 10.2755C9.32811 10.2578 9.33696 10.2403 9.33696 10.2183C9.3413 10.1545 9.34789 10.0203 9.3347 9.961C9.32594 9.92802 9.30173 9.92143 9.27535 9.92143C9.25999 9.92143 9.24455 9.9236 9.23353 9.9236C9.23136 9.9236 9.23136 9.9236 9.22919 9.9236C9.18303 9.917 9.13678 9.90598 9.08845 9.90598C9.06641 9.90598 9.04228 9.89939 9.02024 9.89939C8.9851 9.89939 8.94987 9.90824 8.9169 9.90824C8.87291 9.90381 8.81798 9.89062 8.77398 9.89062C8.76514 9.89062 8.75637 9.8928 8.74978 9.8928C8.73442 9.8928 8.72123 9.90164 8.70578 9.90164C8.65303 9.90164 8.60244 9.89939 8.55185 9.89939C8.50126 9.90164 8.45067 9.91258 8.40017 9.91917C8.39792 9.91917 8.39792 9.92143 8.39575 9.92143C8.38473 9.9236 8.37813 9.92577 8.36937 9.94121C8.36052 9.9544 8.35618 9.96976 8.35618 9.98738C8.35175 10.0446 8.34958 10.1017 8.35392 10.1611C8.35392 10.1699 8.35392 10.1809 8.35392 10.1897Z" fill="#6E58FF"/>
<path d="M10.0119 11.5575C10.0208 11.5575 10.0295 11.5553 10.0383 11.5553C10.1087 11.5553 10.179 11.5531 10.2494 11.5531C10.267 11.5531 10.2846 11.5531 10.3022 11.5531C10.3616 11.5531 10.4209 11.5531 10.4803 11.5553C10.5089 11.5553 10.5375 11.5531 10.5617 11.5421C10.6299 11.5091 10.6101 11.3749 10.6123 11.3134C10.6123 11.2584 10.6057 11.2034 10.6013 11.1485C10.5991 11.1353 10.6035 11.1132 10.5947 11.1023C10.5727 11.0803 10.5243 11.0781 10.4957 11.0781C10.4671 11.0781 10.4363 11.0803 10.4078 11.0803C10.3835 11.0781 10.3572 11.0781 10.333 11.0781C10.3088 11.0781 10.2846 11.0781 10.2648 11.0825C10.2604 11.0847 10.2494 11.0803 10.2472 11.0825C10.234 11.0913 10.2406 11.1177 10.2406 11.133C10.2406 11.1419 10.2385 11.1506 10.2385 11.1595C10.2385 11.1617 10.234 11.1638 10.234 11.1661C10.2296 11.177 10.2032 11.177 10.1945 11.177C10.1549 11.177 10.135 11.1727 10.135 11.1309C10.135 11.1155 10.1483 10.9219 10.1439 10.9219C10.1592 10.9219 10.1658 10.9197 10.1813 10.9197C10.1945 10.9197 10.2098 10.9197 10.223 10.9197C10.267 10.9197 10.3132 10.9176 10.3527 10.8978C10.3946 10.8757 10.4078 10.7373 10.4099 10.6977C10.4122 10.6559 10.4165 10.5877 10.3792 10.5591C10.3593 10.5459 10.234 10.5393 10.2077 10.5393C10.1813 10.5393 10.1571 10.5393 10.1329 10.5415C10.1329 10.4953 10.1241 10.4513 10.1241 10.4052C10.1241 10.3612 10.135 10.3172 10.1329 10.271C10.1571 10.271 10.1747 10.2732 10.1988 10.2732C10.2054 10.2732 10.212 10.2732 10.2208 10.2776C10.2385 10.2842 10.2319 10.3018 10.2296 10.3172C10.2296 10.3326 10.2362 10.3524 10.2472 10.3634C10.2582 10.3765 10.3572 10.3898 10.3748 10.3898C10.4188 10.3898 10.4649 10.381 10.5089 10.381C10.5397 10.381 10.5793 10.3788 10.5925 10.3458C10.6013 10.326 10.5947 10.2996 10.5947 10.2776C10.5902 10.1896 10.6123 10.1017 10.6057 10.0138C10.6035 9.98512 10.6101 9.9236 10.5836 9.90598C10.5639 9.89062 10.5331 9.8928 10.5111 9.89062C10.5045 9.89062 10.4979 9.89062 10.4913 9.89062C10.4583 9.89062 10.4231 9.89722 10.3901 9.89722C10.3726 9.89722 10.3527 9.90381 10.333 9.90381C10.2451 9.90381 10.1571 9.89062 10.0669 9.89062C10.0471 9.89062 10.0273 9.89062 10.0076 9.8928C9.96791 9.89722 9.9306 9.90156 9.89095 9.90381C9.84044 9.90381 9.79202 9.90381 9.74144 9.90381C9.68208 9.90381 9.62273 9.90816 9.56772 9.93236C9.5567 10.0248 9.56555 10.1171 9.57214 10.2094C9.57431 10.2249 9.57431 10.2402 9.58308 10.2534C9.59627 10.2798 9.62933 10.2886 9.66005 10.2886C9.66889 10.2886 9.67766 10.2864 9.68425 10.2864C9.68651 10.2864 9.69085 10.2864 9.6931 10.2864C9.76122 10.2864 9.72825 10.392 9.72825 10.4382C9.72825 10.4953 9.73927 10.5547 9.73927 10.6119C9.73927 10.6712 9.73927 10.7284 9.73927 10.7878C9.73927 10.8449 9.72608 10.9044 9.72608 10.9616C9.72608 11.0187 9.71506 11.0758 9.71506 11.1309C9.71506 11.1991 9.71723 11.265 9.71948 11.331C9.72165 11.4036 9.73484 11.5597 9.83159 11.5684C9.84478 11.5707 9.8558 11.5707 9.86899 11.5707C9.91741 11.5707 9.96791 11.5619 10.0119 11.5575Z" fill="#6E58FF"/>
<path d="M11.3155 11.5587C11.3617 11.5632 11.41 11.5808 11.4585 11.5808C11.4629 11.5808 11.4672 11.5808 11.4716 11.5808C11.5442 11.5742 11.6146 11.55 11.6783 11.5323C11.6915 11.5302 11.7025 11.517 11.7113 11.506C11.7246 11.4928 11.7421 11.4796 11.7444 11.462C11.751 11.3872 11.7268 11.3146 11.7091 11.2421C11.7025 11.2091 11.6849 11.1475 11.6432 11.1475C11.63 11.1475 11.6168 11.1541 11.5992 11.1607C11.5552 11.1783 11.5046 11.1783 11.4563 11.1783C11.4057 11.1783 11.3419 11.1717 11.3067 11.1343C11.2407 11.0552 11.2188 10.9298 11.2099 10.8286C11.2056 10.7693 11.1968 10.7143 11.199 10.6659C11.2012 10.6198 11.221 10.5758 11.232 10.5318C11.2407 10.4878 11.2473 10.4416 11.2715 10.4021C11.2869 10.3779 11.3199 10.3339 11.3507 10.3251C11.3551 10.3229 11.3573 10.3229 11.3595 10.3229C11.3903 10.3229 11.3771 10.3823 11.3749 10.3999C11.3727 10.4131 11.3573 10.4329 11.3639 10.4438C11.3705 10.4548 11.3859 10.4658 11.3991 10.468C11.4563 10.4878 11.5178 10.4878 11.5794 10.4966C11.5926 10.4988 11.6036 10.501 11.6168 10.501C11.6651 10.49 11.6806 10.4174 11.6938 10.3779C11.7113 10.3163 11.7179 10.2503 11.7355 10.1888C11.7487 10.1359 11.7883 10.0546 11.7465 10.0085C11.7333 9.99302 11.7113 9.982 11.6938 9.97323C11.5838 9.92048 11.4606 9.89844 11.3398 9.89844C11.2012 9.90286 11.0736 9.96004 10.9922 10.0787C10.9505 10.1404 10.9329 10.2173 10.9087 10.2877C10.8889 10.347 10.8603 10.4065 10.8493 10.468C10.8383 10.5296 10.8406 10.5934 10.8383 10.6572C10.834 10.7187 10.8361 10.7825 10.8406 10.8441C10.8471 10.9079 10.8559 10.9694 10.8691 11.031C10.8845 11.1409 10.9329 11.2927 10.9945 11.3828C11.0362 11.4444 11.0978 11.4928 11.1659 11.5258C11.2122 11.55 11.265 11.5521 11.3155 11.5587Z" fill="#6E58FF"/>
<path d="M12.0813 10.3106C12.1736 10.3195 12.1363 10.4118 12.1363 10.48C12.1363 10.5371 12.1495 10.5899 12.1495 10.6405C12.1495 10.6954 12.1495 10.7482 12.1495 10.8032C12.1495 10.856 12.1582 10.9087 12.1582 10.9659C12.1582 11.0209 12.1538 11.0781 12.1516 11.1353C12.1516 11.1925 12.1538 11.2474 12.1561 11.3046C12.1561 11.3618 12.1451 11.4189 12.1495 11.4739C12.1495 11.4761 12.1495 11.4783 12.1495 11.4805C12.1582 11.5553 12.2088 11.5684 12.2704 11.5684C12.3254 11.5684 12.4683 11.5531 12.5167 11.5245C12.5673 11.4893 12.5629 11.3926 12.5629 11.342C12.5629 11.254 12.5497 11.1683 12.5475 11.0803C12.5475 11.0253 12.5584 10.9725 12.5584 10.9176C12.5717 10.9176 12.5826 10.9197 12.5981 10.9197C12.6619 10.9197 12.7234 10.9286 12.7893 10.9308C12.7893 10.9439 12.8026 10.9461 12.8026 10.9593C12.8026 11.0165 12.8004 11.0737 12.8004 11.1309C12.7982 11.2496 12.7893 11.3683 12.7982 11.4871C12.8048 11.5399 12.8312 11.5421 12.873 11.5465C12.8971 11.5487 12.9213 11.5509 12.9433 11.5509C13.0049 11.5509 13.0665 11.5421 13.1258 11.5333C13.1412 11.5289 13.1544 11.5333 13.1676 11.5245C13.216 11.4915 13.1962 11.3881 13.1962 11.3375C13.194 11.2496 13.1984 11.1617 13.1984 11.0758C13.1984 11.0165 13.1984 10.9593 13.1984 10.9C13.1984 10.8428 13.205 10.7834 13.205 10.7262C13.205 10.6669 13.2006 10.6097 13.2006 10.5504C13.2006 10.4887 13.2006 10.4271 13.2006 10.3634C13.1984 10.3018 13.1808 10.2402 13.1808 10.1765C13.1808 10.1149 13.1984 10.0533 13.1984 9.98955C13.1984 9.96534 13.1852 9.94555 13.1588 9.93019C13.1434 9.92134 13.1258 9.89939 13.1061 9.89722C13.0731 9.89497 13.0181 9.89062 12.9675 9.89062C12.9191 9.89062 12.873 9.89497 12.8443 9.90598C12.7872 9.93019 12.8135 10.0401 12.8114 10.0886C12.8048 10.1655 12.8048 10.2447 12.8048 10.3216C12.8048 10.3612 12.8004 10.3986 12.8004 10.436C12.8004 10.4711 12.7916 10.5041 12.7916 10.5371C12.741 10.5393 12.6926 10.5415 12.6421 10.5438C12.6113 10.5438 12.5915 10.5393 12.5607 10.5393C12.5607 10.4777 12.5452 10.4228 12.5452 10.3612C12.5452 10.2996 12.5452 10.2381 12.5452 10.1787C12.5431 10.1171 12.5563 10.0555 12.5563 9.99614C12.5563 9.94121 12.5255 9.91041 12.4727 9.91041C12.4727 9.91041 12.4705 9.91041 12.4683 9.91041C12.3452 9.91041 12.222 9.91258 12.1011 9.91258C12.0923 9.91258 12.0857 9.91258 12.0791 9.91258C12.0461 9.91258 12.0285 9.91475 12.0109 9.94781C12.0021 9.96317 11.9845 9.97853 11.9845 9.99831C11.9824 10.0489 12.0043 10.1369 12.0021 10.1896C12.0021 10.2534 12.0043 10.2996 12.0813 10.3106Z" fill="#6E58FF"/>
<path d="M13.5142 10.3131C13.6088 10.3241 13.5934 10.412 13.5934 10.4802C13.5912 10.5373 13.5824 10.5902 13.5824 10.6408C13.5824 10.6957 13.578 10.7485 13.578 10.8035C13.578 10.8562 13.589 10.909 13.589 10.9662C13.589 11.0212 13.5714 11.0784 13.5714 11.1355C13.5714 11.1817 13.578 11.2279 13.5824 11.274C13.5824 11.318 13.5758 11.3598 13.5758 11.4038C13.5736 11.4654 13.589 11.5468 13.6615 11.5555C13.7055 11.5599 13.7517 11.5644 13.7957 11.5644C13.8375 11.5644 13.8771 11.5599 13.9188 11.5534C13.954 11.5446 13.9672 11.5336 13.9804 11.4962C13.998 11.4456 13.9914 11.3928 13.9914 11.3422C13.9914 11.2542 13.9892 11.1685 13.9892 11.0805C13.9892 11.0124 13.987 10.942 13.987 10.8738C13.987 10.8056 13.9804 10.7287 13.9804 10.6606C14.0112 10.7089 14.042 10.7661 14.0728 10.8122C14.1036 10.8585 14.1454 10.9002 14.1762 10.9486C14.2047 10.9925 14.2289 11.0454 14.2597 11.096C14.2597 11.1399 14.2509 11.1861 14.2509 11.2323C14.2509 11.3048 14.2707 11.3774 14.2861 11.45C14.2993 11.516 14.3191 11.5534 14.3895 11.5578C14.4709 11.5578 14.6159 11.5555 14.6555 11.4698C14.6644 11.4522 14.6753 11.4368 14.6753 11.417C14.6753 11.3598 14.6687 11.3004 14.6687 11.2411C14.6687 11.1224 14.6687 11.0058 14.6687 10.887C14.6687 10.8277 14.6644 10.7682 14.6644 10.7111C14.6644 10.6517 14.6599 10.5924 14.6599 10.533C14.6599 10.4736 14.6665 10.4165 14.6665 10.357C14.6644 10.2977 14.6753 10.2383 14.6731 10.179C14.6731 10.1195 14.6665 10.0624 14.6644 10.003C14.6644 9.97879 14.6533 9.96126 14.627 9.94582C14.6093 9.93488 14.5962 9.91067 14.5742 9.90842C14.561 9.90842 14.5434 9.90625 14.5236 9.90625C14.4554 9.90625 14.3631 9.91284 14.3191 9.93263C14.2619 9.95684 14.2707 10.0514 14.2685 10.0998C14.2641 10.1767 14.2685 10.2559 14.2685 10.3351C14.2685 10.3615 14.2575 10.3944 14.2575 10.4208C14.2289 10.3725 14.1981 10.3241 14.1673 10.2757C14.1365 10.2295 14.1167 10.1767 14.086 10.1261C14.0508 10.0712 14.0112 10.0206 13.9804 9.9656C13.9717 9.95241 13.9651 9.93922 13.9519 9.93046C13.9343 9.91727 13.9079 9.91502 13.8837 9.91502C13.8463 9.91502 13.8067 9.91502 13.7693 9.91502C13.7495 9.91502 13.7319 9.91502 13.7121 9.91502C13.6528 9.91284 13.5934 9.90842 13.534 9.90842C13.5231 9.90842 13.512 9.90842 13.5033 9.90842C13.4725 9.90842 13.4483 9.91067 13.4329 9.94148C13.424 9.95684 13.4351 9.98105 13.4351 9.99858C13.4329 10.0492 13.4219 10.1371 13.4219 10.1899C13.4219 10.2669 13.4306 10.3064 13.5142 10.3131Z" fill="#6E58FF"/>
<path d="M14.9338 11.0397C14.9426 11.0903 14.9405 11.1431 14.9558 11.1893C15.0152 11.363 15.0592 11.4465 15.2307 11.5301C15.3077 11.5697 15.389 11.5719 15.4748 11.5719C15.6529 11.5719 15.7738 11.5345 15.8772 11.3828C15.9498 11.2772 15.9981 11.1695 16.0157 11.0419C16.0289 10.9803 16.0444 10.9188 16.051 10.855C16.0553 10.7934 16.0531 10.7296 16.0487 10.6681C16.0465 10.5977 16.0047 10.3624 15.9806 10.2986C15.941 10.1689 15.853 10.0062 15.7255 9.9446C15.6595 9.91163 15.5826 9.9072 15.5056 9.9072C15.4704 9.90503 15.433 9.89844 15.3978 9.89844C15.3451 9.89844 15.2681 9.91822 15.2219 9.94018C15.1229 9.98859 14.9975 10.1931 14.9624 10.2965C14.9426 10.3558 14.9228 10.4174 14.9118 10.4789C14.9008 10.5405 14.9052 10.6043 14.9031 10.6681C14.8986 10.7296 14.8965 10.7934 14.9008 10.855C14.9074 10.9188 14.9206 10.9803 14.9338 11.0397ZM15.3472 10.6856C15.3494 10.6043 15.3604 10.5251 15.3912 10.457C15.4154 10.402 15.4396 10.358 15.4748 10.3448C15.5781 10.3844 15.5958 10.5955 15.5979 10.6856C15.6001 10.7451 15.6111 10.822 15.6045 10.8946C15.5958 10.9715 15.5737 11.0463 15.5407 11.0947C15.5254 11.1211 15.499 11.1365 15.4748 11.1431C15.3956 11.1211 15.3538 10.9628 15.3451 10.8946C15.3362 10.822 15.3451 10.7451 15.3472 10.6856Z" fill="#6E58FF"/>
<path d="M16.3746 10.2986C16.3944 10.3008 16.412 10.3141 16.4229 10.3294C16.4361 10.3514 16.4361 10.3778 16.434 10.4042C16.434 10.4812 16.4318 10.5582 16.4295 10.6351C16.4295 10.6901 16.445 10.7428 16.445 10.7978C16.445 10.8506 16.4318 10.9033 16.4318 10.9605C16.4318 11.0045 16.4493 11.0507 16.4472 11.0991C16.445 11.1453 16.445 11.1914 16.4493 11.2377C16.4493 11.3058 16.4427 11.3762 16.4582 11.4444C16.4714 11.5103 16.4977 11.5521 16.5703 11.5565C16.5813 11.5565 16.5901 11.5565 16.6011 11.5565C16.6209 11.5565 16.6429 11.5565 16.6627 11.5565C16.6781 11.5587 16.6934 11.5587 16.7089 11.5587C16.7397 11.5587 16.7704 11.5565 16.8012 11.5565C16.8364 11.5565 16.887 11.5411 16.9398 11.5389C16.9419 11.5389 16.9464 11.5389 16.9485 11.5389C16.9991 11.5389 17.0497 11.5565 17.0805 11.5565C17.1091 11.5565 17.1377 11.5543 17.1641 11.5543C17.252 11.5543 17.285 11.5213 17.2916 11.4378C17.296 11.3872 17.2872 11.3344 17.285 11.2816C17.2828 11.2552 17.2894 11.2244 17.2784 11.1958C17.274 11.1848 17.263 11.1497 17.2498 11.1431C17.2455 11.1408 17.241 11.1408 17.2344 11.1408C17.1641 11.1408 17.0937 11.1431 17.0233 11.1431C17.0211 11.1431 17.0189 11.1431 17.0146 11.1431C16.9947 11.1431 16.9706 11.1453 16.9464 11.1453C16.8628 11.1453 16.8584 11.1079 16.8518 11.0353C16.8518 10.9913 16.8562 10.9496 16.8562 10.9078C16.8562 10.8506 16.854 10.7957 16.854 10.7385C16.8518 10.6835 16.8518 10.6263 16.8518 10.5714C16.8518 10.5648 16.854 10.5582 16.854 10.5516C16.854 10.49 16.843 10.4284 16.8408 10.3668C16.8408 10.3052 16.8452 10.2437 16.8452 10.1821C16.8452 10.1205 16.8408 9.92482 16.7682 9.90061C16.7572 9.89844 16.744 9.89844 16.7331 9.89844C16.6868 9.89844 16.6407 9.90278 16.5945 9.90278C16.5879 9.90278 16.5791 9.90278 16.5725 9.90278C16.5615 9.90278 16.5483 9.90278 16.5373 9.90278C16.489 9.90278 16.4406 9.90503 16.3922 9.90503C16.379 9.90503 16.3658 9.90503 16.3548 9.90503C16.3284 9.90503 16.3064 9.90937 16.2932 9.93584C16.2845 9.9512 16.28 9.97315 16.28 9.99293C16.2779 10.0435 16.2734 10.1315 16.2734 10.1821C16.2734 10.2151 16.2822 10.2591 16.3064 10.281C16.3306 10.3008 16.3438 10.2942 16.3746 10.2986Z" fill="#6E58FF"/>
<path d="M17.5431 11.0397C17.552 11.0903 17.5498 11.1431 17.5652 11.1893C17.6245 11.363 17.6685 11.4465 17.8401 11.5301C17.917 11.5697 17.9984 11.5719 18.0842 11.5719C18.2623 11.5719 18.3832 11.5345 18.4866 11.3828C18.5592 11.2772 18.6075 11.1695 18.6251 11.0419C18.6383 10.9803 18.6537 10.9188 18.6603 10.855C18.6647 10.7934 18.6625 10.7296 18.6581 10.6681C18.6559 10.5977 18.6141 10.3624 18.59 10.2986C18.5504 10.1689 18.4624 10.0062 18.3349 9.9446C18.2689 9.91163 18.1919 9.9072 18.115 9.9072C18.0797 9.90503 18.0423 9.89844 18.0072 9.89844C17.9544 9.89844 17.8775 9.91822 17.8312 9.94018C17.7323 9.98859 17.6069 10.1931 17.5718 10.2965C17.552 10.3558 17.5322 10.4174 17.5212 10.4789C17.5102 10.5405 17.5146 10.6043 17.5124 10.6681C17.508 10.7296 17.5058 10.7934 17.5102 10.855C17.5168 10.9188 17.53 10.9803 17.5431 11.0397ZM17.9566 10.6856C17.9588 10.6043 17.9698 10.5251 18.0006 10.457C18.0248 10.402 18.0489 10.358 18.0842 10.3448C18.1875 10.3844 18.2051 10.5955 18.2073 10.6856C18.2095 10.7451 18.2205 10.822 18.2139 10.8946C18.2051 10.9715 18.1831 11.0463 18.1501 11.0947C18.1348 11.1211 18.1084 11.1365 18.0842 11.1431C18.0049 11.1211 17.9632 10.9628 17.9544 10.8946C17.9456 10.822 17.9544 10.7451 17.9566 10.6856Z" fill="#6E58FF"/>
<path d="M18.9216 11.0364C18.9348 11.1419 18.9854 11.3024 19.0426 11.3881C19.1283 11.5113 19.2229 11.5531 19.3658 11.5707C19.4142 11.5795 19.4581 11.5905 19.5065 11.5905C19.511 11.5905 19.5153 11.5905 19.5197 11.5905C19.5197 11.6301 19.5351 11.6543 19.5374 11.6719C19.5505 11.7378 19.5725 11.773 19.6363 11.7774C19.6935 11.7774 19.8628 11.7554 19.887 11.6983C19.8936 11.6806 19.8936 11.6587 19.8936 11.6389C19.8914 11.5773 19.8782 11.5223 19.8782 11.4718C19.8782 11.4102 19.8804 11.3552 19.8804 11.3046C19.8782 11.2452 19.8892 11.1903 19.8892 11.1374C19.8892 11.0847 19.8826 11.0319 19.8826 10.9703C19.8804 10.9197 19.8804 10.867 19.8804 10.8032C19.8804 10.7526 19.8738 10.6977 19.8738 10.6361C19.8738 10.5833 19.854 10.5614 19.8012 10.5548C19.7814 10.5525 19.7638 10.5525 19.744 10.5525C19.7023 10.5525 19.6583 10.5548 19.6165 10.5569C19.5682 10.5591 19.5197 10.5635 19.4714 10.5657C19.4428 10.568 19.3944 10.5614 19.3768 10.5921C19.368 10.6075 19.3658 10.6251 19.3636 10.6427C19.3614 10.7021 19.3636 10.7615 19.3636 10.8186C19.3636 10.8428 19.3614 10.8758 19.379 10.8934C19.3834 10.8978 19.3878 10.8978 19.3944 10.8978C19.4098 10.8978 19.4274 10.8912 19.4406 10.8934C19.4604 10.8956 19.4823 10.9044 19.5 10.9131C19.5439 10.9374 19.5329 11.0407 19.5329 11.0825C19.5329 11.1111 19.5374 11.1463 19.5263 11.1748C19.5263 11.1771 19.5242 11.1814 19.5219 11.1837C19.5153 11.1859 19.4978 11.188 19.4912 11.188C19.4428 11.188 19.3922 11.1705 19.3614 11.1353C19.3262 11.0957 19.2888 11.0517 19.2712 10.999C19.258 10.9462 19.2712 10.8868 19.2669 10.834C19.2625 10.7747 19.2603 10.7196 19.2625 10.6713C19.2735 10.5019 19.3262 10.2952 19.5308 10.2952C19.5659 10.2952 19.6033 10.304 19.6451 10.3195C19.6583 10.3239 19.6692 10.3282 19.6781 10.3282C19.7111 10.3282 19.766 10.2578 19.7748 10.2293C19.7902 10.1567 19.7793 10.082 19.7726 10.0094C19.7704 9.9918 19.788 9.961 19.7748 9.94781C19.7638 9.93904 19.744 9.93245 19.7309 9.92802C19.6451 9.90381 19.5439 9.89062 19.4538 9.89062C19.1701 9.89062 19.0403 10.0467 18.9546 10.2931C18.9348 10.3524 18.9128 10.4118 18.8996 10.4734C18.8886 10.5349 18.8952 10.5987 18.893 10.6625C18.8886 10.7241 18.8908 10.7878 18.8952 10.8494C18.9018 10.9131 18.9062 10.9748 18.9216 11.0364Z" fill="#6E58FF"/>
<path d="M21.0799 10.3581C21.1085 10.2965 21.126 10.2305 21.1547 10.1712C21.1832 10.1096 21.2228 10.0546 21.2514 9.99302C21.2624 9.96881 21.2712 9.93809 21.2514 9.92265C21.2404 9.91388 21.2206 9.90729 21.2008 9.90503C21.1789 9.90286 21.1502 9.90286 21.1194 9.90286C20.937 9.90286 20.8951 9.91822 20.8006 10.0832C20.7654 10.1535 20.739 10.2239 20.7061 10.2943C20.6731 10.2239 20.6423 10.1557 20.6071 10.0854C20.5829 10.0436 20.5675 9.99961 20.5389 9.96004C20.4994 9.90729 20.4554 9.90069 20.3916 9.89844C20.3718 9.89844 20.352 9.89844 20.3322 9.89844C20.3146 9.89844 20.2948 9.89844 20.2751 9.89844C20.2509 9.89844 20.1783 9.89844 20.1563 9.91163C20.1365 9.92048 20.1255 9.94026 20.1189 9.96004C20.1101 9.99519 20.1123 10.0326 20.1123 10.07C20.1123 10.1096 20.1123 10.1514 20.1101 10.1931C20.1101 10.2261 20.1035 10.2679 20.1299 10.2899C20.1475 10.3031 20.1651 10.3053 20.1849 10.3053C20.1981 10.3053 20.209 10.3053 20.2222 10.3053C20.2706 10.3053 20.2948 10.3295 20.3191 10.3691C20.3564 10.424 20.3872 10.4835 20.4158 10.5428C20.4267 10.5714 20.4356 10.6 20.4531 10.6242C20.4707 10.6506 20.4883 10.677 20.5015 10.7055C20.5037 10.7078 20.5081 10.7165 20.5103 10.7209C20.5147 10.7319 20.506 10.7451 20.506 10.7561C20.5037 10.7759 20.5081 10.7957 20.5081 10.8154C20.5103 10.8551 20.5126 10.8947 20.5126 10.9342C20.5147 11.0178 20.5147 11.0992 20.5103 11.1805C20.5037 11.2772 20.4905 11.374 20.506 11.4686C20.5191 11.5345 20.5477 11.5653 20.6181 11.5653C20.6335 11.5653 20.6489 11.5653 20.6621 11.5632C20.7214 11.561 20.7786 11.5478 20.8358 11.5368C20.838 11.5368 20.8402 11.5368 20.8424 11.5368C20.849 11.5368 20.86 11.5389 20.8688 11.5389C20.8732 11.5389 20.8776 11.5368 20.8819 11.5345C20.9325 11.5015 20.9017 11.3872 20.9017 11.3388C20.8996 11.2509 20.9216 11.163 20.9216 11.075C20.9216 11.0244 20.9127 10.9716 20.9127 10.9188C20.9127 10.866 20.9083 10.8154 20.9083 10.7627C20.9083 10.7495 20.9062 10.7363 20.9062 10.7231C20.937 10.6638 20.9655 10.6022 20.9963 10.5405C21.0249 10.4812 21.0513 10.4197 21.0799 10.3581Z" fill="#6E58FF"/>
<mask id="mask0_11479_51082" style="mask-type:luminance" maskUnits="userSpaceOnUse" x="1" y="0" width="11" height="10">
<path d="M1.73438 0.21875H11.123V9.5085H1.73438V0.21875Z" fill="white"/>
</mask>
<g mask="url(#mask0_11479_51082)">
<path d="M4.92339 9.51172H1.73438L7.93845 0.226562H11.1275L4.92339 9.51172Z" fill="#6E58FF"/>
</g>
<mask id="mask1_11479_51082" style="mask-type:luminance" maskUnits="userSpaceOnUse" x="8" y="0" width="4" height="10">
<path d="M8.29688 0.210938H11.0794V9.50937H8.29688V0.210938Z" fill="white"/>
</mask>
<g mask="url(#mask1_11479_51082)">
<path d="M8.29688 0.210938H11.0794V9.50937H8.29688V0.210938Z" fill="#6E58FF"/>
</g>
<path d="M21.497 6.19196C21.442 5.46078 21.0736 4.87994 20.5773 4.37156C20.1512 3.93514 19.7166 3.50664 19.2735 3.08742C19.0576 2.8829 18.8712 2.63998 18.5948 2.50474C18.5847 2.50124 18.5747 2.49765 18.5646 2.49381C18.5409 2.48404 18.5172 2.47461 18.4936 2.46484C18.2687 2.38696 18.0799 2.43821 17.9148 2.62136C17.7568 2.7965 17.7254 3.00219 17.8337 3.21998C17.9648 3.4836 18.1873 3.66792 18.4019 3.85884C18.8729 4.32865 19.3517 4.79087 19.8127 5.27028C20.3323 5.81088 20.4631 6.44849 20.2062 7.15362C19.9802 7.77386 19.5251 8.13399 18.883 8.26563C18.8726 8.26772 18.8626 8.27006 18.8522 8.27214C18.8161 8.27456 18.78 8.2769 18.744 8.27924C18.6842 8.2784 18.6241 8.27632 18.5643 8.2769C18.0453 8.28132 17.6067 8.10352 17.2606 7.70875C17.149 7.58153 17.0588 7.44012 16.9635 7.30163C16.8481 7.13384 16.7087 6.99418 16.4906 6.9764C16.0412 6.93975 15.7319 7.39095 15.9426 7.81702C16.2939 8.52725 16.836 9.04799 17.5931 9.31728C17.9645 9.44926 18.3477 9.51287 18.7421 9.42497C18.8783 9.43298 19.0087 9.39926 19.1401 9.37205C19.1534 9.36695 19.1664 9.36195 19.1798 9.35694C19.2283 9.34567 19.2768 9.3344 19.3254 9.32288L19.3396 9.3273L19.349 9.31578C19.4165 9.32764 19.4532 9.26102 19.5091 9.25067C20.042 9.15158 20.4418 8.81926 20.7836 8.44202C21.3552 7.81059 21.5606 7.03559 21.497 6.19196Z" fill="#6E58FF"/>
<path d="M16.7042 5.56483C17.1068 5.9752 17.502 6.39451 17.9464 6.76173C18.0499 6.86115 18.1472 6.96825 18.2585 7.05824C18.5293 7.27746 18.9439 7.2828 19.1359 7.07744C19.3335 6.86616 19.3001 6.50278 19.0353 6.23415C18.7154 5.90984 18.4083 5.57192 18.0618 5.27482C17.8277 4.98666 17.5297 4.76202 17.2791 4.48955C17.1326 4.33002 16.9681 4.17233 16.882 3.98326C16.5713 3.29999 16.6476 2.64461 17.1116 2.04682C17.1865 1.9504 17.2575 1.85098 17.3631 1.7746C17.6487 1.56749 17.9683 1.46448 18.3106 1.41389C18.8228 1.38877 19.2839 1.51039 19.6685 1.87052C19.867 2.05659 19.9928 2.29809 20.1703 2.50077C20.3381 2.69252 20.5517 2.78159 20.7714 2.70496C21.0184 2.61881 21.167 2.40962 21.1604 2.15985C21.156 1.99273 21.0988 1.84147 21.0149 1.70156C20.8473 1.42307 20.6402 1.18283 20.3935 0.964781C19.9362 0.559914 19.414 0.331185 18.8127 0.267575C18.7882 0.264653 18.7636 0.261648 18.7393 0.258392C18.6216 0.219992 18.5012 0.238274 18.3816 0.241863C18.3458 0.24011 18.31 0.235352 18.2745 0.237439C17.0589 0.3013 15.9493 1.20737 15.6558 2.38658C15.4365 3.26718 15.5362 4.09745 16.0656 4.85852C16.2491 5.12248 16.4823 5.33843 16.7042 5.56483Z" fill="#6E58FF"/>
<path fill-rule="evenodd" clip-rule="evenodd" d="M9.68092 3H9.67969V9.51127H9.68092V6.25564C9.68092 8.05366 11.0723 9.51127 12.7887 9.51127C14.4755 9.51127 15.8485 8.10347 15.8953 6.34828V9.51127H15.8965V6.25564V3H15.8953V6.16299C15.8485 4.4078 14.4755 3 12.7887 3C11.0723 3 9.68092 4.45761 9.68092 6.25564V3ZM15.8953 6.16299C15.8961 6.19377 15.8965 6.22465 15.8965 6.25564C15.8965 6.28662 15.8961 6.3175 15.8953 6.34828V6.16299ZM14.0451 4.99054H12.881C12.8489 4.98809 12.8164 4.98684 12.7836 4.98684H14.0451V4.99054ZM11.5235 7.50971V7.51341H14.0464V4.99054H14.0451V6.24828C14.0451 5.58433 13.5322 5.04024 12.881 4.99054H12.6863C12.7184 4.98809 12.7509 4.98684 12.7836 4.98684H11.5222V6.24828V7.50971H11.5235ZM11.5235 6.3064V7.50971H12.7836H14.0451V6.24828C14.0451 6.9449 13.4803 7.50971 12.7836 7.50971C12.1065 7.50971 11.5539 6.97605 11.5235 6.3064ZM11.5235 6.19014C11.5226 6.20941 11.5222 6.22879 11.5222 6.24828C11.5222 6.26776 11.5226 6.28714 11.5235 6.3064V6.19014ZM11.5235 6.19014C11.5524 5.55282 12.0543 5.03878 12.6863 4.99054H11.5235V6.19014Z" fill="#6E58FF"/>
<mask id="mask2_11479_51082" style="mask-type:luminance" maskUnits="userSpaceOnUse" x="0" y="9" width="19" height="3">
<path d="M0.453125 9.45312H18.8063V11.3995H0.453125V9.45312Z" fill="white"/>
</mask>
<g mask="url(#mask2_11479_51082)">
<path d="M3.6545 11.4011H0.453125L15.6039 -11.2734H18.8047L3.6545 11.4011Z" fill="#6E58FF"/>
</g>
</svg>
