<svg width="1440" height="976" viewBox="0 0 1440 976" fill="none" xmlns="http://www.w3.org/2000/svg">
<g clip-path="url(#clip0_62_1081)">
<rect width="1440" height="975" transform="translate(0 0.216431)" fill="#FAFAFA"/>
<path d="M1249.42 209.949C1400.76 111.7 1562.49 18.5166 1724.47 -63.7423C1886.44 -146.001 2045.14 -215.557 2190.6 -268.036C2336.07 -320.514 2465.13 -354.782 2569.7 -368.683C2674.26 -382.584 2752.05 -375.818 2798.19 -348.811C2844.33 -321.804 2857.81 -275.139 2837.78 -211.752C2817.75 -148.364 2764.66 -69.6237 2681.83 19.5182C2599 108.66 2488.23 206.276 2356.48 306.227C2224.73 406.179 2074.85 506.306 1916.27 600.311L1811.32 493.138C1901.95 439.417 1987.6 382.198 2062.89 325.078C2138.18 267.959 2201.48 212.174 2248.81 161.232C2296.15 110.291 2326.49 65.2929 2337.94 29.0687C2349.38 -7.15548 2341.68 -33.8228 2315.31 -49.2566C2288.95 -64.6903 2244.49 -68.5567 2184.74 -60.6127C2124.98 -52.6686 2051.22 -33.086 1968.1 -3.09588C1884.97 26.8942 1794.27 66.6431 1701.71 113.652C1609.15 160.66 1516.72 213.911 1430.24 270.058L1249.42 209.949Z" fill="url(#paint0_linear_62_1081)" fill-opacity="0.5"/>
<path d="M1185.42 308.949C1336.76 210.7 1498.49 117.517 1660.47 35.2577C1822.44 -47.0012 1981.14 -116.557 2126.6 -169.036C2272.07 -221.514 2401.13 -255.782 2505.7 -269.683C2610.26 -283.584 2688.05 -276.818 2734.19 -249.811C2780.33 -222.804 2793.81 -176.139 2773.78 -112.752C2753.75 -49.3638 2700.66 29.3763 2617.83 118.518C2535 207.66 2424.23 305.276 2292.48 405.227C2160.73 505.179 2010.85 605.306 1852.27 699.311L1747.32 592.138C1837.95 538.417 1923.6 481.198 1998.89 424.078C2074.18 366.959 2137.48 311.174 2184.81 260.232C2232.15 209.291 2262.49 164.293 2273.94 128.069C2285.38 91.8445 2277.68 65.1772 2251.31 49.7434C2224.95 34.3097 2180.49 30.4433 2120.74 38.3873C2060.98 46.3314 1987.22 65.914 1904.1 95.9041C1820.97 125.894 1730.27 165.643 1637.71 212.652C1545.15 259.66 1452.72 312.911 1366.24 369.058L1185.42 308.949Z" fill="url(#paint1_linear_62_1081)" fill-opacity="0.5"/>
<path d="M1145.42 431.949C1296.76 333.7 1458.49 240.517 1620.47 158.258C1782.44 75.9988 1941.14 6.44328 2086.6 -46.0356C2232.07 -98.5145 2361.13 -132.782 2465.7 -146.683C2570.26 -160.584 2648.05 -153.818 2694.19 -126.811C2740.33 -99.8038 2753.81 -53.1394 2733.78 10.2484C2713.75 73.6362 2660.66 152.376 2577.83 241.518C2495 330.66 2384.23 428.276 2252.48 528.227C2120.73 628.179 1970.85 728.306 1812.27 822.311L1707.32 715.138C1797.95 661.417 1883.6 604.198 1958.89 547.078C2034.18 489.959 2097.48 434.174 2144.81 383.232C2192.15 332.291 2222.49 287.293 2233.94 251.069C2245.38 214.845 2237.68 188.177 2211.31 172.743C2184.95 157.31 2140.49 153.443 2080.74 161.387C2020.98 169.331 1947.22 188.914 1864.1 218.904C1780.97 248.894 1690.27 288.643 1597.71 335.652C1505.15 382.66 1412.72 435.911 1326.24 492.058L1145.42 431.949Z" fill="url(#paint2_linear_62_1081)" fill-opacity="0.5"/>
<path d="M1145.42 524.948C1296.76 426.7 1458.49 333.517 1620.47 251.258C1782.44 168.999 1941.14 99.4432 2086.6 46.9643C2232.07 -5.51452 2361.13 -39.7817 2465.7 -53.6828C2570.26 -67.5839 2648.05 -60.8182 2694.19 -33.811C2740.33 -6.80389 2753.81 39.8605 2733.78 103.248C2713.75 166.636 2660.66 245.376 2577.83 334.518C2495 423.66 2384.23 521.276 2252.48 621.227C2120.73 721.179 1970.85 821.306 1812.27 915.311L1707.32 808.138C1797.95 754.417 1883.6 697.197 1958.89 640.078C2034.18 582.959 2097.48 527.174 2144.81 476.232C2192.15 425.29 2222.49 380.293 2233.94 344.069C2245.38 307.844 2237.68 281.177 2211.31 265.743C2184.95 250.31 2140.49 246.443 2080.74 254.387C2020.98 262.331 1947.22 281.914 1864.1 311.904C1780.97 341.894 1690.27 381.643 1597.71 428.651C1505.15 475.66 1412.72 528.911 1326.24 585.058L1145.42 524.948Z" fill="url(#paint3_linear_62_1081)" fill-opacity="0.5"/>
</g>
<defs>
<linearGradient id="paint0_linear_62_1081" x1="1983.31" y1="226.822" x2="1898.14" y2="416.434" gradientUnits="userSpaceOnUse">
<stop stop-color="#D9F1FC"/>
<stop offset="0.0001" stop-color="#BD4FE3"/>
<stop offset="0.34375" stop-color="#F4C2F5"/>
<stop offset="0.760417" stop-color="#D9F1FC"/>
</linearGradient>
<linearGradient id="paint1_linear_62_1081" x1="1919.31" y1="325.822" x2="1834.14" y2="515.434" gradientUnits="userSpaceOnUse">
<stop stop-color="#D9F1FC"/>
<stop offset="0.0001" stop-color="#BD4FE3"/>
<stop offset="0.34375" stop-color="#F4C2F5"/>
<stop offset="0.760417" stop-color="#D9F1FC"/>
</linearGradient>
<linearGradient id="paint2_linear_62_1081" x1="1879.31" y1="448.822" x2="1794.14" y2="638.434" gradientUnits="userSpaceOnUse">
<stop stop-color="#D9F1FC"/>
<stop offset="0.0001" stop-color="#BD4FE3"/>
<stop offset="0.34375" stop-color="#F4C2F5"/>
<stop offset="0.760417" stop-color="#D9F1FC"/>
</linearGradient>
<linearGradient id="paint3_linear_62_1081" x1="1879.31" y1="541.822" x2="1794.14" y2="731.434" gradientUnits="userSpaceOnUse">
<stop stop-color="#D9F1FC"/>
<stop offset="0.0001" stop-color="#BD4FE3"/>
<stop offset="0.34375" stop-color="#F4C2F5"/>
<stop offset="0.760417" stop-color="#D9F1FC"/>
</linearGradient>
<clipPath id="clip0_62_1081">
<rect width="1440" height="975" fill="white" transform="translate(0 0.216431)"/>
</clipPath>
</defs>
</svg>
