<svg width="385" height="158" viewBox="0 0 385 158" fill="none" xmlns="http://www.w3.org/2000/svg">
<g clip-path="url(#clip0_64_1102)">
<path d="M0.927578 9.21596C0.991578 8.22396 1.37025 7.45063 2.06358 6.89596C2.76758 6.34129 3.66358 6.06396 4.75158 6.06396C5.49825 6.06396 6.14358 6.19729 6.68758 6.46396C7.23158 6.73063 7.64225 7.09329 7.91958 7.55196C8.19691 8.01063 8.33558 8.52796 8.33558 9.10396C8.33558 9.76529 8.15958 10.3307 7.80758 10.8C7.45558 11.2693 7.03425 11.584 6.54358 11.744V11.808C7.17291 12 7.66358 12.352 8.01558 12.864C8.36758 13.3653 8.54358 14.0107 8.54358 14.8C8.54358 15.4293 8.39958 15.9893 8.11158 16.48C7.82358 16.9707 7.39691 17.36 6.83158 17.648C6.26625 17.9253 5.58891 18.064 4.79958 18.064C3.64758 18.064 2.69825 17.7707 1.95158 17.184C1.21558 16.5867 0.820911 15.7333 0.767578 14.624H2.52758C2.57025 15.1893 2.78891 15.6533 3.18358 16.016C3.57825 16.368 4.11158 16.544 4.78358 16.544C5.43425 16.544 5.93558 16.368 6.28758 16.016C6.63958 15.6533 6.81558 15.1893 6.81558 14.624C6.81558 13.8773 6.57558 13.3493 6.09558 13.04C5.62625 12.72 4.90091 12.56 3.91958 12.56H3.50358V11.056H3.93558C4.79958 11.0453 5.45558 10.9013 5.90358 10.624C6.36225 10.3467 6.59158 9.90929 6.59158 9.31196C6.59158 8.79996 6.42625 8.39463 6.09558 8.09596C5.76491 7.78663 5.29558 7.63196 4.68758 7.63196C4.09025 7.63196 3.62625 7.78663 3.29558 8.09596C2.96491 8.39463 2.76758 8.76796 2.70358 9.21596H0.927578ZM18.0036 7.90396H12.6436V11.088C12.8676 10.7893 13.1983 10.5387 13.6356 10.336C14.0836 10.1333 14.5583 10.032 15.0596 10.032C15.9556 10.032 16.6809 10.224 17.2356 10.608C17.8009 10.992 18.2009 11.4773 18.4356 12.064C18.6809 12.6507 18.8036 13.2693 18.8036 13.92C18.8036 14.7093 18.6489 15.4133 18.3396 16.032C18.0409 16.64 17.5876 17.12 16.9796 17.472C16.3823 17.824 15.6463 18 14.7716 18C13.6089 18 12.6756 17.712 11.9716 17.136C11.2676 16.56 10.8463 15.7973 10.7076 14.848H12.4836C12.6009 15.3493 12.8623 15.7493 13.2676 16.048C13.6729 16.336 14.1796 16.48 14.7876 16.48C15.5449 16.48 16.1103 16.2507 16.4836 15.792C16.8676 15.3333 17.0596 14.7253 17.0596 13.968C17.0596 13.2 16.8676 12.6133 16.4836 12.208C16.0996 11.792 15.5343 11.584 14.7876 11.584C14.2649 11.584 13.8223 11.7173 13.4596 11.984C13.1076 12.24 12.8516 12.592 12.6916 13.04H10.9636V6.30396H18.0036V7.90396ZM24.4544 13.6L28.5184 18H26.0544L22.7904 14.208V18H20.9664V6.15996H22.7904V13.04L25.9904 9.18396H28.5184L24.4544 13.6Z" fill="#3D3D3D"/>
<path d="M0.927578 62.216C0.991578 61.224 1.37025 60.4507 2.06358 59.896C2.76758 59.3413 3.66358 59.064 4.75158 59.064C5.49825 59.064 6.14358 59.1973 6.68758 59.464C7.23158 59.7307 7.64225 60.0933 7.91958 60.552C8.19691 61.0107 8.33558 61.528 8.33558 62.104C8.33558 62.7653 8.15958 63.3307 7.80758 63.8C7.45558 64.2693 7.03425 64.584 6.54358 64.744V64.808C7.17291 65 7.66358 65.352 8.01558 65.864C8.36758 66.3653 8.54358 67.0107 8.54358 67.8C8.54358 68.4293 8.39958 68.9893 8.11158 69.48C7.82358 69.9707 7.39691 70.36 6.83158 70.648C6.26625 70.9253 5.58891 71.064 4.79958 71.064C3.64758 71.064 2.69825 70.7707 1.95158 70.184C1.21558 69.5867 0.820911 68.7333 0.767578 67.624H2.52758C2.57025 68.1893 2.78891 68.6533 3.18358 69.016C3.57825 69.368 4.11158 69.544 4.78358 69.544C5.43425 69.544 5.93558 69.368 6.28758 69.016C6.63958 68.6533 6.81558 68.1893 6.81558 67.624C6.81558 66.8773 6.57558 66.3493 6.09558 66.04C5.62625 65.72 4.90091 65.56 3.91958 65.56H3.50358V64.056H3.93558C4.79958 64.0453 5.45558 63.9013 5.90358 63.624C6.36225 63.3467 6.59158 62.9093 6.59158 62.312C6.59158 61.8 6.42625 61.3947 6.09558 61.096C5.76491 60.7867 5.29558 60.632 4.68758 60.632C4.09025 60.632 3.62625 60.7867 3.29558 61.096C2.96491 61.3947 2.76758 61.768 2.70358 62.216H0.927578ZM10.4836 65.016C10.4836 63.1707 10.7929 61.7307 11.4116 60.696C12.0409 59.6507 13.1183 59.128 14.6436 59.128C16.1689 59.128 17.2409 59.6507 17.8596 60.696C18.4889 61.7307 18.8036 63.1707 18.8036 65.016C18.8036 66.8827 18.4889 68.344 17.8596 69.4C17.2409 70.4453 16.1689 70.968 14.6436 70.968C13.1183 70.968 12.0409 70.4453 11.4116 69.4C10.7929 68.344 10.4836 66.8827 10.4836 65.016ZM17.0116 65.016C17.0116 64.152 16.9529 63.4213 16.8356 62.824C16.7289 62.2267 16.5049 61.7413 16.1636 61.368C15.8223 60.984 15.3156 60.792 14.6436 60.792C13.9716 60.792 13.4649 60.984 13.1236 61.368C12.7823 61.7413 12.5529 62.2267 12.4356 62.824C12.3289 63.4213 12.2756 64.152 12.2756 65.016C12.2756 65.912 12.3289 66.664 12.4356 67.272C12.5423 67.88 12.7663 68.3707 13.1076 68.744C13.4596 69.1173 13.9716 69.304 14.6436 69.304C15.3156 69.304 15.8223 69.1173 16.1636 68.744C16.5156 68.3707 16.7449 67.88 16.8516 67.272C16.9583 66.664 17.0116 65.912 17.0116 65.016ZM24.4856 66.6L28.5496 71H26.0856L22.8216 67.208V71H20.9976V59.16H22.8216V66.04L26.0216 62.184H28.5496L24.4856 66.6Z" fill="#3D3D3D"/>
<path d="M1.9678 121.52C2.9918 120.635 3.79713 119.909 4.3838 119.344C4.98113 118.768 5.47713 118.171 5.8718 117.552C6.26647 116.933 6.4638 116.315 6.4638 115.696C6.4638 115.056 6.30913 114.555 5.9998 114.192C5.70113 113.829 5.22647 113.648 4.5758 113.648C3.94647 113.648 3.4558 113.851 3.1038 114.256C2.76247 114.651 2.58113 115.184 2.5598 115.856H0.799805C0.831805 114.64 1.19447 113.712 1.8878 113.072C2.5918 112.421 3.48247 112.096 4.5598 112.096C5.72247 112.096 6.62913 112.416 7.2798 113.056C7.94113 113.696 8.2718 114.549 8.2718 115.616C8.2718 116.384 8.07447 117.125 7.6798 117.84C7.2958 118.544 6.8318 119.179 6.2878 119.744C5.75447 120.299 5.0718 120.944 4.2398 121.68L3.5198 122.32H8.5918V123.84H0.815805V122.512L1.9678 121.52ZM17.7382 113.904H12.3782V117.088C12.6022 116.789 12.9328 116.539 13.3702 116.336C13.8182 116.133 14.2928 116.032 14.7942 116.032C15.6902 116.032 16.4155 116.224 16.9702 116.608C17.5355 116.992 17.9355 117.477 18.1702 118.064C18.4155 118.651 18.5382 119.269 18.5382 119.92C18.5382 120.709 18.3835 121.413 18.0742 122.032C17.7755 122.64 17.3222 123.12 16.7142 123.472C16.1168 123.824 15.3808 124 14.5062 124C13.3435 124 12.4102 123.712 11.7062 123.136C11.0022 122.56 10.5808 121.797 10.4422 120.848H12.2182C12.3355 121.349 12.5968 121.749 13.0022 122.048C13.4075 122.336 13.9142 122.48 14.5222 122.48C15.2795 122.48 15.8448 122.251 16.2182 121.792C16.6022 121.333 16.7942 120.725 16.7942 119.968C16.7942 119.2 16.6022 118.613 16.2182 118.208C15.8342 117.792 15.2688 117.584 14.5222 117.584C13.9995 117.584 13.5568 117.717 13.1942 117.984C12.8422 118.24 12.5862 118.592 12.4262 119.04H10.6982V112.304H17.7382V113.904ZM24.1889 119.6L28.2529 124H25.7889L22.5249 120.208V124H20.7009V112.16H22.5249V119.04L25.7249 115.184H28.2529L24.1889 119.6Z" fill="#3D3D3D"/>
<path d="M58 59C58 54.5817 61.5817 51 66 51H87C91.4183 51 95 54.5817 95 59V165H58V59Z" fill="#FCFCFC"/>
<path d="M116 59C116 54.5817 119.582 51 124 51H145C149.418 51 153 54.5817 153 59V165H116V59Z" fill="#FCFCFC"/>
<path d="M174 25C174 20.5817 177.582 17 182 17H203C207.418 17 211 20.5817 211 25V165H174V25Z" fill="#2A2952"/>
<path d="M187.016 29.1875C187.016 29.7031 186.911 30.151 186.703 30.5312C186.495 30.9115 186.208 31.2239 185.844 31.4688C185.484 31.7083 185.068 31.8802 184.594 31.9844V32.0391C185.505 32.1536 186.193 32.44 186.656 32.8983C187.125 33.3567 187.359 33.9635 187.359 34.7188C187.359 35.3802 187.201 35.9713 186.883 36.4921C186.565 37.0077 186.078 37.414 185.422 37.7108C184.766 38.0077 183.922 38.1562 182.891 38.1562C182.271 38.1562 181.695 38.1068 181.164 38.0078C180.638 37.9089 180.138 37.75 179.664 37.5312V35.8983C180.148 36.1379 180.664 36.3228 181.211 36.453C181.758 36.5832 182.276 36.6483 182.766 36.6483C183.719 36.6483 184.398 36.4713 184.805 36.1171C185.211 35.7577 185.414 35.263 185.414 34.6328C185.414 34.2266 185.307 33.8932 185.094 33.6328C184.885 33.3724 184.56 33.1771 184.117 33.0469C183.68 32.9167 183.115 32.8516 182.422 32.8516H181.414V31.375H182.43C183.091 31.375 183.622 31.2969 184.023 31.1406C184.424 30.9792 184.714 30.7578 184.891 30.4766C185.073 30.1953 185.164 29.8672 185.164 29.4922C185.164 29.0026 185.005 28.6224 184.688 28.3516C184.37 28.0755 183.898 27.9375 183.273 27.9375C182.888 27.9375 182.536 27.9817 182.219 28.0702C181.906 28.1588 181.617 28.2708 181.352 28.4062C181.086 28.5417 180.833 28.6875 180.594 28.8438L179.711 27.5702C180.143 27.2473 180.659 26.974 181.258 26.75C181.857 26.526 182.555 26.4141 183.352 26.4141C184.523 26.4141 185.427 26.6667 186.062 27.1719C186.698 27.6719 187.016 28.3438 187.016 29.1875ZM197.103 35.4921H195.557V38H193.744V35.4921H188.549V34.1016L193.767 26.5469H195.557V33.9688H197.103V35.4921ZM193.744 33.9688V31.1327C193.744 30.8983 193.747 30.6615 193.752 30.4219C193.762 30.1771 193.773 29.9427 193.783 29.7188C193.794 29.4947 193.804 29.2891 193.814 29.1016C193.825 28.9089 193.833 28.75 193.838 28.625H193.775C193.676 28.8333 193.567 29.0469 193.447 29.2656C193.327 29.4792 193.2 29.6875 193.064 29.8906L190.252 33.9688H193.744ZM200.621 25.8438V31.7188C200.621 31.9843 200.611 32.276 200.59 32.5938C200.569 32.9062 200.548 33.2005 200.527 33.4766H200.566C200.702 33.2943 200.863 33.0806 201.051 32.8358C201.243 32.591 201.426 32.3776 201.597 32.1953L204.238 29.3516H206.347L202.887 33.0703L206.574 38H204.418L201.652 34.203L200.621 35.0858V38H198.785V25.8438H200.621Z" fill="white"/>
<path d="M232 45C232 40.5817 235.582 37 240 37H261C265.418 37 269 40.5817 269 45V165H232V45Z" fill="#FCFCFC"/>
<path d="M290 59C290 54.5817 293.582 51 298 51H319C323.418 51 327 54.5817 327 59V165H290V59Z" fill="#FCFCFC"/>
<path d="M348 59C348 54.5817 351.582 51 356 51H377C381.418 51 385 54.5817 385 59V165H348V59Z" fill="#FCFCFC"/>
<path d="M71 16.5H352" stroke="url(#paint0_linear_64_1102)" stroke-dasharray="2 2"/>
</g>
<defs>
<linearGradient id="paint0_linear_64_1102" x1="-nan" y1="-nan" x2="-nan" y2="-nan" gradientUnits="userSpaceOnUse">
<stop stop-opacity="0.25"/>
<stop offset="1" stop-opacity="0"/>
</linearGradient>
<clipPath id="clip0_64_1102">
<rect width="385" height="158" fill="white"/>
</clipPath>
</defs>
</svg>
