<svg width="390" height="784" viewBox="0 0 390 784" fill="none" xmlns="http://www.w3.org/2000/svg">
<g clip-path="url(#clip0_62_2036)">
<rect width="390" height="784" fill="#FAFAFA"/>
<path d="M390 0H0V784H390V0Z" fill="#FAFAFA"/>
<path d="M286.7 374.273C323.662 350.276 363.164 327.517 402.725 307.426C442.285 287.335 481.048 270.347 516.575 257.529C552.103 244.711 583.627 236.342 609.166 232.947C634.704 229.552 653.705 231.204 664.973 237.8C676.242 244.397 679.534 255.794 674.643 271.276C669.751 286.758 656.783 305.989 636.552 327.762C616.322 349.534 589.267 373.376 557.088 397.788C524.91 422.2 488.304 446.655 449.572 469.615L423.939 443.439C446.073 430.318 466.993 416.343 485.382 402.392C503.771 388.441 519.232 374.816 530.793 362.374C542.354 349.932 549.765 338.942 552.56 330.094C555.355 321.247 553.474 314.734 547.035 310.964C540.595 307.194 529.737 306.25 515.142 308.19C500.548 310.131 482.533 314.913 462.23 322.238C441.927 329.563 419.775 339.271 397.167 350.753C374.56 362.234 351.985 375.241 330.863 388.954L286.7 374.273Z" fill="url(#paint0_linear_62_2036)" fill-opacity="0.5"/>
<path d="M271.069 398.453C308.031 374.456 347.533 351.697 387.094 331.606C426.654 311.515 465.417 294.527 500.945 281.709C536.472 268.892 567.996 260.522 593.535 257.127C619.073 253.732 638.074 255.384 649.342 261.981C660.611 268.577 663.903 279.974 659.012 295.456C654.121 310.938 641.152 330.17 620.922 351.942C600.691 373.714 573.636 397.556 541.458 421.968C509.279 446.381 472.673 470.836 433.941 493.796L408.309 467.62C430.443 454.499 451.362 440.523 469.751 426.572C488.14 412.621 503.601 398.997 515.162 386.554C526.723 374.112 534.134 363.122 536.929 354.275C539.724 345.427 537.843 338.914 531.404 335.144C524.964 331.375 514.106 330.43 499.511 332.371C484.917 334.311 466.902 339.094 446.599 346.419C426.296 353.743 404.144 363.452 381.537 374.933C358.929 386.415 336.354 399.421 315.232 413.134L271.069 398.453Z" fill="url(#paint1_linear_62_2036)" fill-opacity="0.5"/>
<path d="M261.299 428.494C298.26 404.498 337.763 381.739 377.323 361.648C416.884 341.557 455.647 324.568 491.174 311.751C526.702 298.933 558.226 290.564 583.764 287.169C609.303 283.773 628.304 285.426 639.572 292.022C650.84 298.618 654.132 310.016 649.241 325.498C644.35 340.98 631.382 360.211 611.151 381.983C590.92 403.756 563.865 427.597 531.687 452.01C499.509 476.422 462.903 500.877 424.171 523.837L398.538 497.661C420.672 484.54 441.591 470.565 459.98 456.614C478.369 442.663 493.83 429.038 505.391 416.596C516.953 404.154 524.364 393.164 527.159 384.316C529.954 375.469 528.073 368.955 521.633 365.186C515.194 361.416 504.335 360.472 489.741 362.412C475.146 364.352 457.131 369.135 436.828 376.46C416.525 383.785 394.374 393.493 371.766 404.975C349.158 416.456 326.584 429.462 305.461 443.176L261.299 428.494Z" fill="url(#paint2_linear_62_2036)" fill-opacity="0.5"/>
<path d="M261.299 451.209C298.26 427.212 337.763 404.453 377.323 384.362C416.884 364.271 455.647 347.283 491.174 334.465C526.702 321.648 558.226 313.278 583.764 309.883C609.303 306.488 628.304 308.14 639.572 314.736C650.84 321.333 654.132 332.73 649.241 348.212C644.35 363.694 631.382 382.926 611.151 404.698C590.92 426.47 563.865 450.312 531.687 474.724C499.509 499.137 462.903 523.592 424.171 546.552L398.538 520.375C420.672 507.254 441.591 493.279 459.98 479.328C478.369 465.377 493.83 451.752 505.391 439.31C516.953 426.868 524.364 415.878 527.159 407.03C529.954 398.183 528.073 391.67 521.633 387.9C515.194 384.131 504.335 383.186 489.741 385.126C475.146 387.067 457.131 391.85 436.828 399.174C416.525 406.499 394.374 416.208 371.766 427.689C349.158 439.17 326.584 452.177 305.461 465.89L261.299 451.209Z" fill="url(#paint3_linear_62_2036)" fill-opacity="0.5"/>
</g>
<defs>
<linearGradient id="paint0_linear_62_2036" x1="465.945" y1="378.394" x2="445.143" y2="424.705" gradientUnits="userSpaceOnUse">
<stop stop-color="#D9F1FC"/>
<stop offset="0.0001" stop-color="#BD4FE3"/>
<stop offset="0.34375" stop-color="#F4C2F5"/>
<stop offset="0.760417" stop-color="#D9F1FC"/>
</linearGradient>
<linearGradient id="paint1_linear_62_2036" x1="450.314" y1="402.574" x2="429.512" y2="448.885" gradientUnits="userSpaceOnUse">
<stop stop-color="#D9F1FC"/>
<stop offset="0.0001" stop-color="#BD4FE3"/>
<stop offset="0.34375" stop-color="#F4C2F5"/>
<stop offset="0.760417" stop-color="#D9F1FC"/>
</linearGradient>
<linearGradient id="paint2_linear_62_2036" x1="440.543" y1="432.616" x2="419.742" y2="478.927" gradientUnits="userSpaceOnUse">
<stop stop-color="#D9F1FC"/>
<stop offset="0.0001" stop-color="#BD4FE3"/>
<stop offset="0.34375" stop-color="#F4C2F5"/>
<stop offset="0.760417" stop-color="#D9F1FC"/>
</linearGradient>
<linearGradient id="paint3_linear_62_2036" x1="440.543" y1="455.33" x2="419.742" y2="501.641" gradientUnits="userSpaceOnUse">
<stop stop-color="#D9F1FC"/>
<stop offset="0.0001" stop-color="#BD4FE3"/>
<stop offset="0.34375" stop-color="#F4C2F5"/>
<stop offset="0.760417" stop-color="#D9F1FC"/>
</linearGradient>
<clipPath id="clip0_62_2036">
<rect width="390" height="784" fill="white"/>
</clipPath>
</defs>
</svg>
