<svg width="8" height="9" viewBox="0 0 8 9" fill="none" xmlns="http://www.w3.org/2000/svg">
<path d="M2.39483 4.49722C2.39483 4.37686 2.35914 4.25921 2.29227 4.15913C2.2254 4.05906 2.13036 3.98106 2.01916 3.935C1.90797 3.88894 1.78561 3.87689 1.66756 3.90037C1.54951 3.92385 1.44108 3.98181 1.35597 4.06691C1.27087 4.15202 1.21291 4.26045 1.18943 4.3785C1.16595 4.49655 1.178 4.6189 1.22406 4.7301C1.27012 4.8413 1.34812 4.93634 1.44819 5.00321C1.54827 5.07008 1.66592 5.10577 1.78628 5.10577C1.94768 5.10577 2.10246 5.04165 2.21659 4.92753C2.33071 4.8134 2.39483 4.65862 2.39483 4.49722ZM5.43756 4.49722C5.43756 4.61758 5.47326 4.73524 5.54012 4.83531C5.60699 4.93539 5.70203 5.01339 5.81323 5.05945C5.92443 5.10551 6.04679 5.11756 6.16483 5.09408C6.28288 5.07059 6.39131 5.01264 6.47642 4.92753C6.56153 4.84242 6.61948 4.73399 6.64297 4.61594C6.66645 4.4979 6.65439 4.37554 6.60834 4.26434C6.56228 4.15314 6.48428 4.0581 6.3842 3.99123C6.28413 3.92437 6.16647 3.88867 6.04611 3.88867C5.88471 3.88867 5.72993 3.95279 5.6158 4.06691C5.50168 4.18104 5.43756 4.33582 5.43756 4.49722ZM3.30765 4.49722C3.30765 4.61758 3.34334 4.73524 3.41021 4.83531C3.47708 4.93539 3.57212 5.01339 3.68332 5.05945C3.79451 5.10551 3.91687 5.11756 4.03492 5.09408C4.15296 5.07059 4.2614 5.01264 4.3465 4.92753C4.43161 4.84242 4.48957 4.73399 4.51305 4.61594C4.53653 4.4979 4.52448 4.37554 4.47842 4.26434C4.43236 4.15314 4.35436 4.0581 4.25429 3.99123C4.15421 3.92437 4.03656 3.88867 3.9162 3.88867C3.7548 3.88867 3.60001 3.95279 3.48589 4.06691C3.37176 4.18104 3.30765 4.33582 3.30765 4.49722Z" fill="#646464"/>
</svg>
