<svg width="150" height="150" viewBox="0 0 150 150" fill="none" xmlns="http://www.w3.org/2000/svg">
<path d="M75 150C116.421 150 150 116.421 150 75C150 33.5786 116.421 0 75 0C33.5786 0 0 33.5786 0 75C0 116.421 33.5786 150 75 150Z" fill="#69F0AE"/>
<path d="M105.801 52.8435C104.562 51.6163 102.553 51.6163 101.314 52.8435L63.2984 90.4913L48.6859 76.0203C47.4468 74.793 45.4378 74.7931 44.1985 76.0203C42.9592 77.2474 42.9592 79.2369 44.1985 80.4641L61.0547 97.1569C62.2934 98.384 64.3038 98.3832 65.5421 97.1569L105.801 57.2875C107.04 56.0604 107.04 54.0708 105.801 52.8435Z" fill="white" stroke="white" stroke-width="4.88889"/>
</svg>
