<svg xmlns="http://www.w3.org/2000/svg" width="19" height="18" fill="none"><mask id="a" width="19" height="18" x="0" y="0" maskUnits="userSpaceOnUse" style="mask-type:luminance"><path fill="#fff" d="M18.479.014H.507v17.972h17.972V.014Z"/></mask><g mask="url(#a)"><path fill="#fff" d="m5.076 1.062 8.687 5.018-2.471 2.47L3.504.839c.15 0 .374-.075.524-.075.374 0 .749.075 1.048.3M2.081 15.29V2.71c0-.6.3-1.123.749-1.498l7.863 7.863-7.788 7.788a1.954 1.954 0 0 1-.824-1.573m2.995 1.723c-.449.224-.973.299-1.422.224l7.638-7.563 2.396 2.396-8.612 4.942Zm10.858-6.29-1.572.898-2.621-2.546 2.62-2.621 1.499.899c.599.374.973.973.973 1.722.075.599-.3 1.273-.899 1.647"/></g></svg>