<svg xmlns="http://www.w3.org/2000/svg" width="18" height="18" fill="none"><g clip-path="url(#a)"><path fill="#161616" d="m4.57 1.062 8.686 5.017-2.471 2.471L2.997.838c.15 0 .374-.075.524-.075.375 0 .749.075 1.049.3M1.574 15.29V2.71c0-.6.3-1.124.749-1.498l7.863 7.863-7.788 7.788a1.954 1.954 0 0 1-.824-1.573m2.996 1.722c-.45.225-.974.3-1.423.225l7.638-7.563 2.396 2.396-8.611 4.942Zm10.858-6.29-1.573.899-2.62-2.546 2.62-2.621 1.498.898c.599.375.973.974.973 1.723.075.599-.3 1.273-.899 1.647Z"/></g><defs><clipPath id="a"><path fill="#fff" d="M0 .014h17.972v17.972H0z"/></clipPath></defs></svg>