<svg width="19" height="19" viewBox="0 0 19 19" fill="none" xmlns="http://www.w3.org/2000/svg">
<path d="M14.0898 17.0601H12.2358C11.7908 17.0601 11.4941 16.7634 11.4941 16.3184C11.4941 15.8735 11.7908 15.5768 12.2358 15.5768H14.0898C15.0539 15.5768 15.7956 14.8352 15.7956 13.8711V12.017C15.7956 11.572 16.0922 11.2754 16.5372 11.2754C16.9822 11.2754 17.2788 11.572 17.2788 12.017V13.8711C17.2788 15.651 15.8697 17.0601 14.0898 17.0601Z" fill="white"/>
<path d="M7.4181 17.0601H5.6382C3.8583 17.0601 2.44922 15.651 2.44922 13.8711V12.017C2.44922 11.572 2.74587 11.2754 3.19084 11.2754C3.63582 11.2754 3.93247 11.572 3.93247 12.017V13.8711C3.93247 14.8352 4.67409 15.5768 5.6382 15.5768H7.49226C7.93724 15.5768 8.23389 15.8735 8.23389 16.3184C8.23389 16.7634 7.86307 17.0601 7.4181 17.0601Z" fill="white"/>
<path d="M3.19084 7.93804C2.74587 7.93804 2.44922 7.64139 2.44922 7.19642V5.41652C2.44922 3.63662 3.8583 2.22754 5.6382 2.22754H7.49226C7.93724 2.22754 8.23389 2.52419 8.23389 2.96916C8.23389 3.41414 7.93724 3.71079 7.49226 3.71079H5.6382C4.67409 3.71079 3.93247 4.45241 3.93247 5.41652V7.27058C3.93247 7.64139 3.63582 7.93804 3.19084 7.93804Z" fill="white"/>
<path d="M16.5372 7.93804C16.0922 7.93804 15.7956 7.64139 15.7956 7.19642V5.41652C15.7956 4.45241 15.0539 3.71079 14.0898 3.71079H12.2358C11.7908 3.71079 11.4941 3.41414 11.4941 2.96916C11.4941 2.52419 11.7908 2.22754 12.2358 2.22754H14.0898C15.8697 2.22754 17.2788 3.63662 17.2788 5.41652V7.27058C17.2788 7.64139 16.9822 7.93804 16.5372 7.93804Z" fill="white"/>
</svg>
