<svg width="14" height="14" viewBox="0 0 14 14" fill="none" xmlns="http://www.w3.org/2000/svg">
<path d="M10.2862 12.7867H8.90851C8.57786 12.7867 8.35742 12.5663 8.35742 12.2357C8.35742 11.905 8.57786 11.6846 8.90851 11.6846H10.2862C11.0026 11.6846 11.5537 11.1335 11.5537 10.4171V9.03936C11.5537 8.70871 11.7741 8.48828 12.1048 8.48828C12.4354 8.48828 12.6559 8.70871 12.6559 9.03936V10.4171C12.6559 11.7397 11.6088 12.7867 10.2862 12.7867Z" fill="#3D3D3D"/>
<path d="M5.32703 12.7867H4.00443C2.68182 12.7867 1.63477 11.7397 1.63477 10.4171V9.03936C1.63477 8.70871 1.8552 8.48828 2.18585 8.48828C2.5165 8.48828 2.73693 8.70871 2.73693 9.03936V10.4171C2.73693 11.1335 3.28802 11.6846 4.00443 11.6846H5.38214C5.71279 11.6846 5.93322 11.905 5.93322 12.2357C5.93322 12.5663 5.65768 12.7867 5.32703 12.7867Z" fill="#3D3D3D"/>
<path d="M2.18585 6.00897C1.8552 6.00897 1.63477 5.78854 1.63477 5.45789V4.13528C1.63477 2.81268 2.68182 1.76562 4.00443 1.76562H5.38214C5.71279 1.76562 5.93322 1.98606 5.93322 2.31671C5.93322 2.64736 5.71279 2.86779 5.38214 2.86779H4.00443C3.28802 2.86779 2.73693 3.41888 2.73693 4.13528V5.51299C2.73693 5.78854 2.5165 6.00897 2.18585 6.00897Z" fill="#3D3D3D"/>
<path d="M12.1048 6.00897C11.7741 6.00897 11.5537 5.78854 11.5537 5.45789V4.13528C11.5537 3.41888 11.0026 2.86779 10.2862 2.86779H8.90851C8.57786 2.86779 8.35742 2.64736 8.35742 2.31671C8.35742 1.98606 8.57786 1.76562 8.90851 1.76562H10.2862C11.6088 1.76562 12.6559 2.81268 12.6559 4.13528V5.51299C12.6559 5.78854 12.4354 6.00897 12.1048 6.00897Z" fill="#3D3D3D"/>
</svg>
