<svg width="28" height="28" viewBox="0 0 28 28" fill="none" xmlns="http://www.w3.org/2000/svg">
<path d="M14.7368 0L0.884211 13.8526C-0.294737 15.0316 -0.294737 16.8737 0.884211 18.0526L9.94737 27.1158C11.1263 28.2947 12.9684 28.2947 14.1474 27.1158L28 13.2632V2.94737C28 1.32632 26.6737 0 25.0526 0H14.7368ZM23.5789 5.89474C22.7684 5.89474 22.1053 5.23158 22.1053 4.42105C22.1053 3.61053 22.7684 2.94737 23.5789 2.94737C24.3895 2.94737 25.0526 3.61053 25.0526 4.42105C25.0526 5.23158 24.3895 5.89474 23.5789 5.89474Z" fill="#4CAF50"/>
<path d="M15.6383 18.4058C13.5752 20.469 11.3646 18.7742 10.9225 18.4058L9.74359 19.5847L8.85938 18.7005L10.0383 17.5216C9.74359 17.1532 7.75411 14.7216 10.3331 12.2163L12.0278 13.9111C11.7331 14.2058 10.5541 15.3847 11.8804 16.6374C12.9857 17.7426 13.8699 16.8584 14.0173 16.7111C15.8594 14.869 11.3646 11.8479 14.312 8.90053C16.0804 7.13211 18.291 8.16369 19.0278 8.82685L20.2804 7.57422L21.2383 8.53211L19.9857 9.78474C20.5015 10.4479 21.6804 12.5111 19.4699 14.7216L17.7752 13.0268C18.2173 12.5847 19.0278 11.4795 18.1436 10.5216C17.112 9.49001 16.2278 10.3742 16.0804 10.5216C14.091 12.4374 18.5857 15.4584 15.6383 18.4058Z" fill="white"/>
</svg>
