<svg width="10" height="11" viewBox="0 0 10 11" fill="none" xmlns="http://www.w3.org/2000/svg">
<path d="M7.75 0.640625C6.92155 0.640625 6.25 1.3122 6.25 2.14062C6.25 2.27286 6.2671 2.4011 6.29925 2.52325C6.2638 2.53057 6.22885 2.54318 6.19545 2.56141L4.81715 3.31319L3.06395 4.31503C3.04603 4.32527 3.02928 4.33676 3.01374 4.34934C2.79003 4.21674 2.52891 4.14062 2.25 4.14062C1.42158 4.14062 0.75 4.81217 0.75 5.64062C0.75 6.46907 1.42158 7.14062 2.25 7.14062C2.68704 7.14062 3.08042 6.95372 3.35458 6.65547L4.81785 7.46842L6.2951 8.27417C6.26565 8.39147 6.25 8.51422 6.25 8.64062C6.25 9.46907 6.92155 10.1406 7.75 10.1406C8.57845 10.1406 9.25 9.46907 9.25 8.64062C9.25 7.81217 8.57845 7.14062 7.75 7.14062C7.3178 7.14062 6.92825 7.32342 6.65455 7.61592L5.18085 6.81212L3.70815 5.99392C3.73551 5.88062 3.75 5.76232 3.75 5.64062C3.75 5.37077 3.67875 5.11757 3.55403 4.89882L5.18285 3.96805L6.55455 3.21983C6.5881 3.20155 6.6177 3.17889 6.6431 3.15295C6.91735 3.45266 7.31175 3.64062 7.75 3.64062C8.57845 3.64062 9.25 2.96905 9.25 2.14062C9.25 1.3122 8.57845 0.640625 7.75 0.640625Z" fill="#646464"/>
</svg>
