<svg xmlns="http://www.w3.org/2000/svg" width="399" height="534" fill="none"><path fill="#191931" d="M9.728 349.224c-1.493 0-2.837-.256-4.032-.768-1.195-.533-2.133-1.28-2.816-2.24-.683-.96-1.024-2.08-1.024-3.36H5.76c.085.96.459 1.749 1.12 2.368.683.619 1.632.928 2.848.928 1.259 0 2.24-.299 2.944-.896.704-.619 1.056-1.408 1.056-2.368 0-.747-.224-1.355-.672-1.824-.427-.469-.97-.832-1.632-1.088-.64-.256-1.536-.533-2.688-.832-1.45-.384-2.635-.768-3.552-1.152-.896-.405-1.664-1.024-2.304-1.856-.64-.832-.96-1.941-.96-3.328 0-1.28.32-2.4.96-3.36.64-.96 1.536-1.696 2.688-2.208 1.152-.512 2.485-.768 4-.768 2.155 0 3.915.544 5.28 1.632 1.387 1.067 2.155 2.539 2.304 4.416H13.12c-.064-.811-.448-1.504-1.152-2.08-.704-.576-1.632-.864-2.784-.864-1.045 0-1.899.267-2.56.8s-.992 1.301-.992 2.304c0 .683.203 1.248.608 1.696.427.427.96.768 1.6 1.024.64.256 1.515.533 2.624.832 1.472.405 2.667.811 3.584 1.216a5.799 5.799 0 0 1 2.368 1.888c.661.832.992 1.952.992 3.36 0 1.131-.31 2.197-.928 3.2-.597 1.003-1.483 1.813-2.656 2.432-1.152.597-2.517.896-4.096.896m16.24-14.88v9.76c0 .661.15 1.141.448 1.44.32.277.854.416 1.6.416h2.24V349h-2.88c-1.642 0-2.9-.384-3.776-1.152-.874-.768-1.312-2.016-1.312-3.744v-9.76h-2.08v-2.976h2.08v-4.384h3.68v4.384h4.288v2.976h-4.288m23.619-2.976V349h-3.648v-2.08c-.576.725-1.334 1.301-2.272 1.728a7.208 7.208 0 0 1-2.944.608c-1.387 0-2.635-.288-3.744-.864-1.088-.576-1.952-1.429-2.592-2.56-.619-1.131-.928-2.496-.928-4.096v-10.368h3.616v9.824c0 1.579.394 2.795 1.184 3.648.79.832 1.866 1.248 3.232 1.248 1.365 0 2.442-.416 3.232-1.248.81-.853 1.216-2.069 1.216-3.648v-9.824h3.648m3.597 8.736c0-1.771.363-3.339 1.088-4.704.747-1.365 1.75-2.421 3.008-3.168 1.28-.768 2.699-1.152 4.256-1.152 1.152 0 2.283.256 3.392.768 1.13.491 2.027 1.152 2.688 1.984v-8.512h3.68V349h-3.68v-2.656c-.597.853-1.43 1.557-2.496 2.112-1.045.555-2.25.832-3.616.832-1.536 0-2.944-.384-4.224-1.152-1.259-.789-2.261-1.877-3.008-3.264-.725-1.408-1.088-2.997-1.088-4.768m14.432.064c0-1.216-.256-2.272-.768-3.168-.49-.896-1.141-1.579-1.952-2.048a5.152 5.152 0 0 0-2.624-.704c-.939 0-1.813.235-2.624.704-.81.448-1.472 1.12-1.984 2.016-.49.875-.736 1.92-.736 3.136 0 1.216.245 2.283.736 3.2.512.917 1.173 1.621 1.984 2.112a5.267 5.267 0 0 0 2.624.704c.939 0 1.813-.235 2.624-.704.81-.469 1.461-1.152 1.952-2.048.512-.917.768-1.984.768-3.2m24.632-.416c0 .661-.043 1.259-.129 1.792H78.648c.107 1.408.63 2.539 1.569 3.392.938.853 2.09 1.28 3.456 1.28 1.962 0 3.349-.821 4.16-2.464h3.936c-.534 1.621-1.505 2.955-2.912 4-1.387 1.024-3.115 1.536-5.184 1.536-1.686 0-3.2-.373-4.544-1.12-1.323-.768-2.368-1.835-3.136-3.2-.747-1.387-1.12-2.987-1.12-4.8 0-1.813.362-3.403 1.088-4.768.746-1.387 1.78-2.453 3.104-3.2 1.344-.747 2.88-1.12 4.608-1.12 1.663 0 3.146.363 4.448 1.088a7.657 7.657 0 0 1 3.04 3.072c.725 1.301 1.088 2.805 1.088 4.512m-3.809-1.152c-.02-1.344-.5-2.421-1.44-3.232-.938-.811-2.1-1.216-3.487-1.216-1.26 0-2.337.405-3.233 1.216-.895.789-1.429 1.867-1.6 3.232h9.76m16.295-7.52c1.386 0 2.624.288 3.712.864 1.109.576 1.973 1.429 2.592 2.56.618 1.131.928 2.496.928 4.096V349h-3.616v-9.856c0-1.579-.395-2.784-1.184-3.616-.79-.853-1.867-1.28-3.232-1.28-1.366 0-2.454.427-3.264 1.28-.79.832-1.184 2.037-1.184 3.616V349h-3.648v-17.632h3.648v2.016a6.063 6.063 0 0 1 2.272-1.696 7.428 7.428 0 0 1 2.976-.608m16.141 3.264v9.76c0 .661.149 1.141.448 1.44.32.277.853.416 1.6.416h2.24V349h-2.88c-1.643 0-2.902-.384-3.776-1.152-.875-.768-1.312-2.016-1.312-3.744v-9.76h-2.08v-2.976h2.08v-4.384h3.68v4.384h4.288v2.976zm14.05 14.944c-1.387 0-2.635-.245-3.744-.736-1.088-.512-1.952-1.195-2.592-2.048a5.184 5.184 0 0 1-1.024-2.912h3.776c.064.747.416 1.376 1.056 1.888.661.491 1.483.736 2.464.736 1.024 0 1.813-.192 2.368-.576.576-.405.864-.917.864-1.536 0-.661-.32-1.152-.96-1.472-.619-.32-1.611-.672-2.976-1.056-1.323-.363-2.4-.715-3.232-1.056a5.8 5.8 0 0 1-2.176-1.568c-.597-.704-.896-1.632-.896-2.784 0-.939.277-1.792.832-2.56.555-.789 1.344-1.408 2.368-1.856 1.045-.448 2.24-.672 3.584-.672 2.005 0 3.616.512 4.832 1.536 1.237 1.003 1.899 2.379 1.984 4.128h-3.648c-.064-.789-.384-1.419-.96-1.888-.576-.469-1.355-.704-2.336-.704-.96 0-1.696.181-2.208.544-.512.363-.768.843-.768 1.44 0 .469.171.864.512 1.184.341.32.757.576 1.248.768.491.171 1.216.395 2.176.672 1.28.341 2.325.693 3.136 1.056a5.667 5.667 0 0 1 2.144 1.536c.597.683.907 1.589.928 2.72 0 1.003-.277 1.899-.832 2.688-.555.789-1.344 1.408-2.368 1.856-1.003.448-2.187.672-3.552.672m23.262-14.944v9.76c0 .661.15 1.141.448 1.44.32.277.854.416 1.6.416h2.24V349h-2.88c-1.642 0-2.901-.384-3.776-1.152-.874-.768-1.312-2.016-1.312-3.744v-9.76h-2.08v-2.976h2.08v-4.384h3.68v4.384h4.288v2.976zm11.299-.416a5.64 5.64 0 0 1 2.112-2.08c.896-.512 1.952-.768 3.168-.768v3.776h-.928c-1.43 0-2.518.363-3.264 1.088-.726.725-1.088 1.984-1.088 3.776V349h-3.648v-17.632h3.648zm24.601-2.56V349h-3.648v-2.08c-.576.725-1.334 1.301-2.272 1.728a7.211 7.211 0 0 1-2.944.608c-1.387 0-2.635-.288-3.744-.864-1.088-.576-1.952-1.429-2.592-2.56-.619-1.131-.928-2.496-.928-4.096v-10.368h3.616v9.824c0 1.579.394 2.795 1.184 3.648.789.832 1.866 1.248 3.232 1.248 1.365 0 2.442-.416 3.232-1.248.81-.853 1.216-2.069 1.216-3.648v-9.824zm11.213 17.92c-1.387 0-2.635-.245-3.744-.736-1.088-.512-1.952-1.195-2.592-2.048a5.184 5.184 0 0 1-1.024-2.912h3.776c.064.747.416 1.376 1.056 1.888.661.491 1.483.736 2.464.736 1.024 0 1.813-.192 2.368-.576.576-.405.864-.917.864-1.536 0-.661-.32-1.152-.96-1.472-.619-.32-1.611-.672-2.976-1.056-1.323-.363-2.4-.715-3.232-1.056a5.8 5.8 0 0 1-2.176-1.568c-.597-.704-.896-1.632-.896-2.784 0-.939.277-1.792.832-2.56.555-.789 1.344-1.408 2.368-1.856 1.045-.448 2.24-.672 3.584-.672 2.005 0 3.616.512 4.832 1.536 1.237 1.003 1.899 2.379 1.984 4.128h-3.648c-.064-.789-.384-1.419-.96-1.888-.576-.469-1.355-.704-2.336-.704-.96 0-1.696.181-2.208.544-.512.363-.768.843-.768 1.44 0 .469.171.864.512 1.184.341.32.757.576 1.248.768.491.171 1.216.395 2.176.672 1.28.341 2.325.693 3.136 1.056a5.667 5.667 0 0 1 2.144 1.536c.597.683.907 1.589.928 2.72 0 1.003-.277 1.899-.832 2.688-.555.789-1.344 1.408-2.368 1.856-1.003.448-2.187.672-3.552.672m14.95-14.944v9.76c0 .661.149 1.141.448 1.44.32.277.853.416 1.6.416h2.24V349h-2.88c-1.643 0-2.902-.384-3.776-1.152-.875-.768-1.312-2.016-1.312-3.744v-9.76h-2.08v-2.976h2.08v-4.384h3.68v4.384h4.288v2.976zm29.371 10.112h-9.312l-1.6 4.544h-3.808l7.968-22.272h4.224L255.061 349h-3.84zm-1.024-2.976-3.616-10.336-3.648 10.336zm21.832-3.904c1.195.213 2.208.843 3.04 1.888a5.551 5.551 0 0 1 1.248 3.552 5.51 5.51 0 0 1-.896 3.072c-.576.896-1.419 1.611-2.528 2.144-1.109.512-2.4.768-3.872.768h-8.896v-22.24h8.48c1.515 0 2.816.256 3.904.768s1.909 1.205 2.464 2.08c.555.853.832 1.813.832 2.88 0 1.28-.341 2.347-1.024 3.2-.683.853-1.6 1.483-2.752 1.888m-8.256-1.472h4.512c1.195 0 2.123-.267 2.784-.8.683-.555 1.024-1.344 1.024-2.368 0-1.003-.341-1.781-1.024-2.336-.661-.576-1.589-.864-2.784-.864h-4.512zm4.928 9.92c1.237 0 2.208-.299 2.912-.896.704-.597 1.056-1.429 1.056-2.496 0-1.088-.373-1.952-1.12-2.592-.747-.64-1.739-.96-2.976-.96h-4.8v6.944zm18.908 3.2c-1.493 0-2.837-.256-4.032-.768-1.194-.533-2.133-1.28-2.816-2.24-.682-.96-1.024-2.08-1.024-3.36h3.904c.086.96.459 1.749 1.12 2.368.683.619 1.632.928 2.848.928 1.259 0 2.24-.299 2.944-.896.704-.619 1.056-1.408 1.056-2.368 0-.747-.224-1.355-.672-1.824-.426-.469-.97-.832-1.632-1.088-.64-.256-1.536-.533-2.688-.832-1.45-.384-2.634-.768-3.552-1.152-.896-.405-1.664-1.024-2.304-1.856-.64-.832-.96-1.941-.96-3.328 0-1.28.32-2.4.96-3.36.64-.96 1.536-1.696 2.688-2.208 1.152-.512 2.486-.768 4-.768 2.155 0 3.915.544 5.28 1.632 1.387 1.067 2.155 2.539 2.304 4.416h-4.032c-.064-.811-.448-1.504-1.152-2.08-.704-.576-1.632-.864-2.784-.864-1.045 0-1.898.267-2.56.8-.661.533-.992 1.301-.992 2.304 0 .683.203 1.248.608 1.696.427.427.96.768 1.6 1.024.64.256 1.515.533 2.624.832 1.472.405 2.667.811 3.584 1.216a5.797 5.797 0 0 1 2.368 1.888c.662.832.992 1.952.992 3.36 0 1.131-.309 2.197-.928 3.2-.597 1.003-1.482 1.813-2.656 2.432-1.152.597-2.517.896-4.096.896"/><path fill="#2A2C37" fill-rule="evenodd" d="M12 411.6a9.602 9.602 0 0 0 9.6-9.6 9.6 9.6 0 1 0-9.6 9.6m4.448-11.152a1.198 1.198 0 0 0-.852-2.033 1.197 1.197 0 0 0-.844.337l-3.952 3.951-1.552-1.551a1.197 1.197 0 0 0-1.682.014 1.202 1.202 0 0 0-.014 1.682l2.4 2.4a1.2 1.2 0 0 0 1.696 0l4.8-4.8" clip-rule="evenodd"/><path fill="#161616" d="M32.688 402.416c0-1.088.245-2.064.736-2.928a5.349 5.349 0 0 1 2-2.048c.853-.491 1.797-.736 2.832-.736 1.216 0 2.277.293 3.184.88s1.568 1.419 1.984 2.496H41.68c-.31-.672-.757-1.189-1.344-1.552-.576-.363-1.27-.544-2.08-.544-.779 0-1.477.181-2.096.544a3.794 3.794 0 0 0-1.456 1.552c-.352.661-.528 1.44-.528 2.336 0 .885.176 1.664.528 2.336a3.82 3.82 0 0 0 1.456 1.536c.619.363 1.317.544 2.096.544.81 0 1.504-.176 2.08-.528.587-.363 1.035-.88 1.344-1.552h1.744c-.416 1.067-1.077 1.893-1.984 2.48-.907.576-1.968.864-3.184.864-1.035 0-1.979-.24-2.832-.72a5.383 5.383 0 0 1-2-2.032c-.49-.864-.736-1.84-.736-2.928m17.28-3.344a3.71 3.71 0 0 1 1.791.432c.534.277.95.699 1.248 1.264.31.565.464 1.253.464 2.064V408h-1.44v-4.96c0-.875-.218-1.541-.656-2-.437-.469-1.034-.704-1.792-.704-.768 0-1.381.24-1.84.72-.448.48-.672 1.179-.672 2.096V408h-1.456v-11.84h1.456v4.32a2.877 2.877 0 0 1 1.184-1.04 3.916 3.916 0 0 1 1.712-.368m5.362 4.512c0-.896.181-1.68.544-2.352a3.947 3.947 0 0 1 1.488-1.584 4.15 4.15 0 0 1 2.128-.56c.768 0 1.434.165 2 .496.565.331.986.747 1.264 1.248v-1.6h1.472V408h-1.472v-1.632c-.288.512-.72.939-1.296 1.28-.566.331-1.227.496-1.984.496a3.974 3.974 0 0 1-2.112-.576 4.041 4.041 0 0 1-1.488-1.616c-.363-.693-.544-1.483-.544-2.368m7.424.016c0-.661-.134-1.237-.4-1.728a2.752 2.752 0 0 0-1.088-1.12 2.851 2.851 0 0 0-1.488-.4c-.544 0-1.04.128-1.488.384a2.783 2.783 0 0 0-1.072 1.12c-.267.491-.4 1.067-.4 1.728 0 .672.133 1.259.4 1.76a2.9 2.9 0 0 0 1.072 1.136c.448.256.944.384 1.488.384s1.04-.128 1.488-.384a2.864 2.864 0 0 0 1.088-1.136c.266-.501.4-1.083.4-1.744m8.228-4.528c1.067 0 1.93.325 2.592.976.662.64.992 1.568.992 2.784V408h-1.44v-4.96c0-.875-.218-1.541-.656-2-.437-.469-1.034-.704-1.792-.704-.768 0-1.381.24-1.84.72-.448.48-.672 1.179-.672 2.096V408H66.71v-8.768h1.456v1.248a2.9 2.9 0 0 1 1.168-1.04 3.703 3.703 0 0 1 1.648-.368m9.603.016c.757 0 1.418.165 1.984.496.576.331 1.002.747 1.28 1.248v-1.6h1.472v8.96c0 .8-.171 1.509-.512 2.128a3.625 3.625 0 0 1-1.472 1.472c-.63.352-1.366.528-2.208.528-1.152 0-2.112-.272-2.88-.816-.768-.544-1.222-1.285-1.36-2.224h1.44c.16.533.49.96.992 1.28.501.331 1.104.496 1.808.496.8 0 1.45-.251 1.952-.752.512-.501.768-1.205.768-2.112v-1.84c-.288.512-.715.939-1.28 1.28-.566.341-1.227.512-1.984.512a4.057 4.057 0 0 1-2.128-.576 4.043 4.043 0 0 1-1.488-1.616c-.363-.693-.544-1.483-.544-2.368 0-.896.181-1.68.544-2.352a3.948 3.948 0 0 1 1.488-1.584 4.15 4.15 0 0 1 2.128-.56m3.264 4.512c0-.661-.134-1.237-.4-1.728a2.751 2.751 0 0 0-1.088-1.12 2.851 2.851 0 0 0-1.488-.4c-.544 0-1.04.128-1.488.384a2.784 2.784 0 0 0-1.072 1.12c-.267.491-.4 1.067-.4 1.728 0 .672.133 1.259.4 1.76a2.9 2.9 0 0 0 1.072 1.136c.448.256.944.384 1.488.384s1.04-.128 1.488-.384a2.863 2.863 0 0 0 1.088-1.136c.266-.501.4-1.083.4-1.744m11.956-.32c0 .277-.016.571-.048.88H88.75c.053.864.347 1.541.88 2.032.544.48 1.2.72 1.968.72.63 0 1.152-.144 1.568-.432.427-.299.725-.693.896-1.184h1.568a3.805 3.805 0 0 1-1.408 2.064c-.704.523-1.579.784-2.624.784-.832 0-1.578-.187-2.24-.56A3.99 3.99 0 0 1 87.821 406c-.373-.693-.56-1.493-.56-2.4 0-.907.181-1.701.544-2.384a3.782 3.782 0 0 1 1.52-1.568c.662-.373 1.419-.56 2.272-.56.832 0 1.568.181 2.208.544.64.363 1.13.864 1.472 1.504.352.629.528 1.344.528 2.144m-1.504-.304c0-.555-.123-1.029-.368-1.424a2.32 2.32 0 0 0-1.008-.912 3.01 3.01 0 0 0-1.392-.32c-.736 0-1.365.235-1.888.704-.512.469-.805 1.12-.88 1.952h5.536m11.564 5.168a4.536 4.536 0 0 1-2.24-.56 4.061 4.061 0 0 1-1.568-1.584c-.374-.693-.56-1.493-.56-2.4 0-.896.192-1.685.576-2.368a4.009 4.009 0 0 1 1.6-1.584c.672-.373 1.424-.56 2.256-.56.832 0 1.584.187 2.256.56.672.363 1.2.885 1.584 1.568.394.683.592 1.477.592 2.384 0 .907-.203 1.707-.608 2.4a4.121 4.121 0 0 1-1.616 1.584c-.683.373-1.44.56-2.272.56m0-1.28c.522 0 1.013-.123 1.472-.368a2.753 2.753 0 0 0 1.104-1.104c.288-.491.432-1.088.432-1.792s-.139-1.301-.416-1.792c-.278-.491-.64-.853-1.088-1.088a2.988 2.988 0 0 0-1.456-.368c-.534 0-1.024.123-1.472.368-.438.235-.79.597-1.056 1.088-.267.491-.4 1.088-.4 1.792 0 .715.128 1.317.384 1.808.266.491.618.859 1.056 1.104.437.235.917.352 1.44.352m10.002-6.432h-1.84V408h-1.456v-7.568h-1.136v-1.2h1.136v-.624c0-.981.251-1.696.752-2.144.512-.459 1.328-.688 2.448-.688v1.216c-.64 0-1.093.128-1.36.384-.256.245-.384.656-.384 1.232v.624h1.84zm7.467-4.272V408h-1.456v-11.84zm3.258 1.648a.957.957 0 0 1-.704-.288.958.958 0 0 1-.288-.704c0-.277.096-.512.288-.704a.957.957 0 0 1 .704-.288.89.89 0 0 1 .672.288.958.958 0 0 1 .288.704.958.958 0 0 1-.288.704.89.89 0 0 1-.672.288m.704 1.424V408h-1.456v-8.768zm13.049-.16c.683 0 1.291.144 1.824.432.534.277.955.699 1.264 1.264.31.565.464 1.253.464 2.064V408h-1.44v-4.96c0-.875-.218-1.541-.656-2-.426-.469-1.008-.704-1.744-.704-.757 0-1.36.245-1.808.736-.448.48-.672 1.179-.672 2.096V408h-1.44v-4.96c0-.875-.218-1.541-.656-2-.426-.469-1.008-.704-1.744-.704-.757 0-1.36.245-1.808.736-.448.48-.672 1.179-.672 2.096V408h-1.456v-8.768h1.456v1.264a2.886 2.886 0 0 1 1.152-1.056 3.57 3.57 0 0 1 1.616-.368c.736 0 1.387.165 1.952.496.566.331.987.816 1.264 1.456a2.878 2.878 0 0 1 1.216-1.44 3.588 3.588 0 0 1 1.888-.512m6.717-1.264a.957.957 0 0 1-.704-.288.958.958 0 0 1-.288-.704c0-.277.096-.512.288-.704a.957.957 0 0 1 .704-.288.89.89 0 0 1 .672.288.958.958 0 0 1 .288.704.958.958 0 0 1-.288.704.89.89 0 0 1-.672.288m.704 1.424V408h-1.456v-8.768zm4.281 1.2v5.168c0 .427.091.731.272.912.181.171.496.256.944.256h1.072V408h-1.312c-.811 0-1.419-.187-1.824-.56-.405-.373-.608-.987-.608-1.84v-5.168h-1.136v-1.2h1.136v-2.208h1.456v2.208h2.288v1.2zm7.18 7.712c-.672 0-1.274-.112-1.808-.336-.533-.235-.954-.555-1.264-.96a2.598 2.598 0 0 1-.512-1.424h1.504c.043.437.246.795.608 1.072.374.277.859.416 1.456.416.555 0 .992-.123 1.312-.368.32-.245.48-.555.48-.928a.897.897 0 0 0-.512-.848c-.341-.192-.869-.379-1.584-.56a13.074 13.074 0 0 1-1.6-.512 3.044 3.044 0 0 1-1.056-.784c-.288-.352-.432-.811-.432-1.376 0-.448.134-.859.4-1.232.267-.373.646-.667 1.136-.88.491-.224 1.051-.336 1.68-.336.971 0 1.755.245 2.352.736.598.491.918 1.163.96 2.016h-1.456c-.032-.459-.218-.827-.56-1.104-.33-.277-.778-.416-1.344-.416-.522 0-.938.112-1.248.336-.309.224-.464.517-.464.88 0 .288.091.528.272.72.192.181.427.331.704.448.288.107.683.229 1.184.368.63.171 1.142.341 1.536.512.395.16.731.405 1.008.736.288.331.438.763.448 1.296 0 .48-.133.912-.4 1.296-.266.384-.645.688-1.136.912-.48.213-1.034.32-1.664.32"/><path fill="#2A2C37" fill-rule="evenodd" d="M12 451.6a9.602 9.602 0 0 0 9.6-9.6 9.6 9.6 0 1 0-9.6 9.6m4.448-11.152a1.198 1.198 0 0 0-.852-2.033 1.197 1.197 0 0 0-.844.337l-3.952 3.951-1.552-1.551a1.197 1.197 0 0 0-1.682.014 1.202 1.202 0 0 0-.014 1.682l2.4 2.4a1.2 1.2 0 0 0 1.696 0l4.8-4.8" clip-rule="evenodd"/><path fill="#161616" d="M32.688 442.416c0-1.088.245-2.064.736-2.928a5.349 5.349 0 0 1 2-2.048c.853-.491 1.797-.736 2.832-.736 1.216 0 2.277.293 3.184.88s1.568 1.419 1.984 2.496H41.68c-.31-.672-.757-1.189-1.344-1.552-.576-.363-1.27-.544-2.08-.544-.779 0-1.477.181-2.096.544a3.794 3.794 0 0 0-1.456 1.552c-.352.661-.528 1.44-.528 2.336 0 .885.176 1.664.528 2.336a3.82 3.82 0 0 0 1.456 1.536c.619.363 1.317.544 2.096.544.81 0 1.504-.176 2.08-.528.587-.363 1.035-.88 1.344-1.552h1.744c-.416 1.067-1.077 1.893-1.984 2.48-.907.576-1.968.864-3.184.864-1.035 0-1.979-.24-2.832-.72a5.383 5.383 0 0 1-2-2.032c-.49-.864-.736-1.84-.736-2.928m17.28-3.344a3.71 3.71 0 0 1 1.791.432c.534.277.95.699 1.248 1.264.31.565.464 1.253.464 2.064V448h-1.44v-4.96c0-.875-.218-1.541-.656-2-.437-.469-1.034-.704-1.792-.704-.768 0-1.381.24-1.84.72-.448.48-.672 1.179-.672 2.096V448h-1.456v-11.84h1.456v4.32a2.877 2.877 0 0 1 1.184-1.04 3.916 3.916 0 0 1 1.712-.368m5.362 4.512c0-.896.181-1.68.544-2.352a3.947 3.947 0 0 1 1.488-1.584 4.15 4.15 0 0 1 2.128-.56c.768 0 1.434.165 2 .496.565.331.986.747 1.264 1.248v-1.6h1.472V448h-1.472v-1.632c-.288.512-.72.939-1.296 1.28-.566.331-1.227.496-1.984.496a3.974 3.974 0 0 1-2.112-.576 4.041 4.041 0 0 1-1.488-1.616c-.363-.693-.544-1.483-.544-2.368m7.424.016c0-.661-.134-1.237-.4-1.728a2.752 2.752 0 0 0-1.088-1.12 2.851 2.851 0 0 0-1.488-.4c-.544 0-1.04.128-1.488.384a2.783 2.783 0 0 0-1.072 1.12c-.267.491-.4 1.067-.4 1.728 0 .672.133 1.259.4 1.76a2.9 2.9 0 0 0 1.072 1.136c.448.256.944.384 1.488.384s1.04-.128 1.488-.384a2.864 2.864 0 0 0 1.088-1.136c.266-.501.4-1.083.4-1.744m8.228-4.528c1.067 0 1.93.325 2.592.976.662.64.992 1.568.992 2.784V448h-1.44v-4.96c0-.875-.218-1.541-.656-2-.437-.469-1.034-.704-1.792-.704-.768 0-1.381.24-1.84.72-.448.48-.672 1.179-.672 2.096V448H66.71v-8.768h1.456v1.248a2.9 2.9 0 0 1 1.168-1.04 3.703 3.703 0 0 1 1.648-.368m9.603.016c.757 0 1.418.165 1.984.496.576.331 1.002.747 1.28 1.248v-1.6h1.472v8.96c0 .8-.171 1.509-.512 2.128a3.625 3.625 0 0 1-1.472 1.472c-.63.352-1.366.528-2.208.528-1.152 0-2.112-.272-2.88-.816-.768-.544-1.222-1.285-1.36-2.224h1.44c.16.533.49.96.992 1.28.501.331 1.104.496 1.808.496.8 0 1.45-.251 1.952-.752.512-.501.768-1.205.768-2.112v-1.84c-.288.512-.715.939-1.28 1.28-.566.341-1.227.512-1.984.512a4.057 4.057 0 0 1-2.128-.576 4.043 4.043 0 0 1-1.488-1.616c-.363-.693-.544-1.483-.544-2.368 0-.896.181-1.68.544-2.352a3.948 3.948 0 0 1 1.488-1.584 4.15 4.15 0 0 1 2.128-.56m3.264 4.512c0-.661-.134-1.237-.4-1.728a2.751 2.751 0 0 0-1.088-1.12 2.851 2.851 0 0 0-1.488-.4c-.544 0-1.04.128-1.488.384a2.784 2.784 0 0 0-1.072 1.12c-.267.491-.4 1.067-.4 1.728 0 .672.133 1.259.4 1.76a2.9 2.9 0 0 0 1.072 1.136c.448.256.944.384 1.488.384s1.04-.128 1.488-.384a2.863 2.863 0 0 0 1.088-1.136c.266-.501.4-1.083.4-1.744m11.956-.32c0 .277-.016.571-.048.88H88.75c.053.864.347 1.541.88 2.032.544.48 1.2.72 1.968.72.63 0 1.152-.144 1.568-.432.427-.299.725-.693.896-1.184h1.568a3.805 3.805 0 0 1-1.408 2.064c-.704.523-1.579.784-2.624.784-.832 0-1.578-.187-2.24-.56A3.99 3.99 0 0 1 87.821 446c-.373-.693-.56-1.493-.56-2.4 0-.907.181-1.701.544-2.384a3.782 3.782 0 0 1 1.52-1.568c.662-.373 1.419-.56 2.272-.56.832 0 1.568.181 2.208.544.64.363 1.13.864 1.472 1.504.352.629.528 1.344.528 2.144m-1.504-.304c0-.555-.123-1.029-.368-1.424a2.32 2.32 0 0 0-1.008-.912 3.01 3.01 0 0 0-1.392-.32c-.736 0-1.365.235-1.888.704-.512.469-.805 1.12-.88 1.952h5.536m11.564 5.168a4.536 4.536 0 0 1-2.24-.56 4.061 4.061 0 0 1-1.568-1.584c-.374-.693-.56-1.493-.56-2.4 0-.896.192-1.685.576-2.368a4.009 4.009 0 0 1 1.6-1.584c.672-.373 1.424-.56 2.256-.56.832 0 1.584.187 2.256.56.672.363 1.2.885 1.584 1.568.394.683.592 1.477.592 2.384 0 .907-.203 1.707-.608 2.4a4.121 4.121 0 0 1-1.616 1.584c-.683.373-1.44.56-2.272.56m0-1.28c.522 0 1.013-.123 1.472-.368a2.753 2.753 0 0 0 1.104-1.104c.288-.491.432-1.088.432-1.792s-.139-1.301-.416-1.792c-.278-.491-.64-.853-1.088-1.088a2.988 2.988 0 0 0-1.456-.368c-.534 0-1.024.123-1.472.368-.438.235-.79.597-1.056 1.088-.267.491-.4 1.088-.4 1.792 0 .715.128 1.317.384 1.808.266.491.618.859 1.056 1.104.437.235.917.352 1.44.352m10.002-6.432h-1.84V448h-1.456v-7.568h-1.136v-1.2h1.136v-.624c0-.981.251-1.696.752-2.144.512-.459 1.328-.688 2.448-.688v1.216c-.64 0-1.093.128-1.36.384-.256.245-.384.656-.384 1.232v.624h1.84zm7.467-4.272V448h-1.456v-11.84zm3.258 1.648a.957.957 0 0 1-.704-.288.958.958 0 0 1-.288-.704c0-.277.096-.512.288-.704a.957.957 0 0 1 .704-.288.89.89 0 0 1 .672.288.958.958 0 0 1 .288.704.958.958 0 0 1-.288.704.89.89 0 0 1-.672.288m.704 1.424V448h-1.456v-8.768zm13.049-.16c.683 0 1.291.144 1.824.432.534.277.955.699 1.264 1.264.31.565.464 1.253.464 2.064V448h-1.44v-4.96c0-.875-.218-1.541-.656-2-.426-.469-1.008-.704-1.744-.704-.757 0-1.36.245-1.808.736-.448.48-.672 1.179-.672 2.096V448h-1.44v-4.96c0-.875-.218-1.541-.656-2-.426-.469-1.008-.704-1.744-.704-.757 0-1.36.245-1.808.736-.448.48-.672 1.179-.672 2.096V448h-1.456v-8.768h1.456v1.264a2.886 2.886 0 0 1 1.152-1.056 3.57 3.57 0 0 1 1.616-.368c.736 0 1.387.165 1.952.496.566.331.987.816 1.264 1.456a2.878 2.878 0 0 1 1.216-1.44 3.588 3.588 0 0 1 1.888-.512m6.717-1.264a.957.957 0 0 1-.704-.288.958.958 0 0 1-.288-.704c0-.277.096-.512.288-.704a.957.957 0 0 1 .704-.288.89.89 0 0 1 .672.288.958.958 0 0 1 .288.704.958.958 0 0 1-.288.704.89.89 0 0 1-.672.288m.704 1.424V448h-1.456v-8.768zm4.281 1.2v5.168c0 .427.091.731.272.912.181.171.496.256.944.256h1.072V448h-1.312c-.811 0-1.419-.187-1.824-.56-.405-.373-.608-.987-.608-1.84v-5.168h-1.136v-1.2h1.136v-2.208h1.456v2.208h2.288v1.2zm7.18 7.712c-.672 0-1.274-.112-1.808-.336-.533-.235-.954-.555-1.264-.96a2.598 2.598 0 0 1-.512-1.424h1.504c.043.437.246.795.608 1.072.374.277.859.416 1.456.416.555 0 .992-.123 1.312-.368.32-.245.48-.555.48-.928a.897.897 0 0 0-.512-.848c-.341-.192-.869-.379-1.584-.56a13.074 13.074 0 0 1-1.6-.512 3.044 3.044 0 0 1-1.056-.784c-.288-.352-.432-.811-.432-1.376 0-.448.134-.859.4-1.232.267-.373.646-.667 1.136-.88.491-.224 1.051-.336 1.68-.336.971 0 1.755.245 2.352.736.598.491.918 1.163.96 2.016h-1.456c-.032-.459-.218-.827-.56-1.104-.33-.277-.778-.416-1.344-.416-.522 0-.938.112-1.248.336-.309.224-.464.517-.464.88 0 .288.091.528.272.72.192.181.427.331.704.448.288.107.683.229 1.184.368.63.171 1.142.341 1.536.512.395.16.731.405 1.008.736.288.331.438.763.448 1.296 0 .48-.133.912-.4 1.296-.266.384-.645.688-1.136.912-.48.213-1.034.32-1.664.32"/><path fill="#2A2C37" fill-rule="evenodd" d="M12 491.6a9.602 9.602 0 0 0 9.6-9.6 9.6 9.6 0 1 0-9.6 9.6m4.448-11.152a1.198 1.198 0 0 0-.852-2.033 1.197 1.197 0 0 0-.844.337l-3.952 3.951-1.552-1.551a1.197 1.197 0 0 0-1.682.014 1.202 1.202 0 0 0-.014 1.682l2.4 2.4a1.2 1.2 0 0 0 1.696 0l4.8-4.8" clip-rule="evenodd"/><path fill="#2A2C37" d="M34.512 483.916v-1.344h3.728c.619 0 1.115-.187 1.488-.56.384-.373.576-.864.576-1.472 0-.629-.192-1.125-.576-1.488-.373-.363-.87-.544-1.488-.544h-3.472v8.992h-1.536v-10.384h4.944c.512 0 .987.075 1.424.224.448.139.837.352 1.168.64.341.288.603.645.784 1.072.192.427.288.923.288 1.488 0 .555-.096 1.045-.288 1.472a2.823 2.823 0 0 1-.784 1.072c-.33.277-.72.485-1.168.624a4.678 4.678 0 0 1-1.424.208zm12.073 3.744a3.472 3.472 0 0 1-1.872-.528 3.767 3.767 0 0 1-1.344-1.456c-.33-.629-.496-1.349-.496-2.16 0-.811.166-1.525.496-2.144a3.78 3.78 0 0 1 1.392-1.472 3.664 3.664 0 0 1 1.968-.544c.8 0 1.419.187 1.856.56.448.373.758.875.928 1.504.182.629.272 1.328.272 2.096 0 .427-.053.88-.16 1.36-.106.48-.277.933-.512 1.36a2.85 2.85 0 0 1-.976 1.04c-.416.256-.933.384-1.552.384m.432-1.328c.566 0 1.04-.123 1.424-.368.395-.256.688-.597.88-1.024.192-.427.288-.901.288-1.424 0-.565-.101-1.061-.304-1.488a2.153 2.153 0 0 0-.88-.992c-.384-.235-.853-.352-1.408-.352-.832 0-1.477.267-1.936.8-.448.533-.672 1.211-.672 2.032 0 .555.112 1.045.336 1.472.224.416.528.747.912.992.395.235.848.352 1.36.352m2.592-6.816h1.536v7.984h-1.408l-.032-.288a26.032 26.032 0 0 1-.064-.72 9.687 9.687 0 0 1-.032-.736v-6.24m2.82 0h1.632l3.056 7.664-1.328.32-3.36-7.984m8.144 0L55.789 490.7h-1.616l2.064-4.336 2.72-6.848h1.616m1.31 0h1.536v7.984h-1.536zm4.576-.16c.448 0 .853.064 1.216.192s.672.32.928.576c.256.245.453.555.592.928.15.363.224.779.224 1.248v5.2h-1.52v-4.864c0-.629-.155-1.099-.464-1.408-.299-.32-.757-.48-1.376-.48-.48 0-.917.112-1.312.336-.395.224-.72.523-.976.896a2.726 2.726 0 0 0-.448 1.232l-.016-.88c.053-.427.165-.821.336-1.184.181-.363.405-.677.672-.944.277-.277.597-.485.96-.624a3.086 3.086 0 0 1 1.184-.224m5.856 0c.448 0 .853.064 1.216.192s.672.32.928.576c.256.245.453.555.592.928.15.363.224.779.224 1.248v5.2h-1.52v-4.864c0-.629-.155-1.099-.464-1.408-.299-.32-.757-.48-1.376-.48-.48 0-.917.112-1.312.336-.395.224-.72.523-.976.896a2.726 2.726 0 0 0-.448 1.232l-.016-.896a3.71 3.71 0 0 1 .336-1.168c.181-.363.41-.677.688-.944.277-.277.597-.485.96-.624a3.044 3.044 0 0 1 1.168-.224m11.134 5.552h1.456a3.09 3.09 0 0 1-.608 1.408c-.32.416-.741.747-1.264.992-.522.245-1.136.368-1.84.368-.832 0-1.573-.176-2.224-.528a3.954 3.954 0 0 1-1.536-1.456c-.373-.619-.56-1.339-.56-2.16 0-.832.182-1.557.544-2.176a3.84 3.84 0 0 1 1.504-1.472c.64-.352 1.37-.528 2.192-.528.864 0 1.59.171 2.176.512.587.341 1.019.848 1.296 1.52.288.661.406 1.488.352 2.48h-6.544c.054.48.198.907.432 1.28.246.373.566.667.96.88.406.213.87.32 1.392.32.587 0 1.078-.133 1.472-.4.395-.267.662-.613.8-1.04m-2.32-4.24c-.693 0-1.27.187-1.728.56-.458.363-.762.848-.912 1.456h4.912c-.042-.651-.277-1.147-.704-1.488-.426-.352-.95-.528-1.568-.528m5.426-1.152h1.536v7.984h-1.536v-7.984m4.576-.16c.448 0 .853.064 1.216.192s.672.32.928.576c.256.245.453.555.592.928.15.363.224.779.224 1.248v5.2h-1.52v-4.864c0-.629-.155-1.099-.464-1.408-.299-.32-.757-.48-1.376-.48-.48 0-.917.112-1.312.336-.395.224-.72.523-.976.896a2.725 2.725 0 0 0-.448 1.232l-.016-.88c.053-.427.165-.821.336-1.184.181-.363.405-.677.672-.944.277-.277.597-.485.96-.624a3.085 3.085 0 0 1 1.184-.224m4.41.16h5.169v1.328h-5.168v-1.328m1.825-2.112h1.52V487.5h-1.52v-10.096m12.17 10.272a4.66 4.66 0 0 1-2.144-.496 3.84 3.84 0 0 1-1.552-1.424c-.384-.619-.576-1.36-.576-2.224 0-.875.192-1.621.576-2.24a3.81 3.81 0 0 1 1.552-1.44 4.66 4.66 0 0 1 2.144-.496c.779 0 1.488.165 2.128.496.64.331 1.152.811 1.536 1.44.384.619.576 1.365.576 2.24 0 .864-.192 1.605-.576 2.224a3.868 3.868 0 0 1-1.536 1.424 4.561 4.561 0 0 1-2.128.496m0-1.328c.48 0 .923-.107 1.328-.32a2.52 2.52 0 0 0 .992-.96c.256-.427.384-.939.384-1.536 0-.608-.128-1.125-.384-1.552a2.489 2.489 0 0 0-.992-.976 2.7 2.7 0 0 0-1.328-.336c-.48 0-.928.112-1.344.336a2.484 2.484 0 0 0-1.008.96c-.256.427-.384.949-.384 1.568 0 .597.123 1.109.368 1.536.256.416.592.736 1.008.96.416.213.869.32 1.36.32m5.146-6.784h5.232v1.312h-5.232zm4.368-3.248h1.024v1.408h-.864a1.892 1.892 0 0 0-.752.112.972.972 0 0 0-.528.416c-.117.203-.176.496-.176.88v8.368h-1.52v-8.448c0-.64.112-1.163.336-1.568.235-.405.566-.699.992-.88.427-.192.923-.288 1.488-.288m13.275 11.184h-1.52v-7.984h1.52zm-1.44-3.76.016.48c-.01.139-.048.347-.112.624-.053.267-.149.56-.288.88-.128.32-.309.629-.544.928a2.641 2.641 0 0 1-.864.736c-.352.192-.778.288-1.28.288-.341 0-.693-.048-1.056-.144a2.878 2.878 0 0 1-.976-.48 2.4 2.4 0 0 1-.72-.912c-.181-.395-.272-.885-.272-1.472v-5.152h1.536v4.832c0 .491.075.875.224 1.152.16.277.384.475.672.592.288.117.614.176.976.176.555 0 1.019-.133 1.392-.4.384-.277.683-.608.896-.992a3.44 3.44 0 0 0 .4-1.136m2.891-4.224h5.168v1.328h-5.168zm1.824-2.112h1.52V487.5h-1.52zm6.639-1.184v1.648h-1.904v-1.648zm-1.712 3.296h1.52v7.984h-1.52zm3.844-3.2h1.536V487.5h-1.536zm5.571-.096v1.648h-1.904v-1.648zm-1.712 3.296h1.52v7.984h-1.52zm3.124 0h5.168v1.328h-5.168zm1.824-2.112h1.52V487.5h-1.52zm4.079 2.112h1.632l3.056 7.664-1.328.32zm8.144 0-4.784 11.184h-1.616l2.064-4.336 2.72-6.848zm4.474 5.392h1.408c.053.427.245.779.576 1.056.33.267.794.4 1.392.4.384 0 .682-.043.896-.128.213-.096.362-.224.448-.384.096-.16.144-.336.144-.528 0-.245-.064-.432-.192-.56a1.353 1.353 0 0 0-.544-.336 6.904 6.904 0 0 0-.832-.272 13.43 13.43 0 0 1-1.056-.336 5.49 5.49 0 0 1-.976-.464 2.345 2.345 0 0 1-.704-.672c-.171-.277-.256-.613-.256-1.008 0-.331.069-.64.208-.928.149-.288.357-.533.624-.736.277-.213.597-.373.96-.48a3.886 3.886 0 0 1 1.2-.176c.608 0 1.12.112 1.536.336.416.213.73.517.944.912.224.395.341.848.352 1.36h-1.344c-.075-.448-.23-.773-.464-.976-.235-.213-.587-.32-1.056-.32-.459 0-.811.091-1.056.272a.866.866 0 0 0-.368.736c0 .235.085.427.256.576.17.139.4.261.688.368.288.107.613.219.976.336.341.117.666.24.976.368.32.117.602.261.848.432.256.16.453.373.592.64.149.256.224.576.224.96 0 .469-.118.88-.352 1.232-.235.341-.576.608-1.024.8-.438.192-.971.288-1.6.288-.576 0-1.067-.069-1.472-.208a3.361 3.361 0 0 1-1.008-.544 2.898 2.898 0 0 1-.624-.704 2.881 2.881 0 0 1-.288-.736 1.832 1.832 0 0 1-.032-.576m14.168 0h1.456a3.085 3.085 0 0 1-.608 1.408c-.32.416-.741.747-1.264.992s-1.136.368-1.84.368c-.832 0-1.573-.176-2.224-.528a3.95 3.95 0 0 1-1.536-1.456c-.373-.619-.56-1.339-.56-2.16 0-.832.181-1.557.544-2.176a3.842 3.842 0 0 1 1.504-1.472c.64-.352 1.371-.528 2.192-.528.864 0 1.589.171 2.176.512.587.341 1.019.848 1.296 1.52.288.661.405 1.488.352 2.48h-6.544c.053.48.197.907.432 1.28.245.373.565.667.96.88.405.213.869.32 1.392.32.587 0 1.077-.133 1.472-.4s.661-.613.8-1.04m-2.32-4.24c-.693 0-1.269.187-1.728.56-.459.363-.763.848-.912 1.456h4.912c-.043-.651-.277-1.147-.704-1.488-.427-.352-.949-.528-1.568-.528m5.426-1.152h1.536v7.984h-1.536zm4.24 1.36c-.555 0-1.03.128-1.424.384a3.126 3.126 0 0 0-.928.944 3.582 3.582 0 0 0-.448 1.072l-.016-.912c.01-.107.037-.272.08-.496.053-.235.144-.496.272-.784.128-.288.298-.56.512-.816.213-.267.48-.485.8-.656.32-.171.704-.256 1.152-.256zm4.873 5.44h-.496l2.592-6.8h1.664l-3.28 7.984h-1.44l-3.248-7.984h1.68zm6.914-10.096v1.648h-1.904v-1.648zm-1.712 3.296h1.52v7.984h-1.52zm11.509 4.944a3.406 3.406 0 0 1-.64 1.728c-.352.48-.816.848-1.392 1.104a4.676 4.676 0 0 1-1.92.384c-.779 0-1.494-.16-2.144-.48a3.947 3.947 0 0 1-1.568-1.424c-.384-.629-.576-1.376-.576-2.24 0-.875.192-1.621.576-2.24a3.915 3.915 0 0 1 1.568-1.44 4.656 4.656 0 0 1 2.144-.496c.704 0 1.338.128 1.904.384a3.551 3.551 0 0 1 1.392 1.104c.362.469.581 1.035.656 1.696h-1.392a2.554 2.554 0 0 0-.976-1.36 2.586 2.586 0 0 0-1.584-.512c-.491 0-.95.112-1.376.336a2.6 2.6 0 0 0-1.008.976c-.246.416-.368.933-.368 1.552 0 .597.122 1.109.368 1.536.256.416.592.736 1.008.96.416.213.874.32 1.376.32.682 0 1.237-.165 1.664-.496.426-.331.73-.795.912-1.392zm7.758.448h1.456a3.096 3.096 0 0 1-.608 1.408c-.32.416-.742.747-1.264.992-.523.245-1.136.368-1.84.368-.832 0-1.574-.176-2.224-.528a3.95 3.95 0 0 1-1.536-1.456c-.374-.619-.56-1.339-.56-2.16 0-.832.181-1.557.544-2.176a3.836 3.836 0 0 1 1.504-1.472c.64-.352 1.37-.528 2.192-.528.864 0 1.589.171 2.176.512.586.341 1.018.848 1.296 1.52.288.661.405 1.488.352 2.48h-6.545c.054.48.198.907.433 1.28.245.373.565.667.96.88.405.213.869.32 1.392.32.586 0 1.077-.133 1.472-.4a1.97 1.97 0 0 0 .8-1.04m-2.32-4.24c-.694 0-1.27.187-1.728.56-.459.363-.763.848-.912 1.456h4.912c-.043-.651-.278-1.147-.704-1.488-.427-.352-.95-.528-1.568-.528m5.073 4.24h1.408c.053.427.245.779.576 1.056.331.267.795.4 1.392.4.384 0 .683-.043.896-.128.213-.096.363-.224.448-.384.096-.16.144-.336.144-.528 0-.245-.064-.432-.192-.56a1.346 1.346 0 0 0-.544-.336 6.904 6.904 0 0 0-.832-.272 13.43 13.43 0 0 1-1.056-.336 5.524 5.524 0 0 1-.976-.464 2.345 2.345 0 0 1-.704-.672c-.171-.277-.256-.613-.256-1.008 0-.331.069-.64.208-.928.149-.288.357-.533.624-.736.277-.213.597-.373.96-.48a3.895 3.895 0 0 1 1.2-.176c.608 0 1.12.112 1.536.336.416.213.731.517.944.912.224.395.341.848.352 1.36h-1.344c-.075-.448-.229-.773-.464-.976-.235-.213-.587-.32-1.056-.32-.459 0-.811.091-1.056.272a.868.868 0 0 0-.368.736c0 .235.085.427.256.576.171.139.4.261.688.368.288.107.613.219.976.336.341.117.667.24.976.368.32.117.603.261.848.432.256.16.453.373.592.64.149.256.224.576.224.96 0 .469-.117.88-.352 1.232-.235.341-.576.608-1.024.8-.437.192-.971.288-1.6.288-.576 0-1.067-.069-1.472-.208a3.361 3.361 0 0 1-1.008-.544 2.898 2.898 0 0 1-.624-.704 2.881 2.881 0 0 1-.288-.736 1.862 1.862 0 0 1-.032-.576"/><path fill="#2A2C37" fill-rule="evenodd" d="M12 531.6a9.602 9.602 0 0 0 9.6-9.6 9.6 9.6 0 1 0-9.6 9.6m4.448-11.152a1.198 1.198 0 0 0-.852-2.033 1.197 1.197 0 0 0-.844.337l-3.952 3.951-1.552-1.551a1.197 1.197 0 0 0-1.682.014 1.202 1.202 0 0 0-.014 1.682l2.4 2.4a1.2 1.2 0 0 0 1.696 0l4.8-4.8" clip-rule="evenodd"/><path fill="#161616" d="M38.288 528.112c-1.035 0-1.979-.24-2.832-.72a5.466 5.466 0 0 1-2.032-2.032c-.49-.875-.736-1.856-.736-2.944 0-1.088.245-2.064.736-2.928a5.31 5.31 0 0 1 2.032-2.032c.853-.491 1.797-.736 2.832-.736 1.045 0 1.995.245 2.848.736a5.231 5.231 0 0 1 2.016 2.016c.49.864.736 1.845.736 2.944s-.245 2.08-.736 2.944a5.348 5.348 0 0 1-2.016 2.032c-.853.48-1.803.72-2.848.72m0-1.264c.779 0 1.477-.181 2.096-.544.63-.363 1.12-.88 1.472-1.552.363-.672.544-1.451.544-2.336 0-.896-.181-1.675-.544-2.336a3.794 3.794 0 0 0-1.456-1.552c-.619-.363-1.323-.544-2.112-.544-.79 0-1.493.181-2.112.544-.619.363-1.11.88-1.472 1.552-.352.661-.528 1.44-.528 2.336 0 .885.176 1.664.528 2.336a3.902 3.902 0 0 0 1.472 1.552c.63.363 1.333.544 2.112.544m11.818-7.776c1.067 0 1.93.325 2.592.976.661.64.992 1.568.992 2.784V528h-1.44v-4.96c0-.875-.218-1.541-.656-2-.437-.469-1.035-.704-1.792-.704-.768 0-1.381.24-1.84.72-.448.48-.672 1.179-.672 2.096V528h-1.456v-8.768h1.456v1.248a2.9 2.9 0 0 1 1.168-1.04 3.703 3.703 0 0 1 1.648-.368m7.442-2.912V528h-1.456v-11.84h1.456m3.258 1.648a.958.958 0 0 1-.704-.288.958.958 0 0 1-.288-.704c0-.277.096-.512.288-.704a.958.958 0 0 1 .704-.288c.267 0 .49.096.672.288a.958.958 0 0 1 .288.704.958.958 0 0 1-.288.704.887.887 0 0 1-.672.288m.704 1.424V528h-1.456v-8.768zm6.777-.16c1.067 0 1.931.325 2.592.976.662.64.992 1.568.992 2.784V528h-1.44v-4.96c0-.875-.218-1.541-.656-2-.437-.469-1.034-.704-1.791-.704-.768 0-1.382.24-1.84.72-.449.48-.672 1.179-.672 2.096V528h-1.456v-8.768h1.456v1.248a2.9 2.9 0 0 1 1.168-1.04 3.703 3.703 0 0 1 1.647-.368m13.987 4.208c0 .277-.016.571-.048.88h-7.008c.053.864.346 1.541.88 2.032.544.48 1.2.72 1.968.72.63 0 1.152-.144 1.568-.432.427-.299.725-.693.896-1.184h1.568a3.806 3.806 0 0 1-1.408 2.064c-.704.523-1.579.784-2.624.784-.832 0-1.579-.187-2.24-.56A3.988 3.988 0 0 1 74.29 526c-.374-.693-.56-1.493-.56-2.4 0-.907.181-1.701.544-2.384a3.78 3.78 0 0 1 1.52-1.568c.661-.373 1.419-.56 2.272-.56.832 0 1.568.181 2.208.544.64.363 1.13.864 1.472 1.504.352.629.528 1.344.528 2.144m-1.504-.304c0-.555-.123-1.029-.368-1.424a2.32 2.32 0 0 0-1.008-.912 3.01 3.01 0 0 0-1.392-.32c-.736 0-1.365.235-1.888.704-.512.469-.806 1.12-.88 1.952h5.536m9.515-2.544v5.168c0 .427.091.731.272.912.182.171.496.256.944.256h1.072V528h-1.312c-.81 0-1.418-.187-1.824-.56-.405-.373-.608-.987-.608-1.84v-5.168h-1.136v-1.2h1.136v-2.208h1.456v2.208h2.288v1.2h-2.288m5.532.224a2.808 2.808 0 0 1 1.089-1.168c.48-.277 1.06-.416 1.743-.416v1.504h-.383c-1.633 0-2.449.885-2.449 2.656V528h-1.455v-8.768h1.456v1.424m3.993 2.928c0-.896.182-1.68.544-2.352a3.952 3.952 0 0 1 1.488-1.584 4.15 4.15 0 0 1 2.128-.56c.768 0 1.435.165 2 .496.566.331.987.747 1.264 1.248v-1.6h1.472V528h-1.472v-1.632c-.288.512-.72.939-1.296 1.28-.565.331-1.226.496-1.984.496a3.978 3.978 0 0 1-2.112-.576 4.047 4.047 0 0 1-1.488-1.616c-.362-.693-.544-1.483-.544-2.368m7.424.016c0-.661-.133-1.237-.4-1.728a2.745 2.745 0 0 0-1.088-1.12 2.851 2.851 0 0 0-1.488-.4c-.544 0-1.04.128-1.488.384a2.786 2.786 0 0 0-1.072 1.12c-.266.491-.4 1.067-.4 1.728 0 .672.134 1.259.4 1.76.267.491.624.869 1.072 1.136.448.256.944.384 1.488.384s1.04-.128 1.488-.384a2.857 2.857 0 0 0 1.088-1.136c.267-.501.4-1.083.4-1.744m8.229-4.528c1.066 0 1.93.325 2.592.976.661.64.992 1.568.992 2.784V528h-1.44v-4.96c0-.875-.219-1.541-.656-2-.438-.469-1.035-.704-1.792-.704-.768 0-1.382.24-1.84.72-.448.48-.672 1.179-.672 2.096V528h-1.456v-8.768h1.456v1.248a2.898 2.898 0 0 1 1.168-1.04 3.7 3.7 0 0 1 1.648-.368m9.09 9.072c-.672 0-1.275-.112-1.808-.336-.533-.235-.955-.555-1.264-.96a2.598 2.598 0 0 1-.512-1.424h1.504c.043.437.245.795.608 1.072.373.277.859.416 1.456.416.555 0 .992-.123 1.312-.368.32-.245.48-.555.48-.928 0-.384-.171-.667-.512-.848-.341-.192-.869-.379-1.584-.56a13.017 13.017 0 0 1-1.6-.512 3.044 3.044 0 0 1-1.056-.784c-.288-.352-.432-.811-.432-1.376 0-.448.133-.859.4-1.232s.645-.667 1.136-.88c.491-.224 1.051-.336 1.68-.336.971 0 1.755.245 2.352.736s.917 1.163.96 2.016h-1.456a1.494 1.494 0 0 0-.56-1.104c-.331-.277-.779-.416-1.344-.416-.523 0-.939.112-1.248.336-.309.224-.464.517-.464.88 0 .288.091.528.272.72.192.181.427.331.704.448.288.107.683.229 1.184.368.629.171 1.141.341 1.536.512.395.16.731.405 1.008.736.288.331.437.763.448 1.296 0 .48-.133.912-.4 1.296s-.645.688-1.136.912c-.48.213-1.035.32-1.664.32m8.848-7.712h-1.84V528h-1.456v-7.568h-1.136v-1.2h1.136v-.624c0-.981.25-1.696.752-2.144.512-.459 1.328-.688 2.448-.688v1.216c-.64 0-1.094.128-1.36.384-.256.245-.384.656-.384 1.232v.624h1.84zm9.721 2.848c0 .277-.016.571-.048.88h-7.008c.053.864.347 1.541.88 2.032.544.48 1.2.72 1.968.72.629 0 1.152-.144 1.568-.432.427-.299.725-.693.896-1.184h1.568a3.807 3.807 0 0 1-1.408 2.064c-.704.523-1.579.784-2.624.784-.832 0-1.579-.187-2.24-.56a3.984 3.984 0 0 1-1.536-1.584c-.373-.693-.56-1.493-.56-2.4 0-.907.181-1.701.544-2.384a3.781 3.781 0 0 1 1.52-1.568c.661-.373 1.419-.56 2.272-.56.832 0 1.568.181 2.208.544a3.7 3.7 0 0 1 1.472 1.504c.352.629.528 1.344.528 2.144m-1.504-.304c0-.555-.123-1.029-.368-1.424a2.316 2.316 0 0 0-1.008-.912 3.01 3.01 0 0 0-1.392-.32c-.736 0-1.365.235-1.888.704-.512.469-.805 1.12-.88 1.952zm4.906-2.32a2.81 2.81 0 0 1 1.088-1.168c.48-.277 1.061-.416 1.744-.416v1.504h-.384c-1.632 0-2.448.885-2.448 2.656V528h-1.456v-8.768h1.456zm7.641 7.488c-.672 0-1.275-.112-1.808-.336-.534-.235-.955-.555-1.264-.96a2.59 2.59 0 0 1-.512-1.424h1.504c.042.437.245.795.608 1.072.373.277.858.416 1.456.416.554 0 .992-.123 1.312-.368.32-.245.48-.555.48-.928 0-.384-.171-.667-.512-.848-.342-.192-.87-.379-1.584-.56a13.017 13.017 0 0 1-1.6-.512 3.026 3.026 0 0 1-1.056-.784c-.288-.352-.432-.811-.432-1.376 0-.448.133-.859.4-1.232.266-.373.645-.667 1.136-.88.49-.224 1.05-.336 1.68-.336.97 0 1.754.245 2.352.736.597.491.917 1.163.96 2.016h-1.456a1.494 1.494 0 0 0-.56-1.104c-.331-.277-.779-.416-1.344-.416-.523 0-.939.112-1.248.336-.31.224-.464.517-.464.88 0 .288.09.528.272.72.192.181.426.331.704.448.288.107.682.229 1.184.368.629.171 1.141.341 1.536.512.394.16.73.405 1.008.736.288.331.437.763.448 1.296 0 .48-.134.912-.4 1.296-.267.384-.646.688-1.136.912-.48.213-1.035.32-1.664.32m9.025-4.56c0-.896.181-1.68.544-2.352a3.938 3.938 0 0 1 1.488-1.584 4.148 4.148 0 0 1 2.128-.56c.768 0 1.434.165 2 .496.565.331.986.747 1.264 1.248v-1.6h1.472V528h-1.472v-1.632c-.288.512-.72.939-1.296 1.28-.566.331-1.227.496-1.984.496a3.973 3.973 0 0 1-2.112-.576 4.033 4.033 0 0 1-1.488-1.616c-.363-.693-.544-1.483-.544-2.368m7.424.016c0-.661-.134-1.237-.4-1.728a2.758 2.758 0 0 0-1.088-1.12 2.851 2.851 0 0 0-1.488-.4c-.544 0-1.04.128-1.488.384a2.78 2.78 0 0 0-1.072 1.12c-.267.491-.4 1.067-.4 1.728 0 .672.133 1.259.4 1.76.266.491.624.869 1.072 1.136.448.256.944.384 1.488.384s1.04-.128 1.488-.384a2.87 2.87 0 0 0 1.088-1.136c.266-.501.4-1.083.4-1.744m8.228-4.528c1.067 0 1.931.325 2.592.976.662.64.992 1.568.992 2.784V528h-1.44v-4.96c0-.875-.218-1.541-.656-2-.437-.469-1.034-.704-1.792-.704-.768 0-1.381.24-1.84.72-.448.48-.672 1.179-.672 2.096V528h-1.456v-8.768h1.456v1.248a2.905 2.905 0 0 1 1.168-1.04 3.706 3.706 0 0 1 1.648-.368m5.443 4.512c0-.896.181-1.68.544-2.352a3.938 3.938 0 0 1 1.488-1.584 4.178 4.178 0 0 1 2.144-.56c.682 0 1.317.16 1.904.48.586.309 1.034.72 1.344 1.232v-4.64h1.472V528h-1.472v-1.648c-.288.523-.715.955-1.28 1.296-.566.331-1.227.496-1.984.496a4.056 4.056 0 0 1-2.128-.576 4.033 4.033 0 0 1-1.488-1.616c-.363-.693-.544-1.483-.544-2.368m7.424.016c0-.661-.134-1.237-.4-1.728a2.758 2.758 0 0 0-1.088-1.12 2.851 2.851 0 0 0-1.488-.4c-.544 0-1.04.128-1.488.384a2.78 2.78 0 0 0-1.072 1.12c-.267.491-.4 1.067-.4 1.728 0 .672.133 1.259.4 1.76.266.491.624.869 1.072 1.136.448.256.944.384 1.488.384s1.04-.128 1.488-.384a2.87 2.87 0 0 0 1.088-1.136c.266-.501.4-1.083.4-1.744m9.702-2.752c.288-.501.714-.917 1.28-1.248.576-.341 1.242-.512 2-.512.778 0 1.482.187 2.112.56.64.373 1.141.901 1.504 1.584.362.672.544 1.456.544 2.352 0 .885-.182 1.675-.544 2.368a4.008 4.008 0 0 1-3.616 2.192c-.747 0-1.408-.165-1.984-.496-.566-.341-.998-.763-1.296-1.264v5.776h-1.456v-12.928h1.456zm5.952 2.736c0-.661-.134-1.237-.4-1.728a2.758 2.758 0 0 0-1.088-1.12 2.946 2.946 0 0 0-1.488-.384c-.534 0-1.03.133-1.488.4-.448.256-.811.635-1.088 1.136-.267.491-.4 1.061-.4 1.712 0 .661.133 1.243.4 1.744.277.491.64.869 1.088 1.136a3 3 0 0 0 1.488.384c.544 0 1.04-.128 1.488-.384a2.87 2.87 0 0 0 1.088-1.136c.266-.501.4-1.088.4-1.76m2.884 0c0-.896.182-1.68.544-2.352a3.952 3.952 0 0 1 1.488-1.584 4.15 4.15 0 0 1 2.128-.56c.768 0 1.435.165 2 .496.566.331.987.747 1.264 1.248v-1.6h1.472V528h-1.472v-1.632c-.288.512-.72.939-1.296 1.28-.565.331-1.226.496-1.984.496a3.978 3.978 0 0 1-2.112-.576 4.047 4.047 0 0 1-1.488-1.616c-.362-.693-.544-1.483-.544-2.368m7.424.016c0-.661-.133-1.237-.4-1.728a2.745 2.745 0 0 0-1.088-1.12 2.851 2.851 0 0 0-1.488-.4c-.544 0-1.04.128-1.488.384a2.786 2.786 0 0 0-1.072 1.12c-.266.491-.4 1.067-.4 1.728 0 .672.134 1.259.4 1.76.267.491.624.869 1.072 1.136.448.256.944.384 1.488.384s1.04-.128 1.488-.384a2.857 2.857 0 0 0 1.088-1.136c.267-.501.4-1.083.4-1.744m11.509-4.368-5.28 12.896h-1.504l1.728-4.224-3.536-8.672h1.616l2.752 7.104 2.72-7.104zm12.031-.16c.683 0 1.291.144 1.824.432.534.277.955.699 1.264 1.264.31.565.464 1.253.464 2.064V528h-1.44v-4.96c0-.875-.218-1.541-.656-2-.426-.469-1.008-.704-1.744-.704-.757 0-1.36.245-1.808.736-.448.48-.672 1.179-.672 2.096V528h-1.44v-4.96c0-.875-.218-1.541-.656-2-.426-.469-1.008-.704-1.744-.704-.757 0-1.36.245-1.808.736-.448.48-.672 1.179-.672 2.096V528h-1.456v-8.768h1.456v1.264a2.886 2.886 0 0 1 1.152-1.056 3.57 3.57 0 0 1 1.616-.368c.736 0 1.387.165 1.952.496.566.331.987.816 1.264 1.456a2.878 2.878 0 0 1 1.216-1.44 3.588 3.588 0 0 1 1.888-.512m13.965 4.208c0 .277-.016.571-.048.88h-7.008c.053.864.346 1.541.88 2.032.544.48 1.2.72 1.968.72.629 0 1.152-.144 1.568-.432.426-.299.725-.693.896-1.184H255a3.807 3.807 0 0 1-1.408 2.064c-.704.523-1.579.784-2.624.784-.832 0-1.579-.187-2.24-.56a3.984 3.984 0 0 1-1.536-1.584c-.374-.693-.56-1.493-.56-2.4 0-.907.181-1.701.544-2.384a3.775 3.775 0 0 1 1.52-1.568c.661-.373 1.418-.56 2.272-.56.832 0 1.568.181 2.208.544.64.363 1.13.864 1.472 1.504.352.629.528 1.344.528 2.144m-1.504-.304c0-.555-.123-1.029-.368-1.424a2.327 2.327 0 0 0-1.008-.912 3.01 3.01 0 0 0-1.392-.32c-.736 0-1.366.235-1.888.704-.512.469-.806 1.12-.88 1.952zm7.722-3.904c1.066 0 1.93.325 2.592.976.661.64.992 1.568.992 2.784V528h-1.44v-4.96c0-.875-.219-1.541-.656-2-.438-.469-1.035-.704-1.792-.704-.768 0-1.382.24-1.84.72-.448.48-.672 1.179-.672 2.096V528h-1.456v-8.768h1.456v1.248a2.898 2.898 0 0 1 1.168-1.04 3.7 3.7 0 0 1 1.648-.368m7.762 1.36v5.168c0 .427.091.731.272.912.181.171.496.256.944.256h1.072V528h-1.312c-.811 0-1.419-.187-1.824-.56-.405-.373-.608-.987-.608-1.84v-5.168h-1.136v-1.2h1.136v-2.208h1.456v2.208h2.288v1.2z"/><g clip-path="url(#a)"><path fill="#DFC147" fill-opacity=".41" fill-rule="evenodd" d="M292.591 164.099c-1.886.864-14.549-3.504-17.932-6.103-.769-.591-.783-3.279-.249-6.522 1.018-5.305 2.819-23.888 3.715-36.835 1.118-18.011-6.278-36.719-4.631-38.863 12.115-15.774 7.711-64.323-8.004-87.959-18.216-27.383-28.342-13.246-16.833 2.654 15.141 20.882 21.979 43.179 20.404 66.561-.539 7.865-.868 7.977-4.587 1.834-18.692-30.427-64.242-11.236-59.471 25.056 3.256 24.415 33.19 30.971 54.901 12.096 4.94-4.363 8.129 16.957 5.934 40.35-1.869 19.626-1.199 18.436-7.759 15.833-28.164-11.406-33.431-7.415-23.968 17.993 4.212 11.391 6.414 28.422 6.092 48.263-.09 7.6 4.09 5.819 10.401-4.308 6.804-11.087 19.01-24.114 31.084-33.467 17.051-13.444 13.703-17.842 10.903-16.583m-39.359-73.084c-18.567 9.846-42.32-7.304-37.104-26.671 3.312-12.431 27.578-8.525 37.104 5.975 7.559 11.65 7.55 16.755 0 20.696" clip-rule="evenodd"/></g><defs><clipPath id="a"><path fill="#fff" d="M398.598 153.812 244.784 288.594 110 134.78 263.816-.002z"/></clipPath></defs></svg>