<svg xmlns="http://www.w3.org/2000/svg" width="360" height="168" fill="none"><path fill="#161616" d="M7.296 24.168c-1.12 0-2.128-.192-3.024-.576-.896-.4-1.6-.96-2.112-1.68s-.768-1.56-.768-2.52H4.32c.064.72.344 1.312.84 1.776.512.464 1.224.696 2.136.696.944 0 1.68-.224 2.208-.672.528-.464.792-1.056.792-1.776 0-.56-.168-1.016-.504-1.368a3.167 3.167 0 0 0-1.224-.816c-.48-.192-1.152-.4-2.016-.624-1.088-.288-1.976-.576-2.664-.864a4.508 4.508 0 0 1-1.728-1.392c-.48-.624-.72-1.456-.72-2.496 0-.96.24-1.8.72-2.52S3.312 8.064 4.176 7.68c.864-.384 1.864-.576 3-.576 1.616 0 2.936.408 3.96 1.224 1.04.8 1.616 1.904 1.728 3.312H9.84c-.048-.608-.336-1.128-.864-1.56-.528-.432-1.224-.648-2.088-.648-.784 0-1.424.2-1.92.6-.496.4-.744.976-.744 1.728 0 .512.152.936.456 1.272.32.32.72.576 1.2.768.48.192 1.136.4 1.968.624 1.104.304 2 .608 2.688.912a4.349 4.349 0 0 1 1.776 1.416c.496.624.744 1.464.744 2.52 0 .848-.232 1.648-.696 2.4-.448.752-1.112 1.36-1.992 1.824-.864.448-1.888.672-3.072.672m12.18-11.16v7.32c0 .496.113.856.337 1.08.24.208.64.312 1.2.312h1.68V24h-2.16c-1.233 0-2.177-.288-2.832-.864-.657-.576-.985-1.512-.985-2.808v-7.32h-1.56v-2.232h1.56V7.488h2.76v3.288h3.217v2.232h-3.216m17.714-2.232V24h-2.736v-1.56c-.432.544-1 .976-1.704 1.296a5.402 5.402 0 0 1-2.208.456c-1.04 0-1.976-.216-2.808-.648-.816-.432-1.464-1.072-1.944-1.92-.464-.848-.696-1.872-.696-3.072v-7.776h2.712v7.368c0 1.184.296 2.096.888 2.736.592.624 1.4.936 2.424.936s1.832-.312 2.424-.936c.608-.64.912-1.552.912-2.736v-7.368h2.736m2.698 6.552c0-1.328.272-2.504.816-3.528.56-1.024 1.312-1.816 2.256-2.376.96-.576 2.024-.864 3.192-.864.864 0 1.712.192 2.544.576.848.368 1.52.864 2.016 1.488V6.24h2.76V24h-2.76v-1.992c-.448.64-1.072 1.168-1.872 1.584-.784.416-1.688.624-2.712.624a6.042 6.042 0 0 1-3.168-.864c-.944-.592-1.696-1.408-2.256-2.448-.544-1.056-.816-2.248-.816-3.576m10.824.048c0-.912-.192-1.704-.576-2.376-.368-.672-.856-1.184-1.464-1.536a3.862 3.862 0 0 0-1.968-.528c-.704 0-1.36.176-1.968.528-.608.336-1.104.84-1.488 1.512-.368.656-.552 1.44-.552 2.352 0 .912.184 1.712.552 2.4.384.688.88 1.216 1.488 1.584.624.352 1.28.528 1.968.528.704 0 1.36-.176 1.968-.528.608-.352 1.096-.864 1.464-1.536.384-.688.576-1.488.576-2.4m18.474-.312c0 .496-.032.944-.096 1.344H58.986c.08 1.056.472 1.904 1.176 2.544.704.64 1.568.96 2.592.96 1.472 0 2.512-.616 3.12-1.848h2.952c-.4 1.216-1.128 2.216-2.184 3-1.04.768-2.336 1.152-3.888 1.152-1.264 0-2.4-.28-3.408-.84a6.278 6.278 0 0 1-2.352-2.4c-.56-1.04-.84-2.24-.84-3.6 0-1.36.272-2.552.816-3.576.56-1.04 1.336-1.84 2.328-2.4 1.008-.56 2.16-.84 3.456-.84 1.248 0 2.36.272 3.336.816a5.746 5.746 0 0 1 2.28 2.304c.544.976.816 2.104.816 3.384M66.33 16.2c-.016-1.008-.376-1.816-1.08-2.424-.704-.608-1.576-.912-2.616-.912-.944 0-1.752.304-2.424.912-.672.592-1.072 1.4-1.2 2.424h7.32m12.22-5.64c1.04 0 1.968.216 2.784.648a4.59 4.59 0 0 1 1.944 1.92c.464.848.696 1.872.696 3.072V24h-2.712v-7.392c0-1.184-.296-2.088-.888-2.712-.592-.64-1.4-.96-2.424-.96s-1.84.32-2.448.96c-.592.624-.888 1.528-.888 2.712V24h-2.736V10.776h2.736v1.512a4.549 4.549 0 0 1 1.704-1.272 5.57 5.57 0 0 1 2.232-.456m12.106 2.448v7.32c0 .496.112.856.336 1.08.24.208.64.312 1.2.312h1.68V24h-2.16c-1.232 0-2.176-.288-2.832-.864-.656-.576-.984-1.512-.984-2.808v-7.32h-1.56v-2.232h1.56V7.488h2.76v3.288h3.216v2.232h-3.216m10.538 11.208c-1.04 0-1.976-.184-2.808-.552-.816-.384-1.464-.896-1.944-1.536a3.886 3.886 0 0 1-.768-2.184h2.832c.048.56.312 1.032.792 1.416.496.368 1.112.552 1.848.552.768 0 1.36-.144 1.776-.432.432-.304.648-.688.648-1.152 0-.496-.24-.864-.72-1.104-.464-.24-1.208-.504-2.232-.792-.992-.272-1.8-.536-2.424-.792a4.351 4.351 0 0 1-1.632-1.176c-.448-.528-.672-1.224-.672-2.088 0-.704.208-1.344.624-1.92.416-.592 1.008-1.056 1.776-1.392.784-.336 1.68-.504 2.688-.504 1.504 0 2.712.384 3.624 1.152.928.752 1.424 1.784 1.488 3.096h-2.736c-.048-.592-.288-1.064-.72-1.416-.432-.352-1.016-.528-1.752-.528-.72 0-1.272.136-1.656.408-.384.272-.576.632-.576 1.08 0 .352.128.648.384.888s.568.432.936.576c.368.128.912.296 1.632.504.96.256 1.744.52 2.352.792.624.256 1.16.64 1.608 1.152.448.512.68 1.192.696 2.04 0 .752-.208 1.424-.624 2.016-.416.592-1.008 1.056-1.776 1.392-.752.336-1.64.504-2.664.504m25.03-16.896v2.232h-4.44V24h-2.736V9.552h-4.464V7.32h11.64Zm5.507 5.376c.4-.672.928-1.192 1.584-1.56.672-.384 1.464-.576 2.376-.576v2.832h-.696c-1.072 0-1.888.272-2.448.816-.544.544-.816 1.488-.816 2.832V24h-2.736V10.776h2.736v1.92m18.451-1.92V24h-2.736v-1.56c-.432.544-1 .976-1.704 1.296a5.402 5.402 0 0 1-2.208.456c-1.04 0-1.976-.216-2.808-.648-.816-.432-1.464-1.072-1.944-1.92-.464-.848-.696-1.872-.696-3.072v-7.776h2.712v7.368c0 1.184.296 2.096.888 2.736.592.624 1.4.936 2.424.936s1.832-.312 2.424-.936c.608-.64.912-1.552.912-2.736v-7.368h2.736m8.41 13.44c-1.04 0-1.976-.184-2.808-.552-.816-.384-1.464-.896-1.944-1.536a3.886 3.886 0 0 1-.768-2.184h2.832c.048.56.312 1.032.792 1.416.496.368 1.112.552 1.848.552.768 0 1.36-.144 1.776-.432.432-.304.648-.688.648-1.152 0-.496-.24-.864-.72-1.104-.464-.24-1.208-.504-2.232-.792-.992-.272-1.8-.536-2.424-.792a4.351 4.351 0 0 1-1.632-1.176c-.448-.528-.672-1.224-.672-2.088 0-.704.208-1.344.624-1.92.416-.592 1.008-1.056 1.776-1.392.784-.336 1.68-.504 2.688-.504 1.504 0 2.712.384 3.624 1.152.928.752 1.424 1.784 1.488 3.096h-2.736c-.048-.592-.288-1.064-.72-1.416-.432-.352-1.016-.528-1.752-.528-.72 0-1.272.136-1.656.408-.384.272-.576.632-.576 1.08 0 .352.128.648.384.888s.568.432.936.576c.368.128.912.296 1.632.504.96.256 1.744.52 2.352.792.624.256 1.16.64 1.608 1.152.448.512.68 1.192.696 2.04 0 .752-.208 1.424-.624 2.016-.416.592-1.008 1.056-1.776 1.392-.752.336-1.64.504-2.664.504m11.213-11.208v7.32c0 .496.112.856.336 1.08.24.208.64.312 1.2.312h1.68V24h-2.16c-1.232 0-2.176-.288-2.832-.864-.656-.576-.984-1.512-.984-2.808v-7.32h-1.56v-2.232h1.56V7.488h2.76v3.288h3.216v2.232h-3.216m10.537 11.208c-1.04 0-1.976-.184-2.808-.552-.816-.384-1.464-.896-1.944-1.536a3.886 3.886 0 0 1-.768-2.184h2.832c.048.56.312 1.032.792 1.416.496.368 1.112.552 1.848.552.768 0 1.36-.144 1.776-.432.432-.304.648-.688.648-1.152 0-.496-.24-.864-.72-1.104-.464-.24-1.208-.504-2.232-.792-.992-.272-1.8-.536-2.424-.792a4.351 4.351 0 0 1-1.632-1.176c-.448-.528-.672-1.224-.672-2.088 0-.704.208-1.344.624-1.92.416-.592 1.008-1.056 1.776-1.392.784-.336 1.68-.504 2.688-.504 1.504 0 2.712.384 3.624 1.152.928.752 1.424 1.784 1.488 3.096h-2.736c-.048-.592-.288-1.064-.72-1.416-.432-.352-1.016-.528-1.752-.528-.72 0-1.272.136-1.656.408-.384.272-.576.632-.576 1.08 0 .352.128.648.384.888s.568.432.936.576c.368.128.912.296 1.632.504.96.256 1.744.52 2.352.792.624.256 1.16.64 1.608 1.152.448.512.68 1.192.696 2.04 0 .752-.208 1.424-.624 2.016-.416.592-1.008 1.056-1.776 1.392-.752.336-1.64.504-2.664.504m24.311-3.624h-6.984l-1.2 3.408h-2.856l5.976-16.704h3.168L208.733 24h-2.88l-1.2-3.408m-.768-2.232-2.712-7.752-2.736 7.752h5.448m16.374-2.928c.896.16 1.656.632 2.28 1.416.624.784.936 1.672.936 2.664 0 .848-.224 1.616-.672 2.304-.432.672-1.064 1.208-1.896 1.608-.832.384-1.8.576-2.904.576h-6.672V7.32h6.36c1.136 0 2.112.192 2.928.576.816.384 1.432.904 1.848 1.56.416.64.624 1.36.624 2.16 0 .96-.256 1.76-.768 2.4-.512.64-1.2 1.112-2.064 1.416m-6.192-1.104h3.384c.896 0 1.592-.2 2.088-.6.512-.416.768-1.008.768-1.776 0-.752-.256-1.336-.768-1.752-.496-.432-1.192-.648-2.088-.648h-3.384v4.776m3.696 7.44c.928 0 1.656-.224 2.184-.672.528-.448.792-1.072.792-1.872 0-.816-.28-1.464-.84-1.944-.56-.48-1.304-.72-2.232-.72h-3.6v5.208h3.696m14.181 2.4c-1.12 0-2.128-.192-3.024-.576-.896-.4-1.6-.96-2.112-1.68s-.768-1.56-.768-2.52h2.928c.064.72.344 1.312.84 1.776.512.464 1.224.696 2.136.696.944 0 1.68-.224 2.208-.672.528-.464.792-1.056.792-1.776 0-.56-.168-1.016-.504-1.368a3.167 3.167 0 0 0-1.224-.816c-.48-.192-1.152-.4-2.016-.624-1.088-.288-1.976-.576-2.664-.864a4.508 4.508 0 0 1-1.728-1.392c-.48-.624-.72-1.456-.72-2.496 0-.96.24-1.8.72-2.52s1.152-1.272 2.016-1.656c.864-.384 1.864-.576 3-.576 1.616 0 2.936.408 3.96 1.224 1.04.8 1.616 1.904 1.728 3.312h-3.024c-.048-.608-.336-1.128-.864-1.56-.528-.432-1.224-.648-2.088-.648-.784 0-1.424.2-1.92.6-.496.4-.744.976-.744 1.728 0 .512.152.936.456 1.272.32.32.72.576 1.2.768.48.192 1.136.4 1.968.624 1.104.304 2 .608 2.688.912a4.349 4.349 0 0 1 1.776 1.416c.496.624.744 1.464.744 2.52 0 .848-.232 1.648-.696 2.4-.448.752-1.112 1.36-1.992 1.824-.864.448-1.888.672-3.072.672"/><path fill="#2A2C37" fill-rule="evenodd" d="M8 70.4a6.4 6.4 0 1 0 0-12.8 6.4 6.4 0 0 0 0 12.8m2.966-7.434a.8.8 0 0 0-1.131-1.132L7.2 64.47l-1.034-1.034a.8.8 0 0 0-1.131 1.13l1.6 1.6a.8.8 0 0 0 1.13 0l3.2-3.2" clip-rule="evenodd"/><path fill="#161616" d="M24.444 63.812c0-.816.188-1.548.564-2.196a4.07 4.07 0 0 1 1.548-1.512 4.316 4.316 0 0 1 2.148-.552c.888 0 1.676.22 2.364.66.696.432 1.2 1.048 1.512 1.848h-1.644c-.216-.44-.516-.768-.9-.984-.384-.216-.828-.324-1.332-.324-.552 0-1.044.124-1.476.372a2.628 2.628 0 0 0-1.02 1.068c-.24.464-.36 1.004-.36 1.62 0 .616.12 1.156.36 1.62.248.464.588.824 1.02 1.08.432.248.924.372 1.476.372.504 0 .948-.108 1.332-.324.384-.216.684-.544.9-.984h1.644c-.312.8-.816 1.416-1.512 1.848-.688.432-1.476.648-2.364.648-.784 0-1.5-.18-2.148-.54a4.16 4.16 0 0 1-1.548-1.524c-.376-.648-.564-1.38-.564-2.196m13.217-2.532c.504 0 .952.108 1.344.324.4.216.712.536.936.96.232.424.348.936.348 1.536V68h-1.356v-3.696c0-.592-.148-1.044-.444-1.356-.296-.32-.7-.48-1.212-.48s-.92.16-1.224.48c-.296.312-.444.764-.444 1.356V68h-1.368v-8.88h1.368v3.036c.232-.28.524-.496.876-.648.36-.152.752-.228 1.176-.228m3.977 3.384c0-.664.136-1.252.408-1.764a3.047 3.047 0 0 1 2.712-1.62c.52 0 .972.104 1.356.312.392.2.704.452.936.756v-.96h1.38V68h-1.38v-.984a2.717 2.717 0 0 1-.948.78c-.4.208-.856.312-1.368.312a2.938 2.938 0 0 1-1.56-.432 3.206 3.206 0 0 1-1.128-1.224c-.272-.528-.408-1.124-.408-1.788m5.412.024c0-.456-.096-.852-.288-1.188a1.938 1.938 0 0 0-.732-.768 1.93 1.93 0 0 0-.984-.264c-.352 0-.68.088-.984.264-.304.168-.552.42-.744.756-.184.328-.276.72-.276 1.176 0 .456.092.856.276 1.2.192.344.44.608.744.792a1.974 1.974 0 0 0 1.968 0c.304-.176.548-.432.732-.768.192-.344.288-.744.288-1.2m6.573-3.408c.52 0 .984.108 1.392.324.416.216.74.536.972.96.232.424.348.936.348 1.536V68H54.98v-3.696c0-.592-.148-1.044-.444-1.356-.296-.32-.7-.48-1.212-.48s-.92.16-1.224.48c-.296.312-.444.764-.444 1.356V68h-1.368v-6.612h1.368v.756c.224-.272.508-.484.852-.636a2.785 2.785 0 0 1 1.116-.228m7.181 0c.512 0 .964.104 1.356.312.4.2.712.452.936.756v-.96h1.38v6.72c0 .608-.128 1.148-.384 1.62-.256.48-.628.856-1.116 1.128-.48.272-1.056.408-1.728.408-.896 0-1.64-.212-2.232-.636a2.306 2.306 0 0 1-1.008-1.704h1.356c.104.344.324.62.66.828.344.216.752.324 1.224.324.552 0 .996-.168 1.332-.504.344-.336.516-.824.516-1.464v-1.104a2.834 2.834 0 0 1-.948.792c-.392.208-.84.312-1.344.312a3.021 3.021 0 0 1-1.584-.432 3.206 3.206 0 0 1-1.128-1.224c-.272-.528-.408-1.124-.408-1.788 0-.664.136-1.252.408-1.764a3.047 3.047 0 0 1 2.712-1.62m2.292 3.408c0-.456-.096-.852-.288-1.188a1.938 1.938 0 0 0-.732-.768 1.93 1.93 0 0 0-.984-.264c-.352 0-.68.088-.984.264-.304.168-.552.42-.744.756-.184.328-.276.72-.276 1.176 0 .456.092.856.276 1.2.192.344.44.608.744.792a1.974 1.974 0 0 0 1.968 0c.304-.176.548-.432.732-.768.192-.344.288-.744.288-1.2m9.297-.156c0 .248-.016.472-.048.672h-5.052c.04.528.236.952.588 1.272.352.32.784.48 1.296.48.736 0 1.256-.308 1.56-.924h1.476a2.998 2.998 0 0 1-1.092 1.5c-.52.384-1.168.576-1.944.576-.632 0-1.2-.14-1.704-.42a3.139 3.139 0 0 1-1.176-1.2c-.28-.52-.42-1.12-.42-1.8 0-.68.136-1.276.408-1.788.28-.52.668-.92 1.164-1.2.504-.28 1.08-.42 1.728-.42.624 0 1.18.136 1.668.408.488.272.868.656 1.14 1.152.272.488.408 1.052.408 1.692m-1.428-.432c-.008-.504-.188-.908-.54-1.212-.352-.304-.788-.456-1.308-.456-.472 0-.876.152-1.212.456-.336.296-.536.7-.6 1.212h3.66m8.88 4.008c-.625 0-1.189-.14-1.693-.42a3.113 3.113 0 0 1-1.188-1.2c-.288-.52-.432-1.12-.432-1.8 0-.672.148-1.268.444-1.788.296-.52.7-.92 1.212-1.2a3.517 3.517 0 0 1 1.716-.42c.632 0 1.204.14 1.716.42.512.28.916.68 1.212 1.2.296.52.444 1.116.444 1.788 0 .672-.152 1.268-.456 1.788-.304.52-.72.924-1.248 1.212-.52.28-1.096.42-1.728.42m0-1.188c.351 0 .68-.084.983-.252.312-.168.564-.42.756-.756.192-.336.288-.744.288-1.224s-.092-.884-.276-1.212a1.855 1.855 0 0 0-.732-.756 2.002 2.002 0 0 0-.984-.252c-.352 0-.68.084-.984.252-.296.168-.532.42-.708.756-.176.328-.264.732-.264 1.212 0 .712.18 1.264.54 1.656.368.384.828.576 1.38.576m7.616-4.416h-1.224V68h-1.38v-5.496h-.78v-1.116h.78v-.468c0-.76.2-1.312.6-1.656.408-.352 1.044-.528 1.908-.528v1.14c-.416 0-.708.08-.876.24-.168.152-.252.42-.252.804v.468h1.224v1.116m5.817-3.384V68H91.91v-8.88h1.368m2.552 1.392a.847.847 0 0 1-.624-.252.847.847 0 0 1-.252-.624c0-.248.084-.456.252-.624a.847.847 0 0 1 .624-.252c.24 0 .444.084.612.252a.847.847 0 0 1 .252.624.847.847 0 0 1-.252.624.833.833 0 0 1-.612.252m.672.876V68h-1.368v-6.612h1.368m9.86-.108c.52 0 .984.108 1.392.324.416.216.74.536.972.96.24.424.36.936.36 1.536V68h-1.356v-3.696c0-.592-.148-1.044-.444-1.356-.296-.32-.7-.48-1.212-.48s-.92.16-1.224.48c-.296.312-.444.764-.444 1.356V68h-1.356v-3.696c0-.592-.148-1.044-.444-1.356-.296-.32-.7-.48-1.212-.48s-.92.16-1.224.48c-.296.312-.444.764-.444 1.356V68h-1.368v-6.612h1.368v.756c.224-.272.508-.484.852-.636a2.7 2.7 0 0 1 1.104-.228c.528 0 1 .112 1.416.336.416.224.736.548.96.972.2-.4.512-.716.936-.948.424-.24.88-.36 1.368-.36m5.221-.768a.847.847 0 0 1-.624-.252.847.847 0 0 1-.252-.624c0-.248.084-.456.252-.624a.847.847 0 0 1 .624-.252c.24 0 .444.084.612.252a.847.847 0 0 1 .252.624.847.847 0 0 1-.252.624.833.833 0 0 1-.612.252m.672.876V68h-1.368v-6.612h1.368m3.452 1.116v3.66c0 .248.056.428.168.54.12.104.32.156.6.156h.84V68h-1.08c-.616 0-1.088-.144-1.416-.432-.328-.288-.492-.756-.492-1.404v-3.66h-.78v-1.116h.78v-1.644h1.38v1.644h1.608v1.116h-1.608m5.329 5.604c-.52 0-.988-.092-1.404-.276a2.536 2.536 0 0 1-.972-.768 1.943 1.943 0 0 1-.384-1.092h1.416a.99.99 0 0 0 .396.708c.248.184.556.276.924.276.384 0 .68-.072.888-.216.216-.152.324-.344.324-.576 0-.248-.12-.432-.36-.552-.232-.12-.604-.252-1.116-.396a10.83 10.83 0 0 1-1.212-.396 2.176 2.176 0 0 1-.816-.588c-.224-.264-.336-.612-.336-1.044 0-.352.104-.672.312-.96.208-.296.504-.528.888-.696.392-.168.84-.252 1.344-.252.752 0 1.356.192 1.812.576.464.376.712.892.744 1.548h-1.368a.974.974 0 0 0-.36-.708c-.216-.176-.508-.264-.876-.264-.36 0-.636.068-.828.204a.632.632 0 0 0-.288.54c0 .176.064.324.192.444s.284.216.468.288c.184.064.456.148.816.252.48.128.872.26 1.176.396.312.128.58.32.804.576.224.256.34.596.348 1.02 0 .376-.104.712-.312 1.008-.208.296-.504.528-.888.696-.376.168-.82.252-1.332.252"/><path fill="#2A2C37" fill-rule="evenodd" d="M8 102.4a6.4 6.4 0 1 0 0-12.801A6.4 6.4 0 0 0 8 102.4m2.966-7.434a.8.8 0 0 0-1.131-1.131L7.2 96.469l-1.034-1.034a.8.8 0 0 0-1.131 1.13l1.6 1.6a.8.8 0 0 0 1.13 0l3.2-3.2" clip-rule="evenodd"/><path fill="#161616" d="M24.444 95.812c0-.816.188-1.548.564-2.196a4.07 4.07 0 0 1 1.548-1.512 4.316 4.316 0 0 1 2.148-.552c.888 0 1.676.22 2.364.66.696.432 1.2 1.048 1.512 1.848h-1.644c-.216-.44-.516-.768-.9-.984-.384-.216-.828-.324-1.332-.324-.552 0-1.044.124-1.476.372a2.628 2.628 0 0 0-1.02 1.068c-.24.464-.36 1.004-.36 1.62 0 .616.12 1.156.36 1.62.248.464.588.824 1.02 1.08.432.248.924.372 1.476.372.504 0 .948-.108 1.332-.324.384-.216.684-.544.9-.984h1.644c-.312.8-.816 1.416-1.512 1.848-.688.432-1.476.648-2.364.648-.784 0-1.5-.18-2.148-.54a4.16 4.16 0 0 1-1.548-1.524c-.376-.648-.564-1.38-.564-2.196m13.217-2.532c.504 0 .952.108 1.344.324.4.216.712.536.936.96.232.424.348.936.348 1.536v3.9h-1.356v-3.696c0-.592-.148-1.044-.444-1.356-.296-.32-.7-.48-1.212-.48s-.92.16-1.224.48c-.296.312-.444.764-.444 1.356V100h-1.368v-8.88h1.368v3.036c.232-.28.524-.496.876-.648.36-.152.752-.228 1.176-.228m3.977 3.384c0-.664.136-1.252.408-1.764a3.047 3.047 0 0 1 2.712-1.62c.52 0 .972.104 1.356.312.392.2.704.452.936.756v-.96h1.38V100h-1.38v-.984a2.717 2.717 0 0 1-.948.78 2.92 2.92 0 0 1-1.368.312 2.938 2.938 0 0 1-1.56-.432 3.206 3.206 0 0 1-1.128-1.224c-.272-.528-.408-1.124-.408-1.788m5.412.024c0-.456-.096-.852-.288-1.188a1.938 1.938 0 0 0-.732-.768 1.93 1.93 0 0 0-.984-.264c-.352 0-.68.088-.984.264-.304.168-.552.42-.744.756-.184.328-.276.72-.276 1.176 0 .456.092.856.276 1.2.192.344.44.608.744.792a1.974 1.974 0 0 0 1.968 0c.304-.176.548-.432.732-.768.192-.344.288-.744.288-1.2m6.573-3.408c.52 0 .984.108 1.392.324.416.216.74.536.972.96.232.424.348.936.348 1.536v3.9H54.98v-3.696c0-.592-.148-1.044-.444-1.356-.296-.32-.7-.48-1.212-.48s-.92.16-1.224.48c-.296.312-.444.764-.444 1.356V100h-1.368v-6.612h1.368v.756c.224-.272.508-.484.852-.636a2.785 2.785 0 0 1 1.116-.228m7.181 0c.512 0 .964.104 1.356.312.4.2.712.452.936.756v-.96h1.38v6.72c0 .608-.128 1.148-.384 1.62-.256.48-.628.856-1.116 1.128-.48.272-1.056.408-1.728.408-.896 0-1.64-.212-2.232-.636a2.306 2.306 0 0 1-1.008-1.704h1.356c.104.344.324.62.66.828.344.216.752.324 1.224.324.552 0 .996-.168 1.332-.504.344-.336.516-.824.516-1.464v-1.104a2.821 2.821 0 0 1-2.292 1.104 3.021 3.021 0 0 1-1.584-.432 3.206 3.206 0 0 1-1.128-1.224c-.272-.528-.408-1.124-.408-1.788 0-.664.136-1.252.408-1.764a3.047 3.047 0 0 1 2.712-1.62m2.292 3.408c0-.456-.096-.852-.288-1.188a1.938 1.938 0 0 0-.732-.768 1.93 1.93 0 0 0-.984-.264c-.352 0-.68.088-.984.264-.304.168-.552.42-.744.756-.184.328-.276.72-.276 1.176 0 .456.092.856.276 1.2.192.344.44.608.744.792a1.974 1.974 0 0 0 1.968 0c.304-.176.548-.432.732-.768.192-.344.288-.744.288-1.2m9.297-.156c0 .248-.016.472-.048.672h-5.052c.04.528.236.952.588 1.272.352.32.784.48 1.296.48.736 0 1.256-.308 1.56-.924h1.476a2.998 2.998 0 0 1-1.092 1.5c-.52.384-1.168.576-1.944.576-.632 0-1.2-.14-1.704-.42a3.139 3.139 0 0 1-1.176-1.2c-.28-.52-.42-1.12-.42-1.8 0-.68.136-1.276.408-1.788.28-.52.668-.92 1.164-1.2.504-.28 1.08-.42 1.728-.42.624 0 1.18.136 1.668.408.488.272.868.656 1.14 1.152.272.488.408 1.052.408 1.692m-1.428-.432c-.008-.504-.188-.908-.54-1.212-.352-.304-.788-.456-1.308-.456-.472 0-.876.152-1.212.456-.336.296-.536.7-.6 1.212h3.66m8.88 4.008c-.625 0-1.189-.14-1.693-.42a3.113 3.113 0 0 1-1.188-1.2c-.288-.52-.432-1.12-.432-1.8 0-.672.148-1.268.444-1.788.296-.52.7-.92 1.212-1.2a3.517 3.517 0 0 1 1.716-.42c.632 0 1.204.14 1.716.42.512.28.916.68 1.212 1.2.296.52.444 1.116.444 1.788 0 .672-.152 1.268-.456 1.788-.304.52-.72.924-1.248 1.212-.52.28-1.096.42-1.728.42m0-1.188c.351 0 .68-.084.983-.252.312-.168.564-.42.756-.756.192-.336.288-.744.288-1.224s-.092-.884-.276-1.212a1.855 1.855 0 0 0-.732-.756 2.002 2.002 0 0 0-.984-.252c-.352 0-.68.084-.984.252-.296.168-.532.42-.708.756-.176.328-.264.732-.264 1.212 0 .712.18 1.264.54 1.656.368.384.828.576 1.38.576m7.616-4.416h-1.224V100h-1.38v-5.496h-.78v-1.116h.78v-.468c0-.76.2-1.312.6-1.656.408-.352 1.044-.528 1.908-.528v1.14c-.416 0-.708.08-.876.24-.168.152-.252.42-.252.804v.468h1.224v1.116m5.817-3.384V100H91.91v-8.88h1.368m2.552 1.392a.847.847 0 0 1-.624-.252.847.847 0 0 1-.252-.624c0-.248.084-.456.252-.624a.847.847 0 0 1 .624-.252c.24 0 .444.084.612.252a.847.847 0 0 1 .252.624.847.847 0 0 1-.252.624.833.833 0 0 1-.612.252m.672.876V100h-1.368v-6.612h1.368m9.86-.108c.52 0 .984.108 1.392.324.416.216.74.536.972.96.24.424.36.936.36 1.536v3.9h-1.356v-3.696c0-.592-.148-1.044-.444-1.356-.296-.32-.7-.48-1.212-.48s-.92.16-1.224.48c-.296.312-.444.764-.444 1.356V100h-1.356v-3.696c0-.592-.148-1.044-.444-1.356-.296-.32-.7-.48-1.212-.48s-.92.16-1.224.48c-.296.312-.444.764-.444 1.356V100h-1.368v-6.612h1.368v.756c.224-.272.508-.484.852-.636a2.7 2.7 0 0 1 1.104-.228c.528 0 1 .112 1.416.336.416.224.736.548.96.972.2-.4.512-.716.936-.948.424-.24.88-.36 1.368-.36m5.221-.768a.847.847 0 0 1-.624-.252.847.847 0 0 1-.252-.624c0-.248.084-.456.252-.624a.847.847 0 0 1 .624-.252c.24 0 .444.084.612.252a.847.847 0 0 1 .252.624.847.847 0 0 1-.252.624.833.833 0 0 1-.612.252m.672.876V100h-1.368v-6.612h1.368m3.452 1.116v3.66c0 .248.056.428.168.54.12.104.32.156.6.156h.84V100h-1.08c-.616 0-1.088-.144-1.416-.432-.328-.288-.492-.756-.492-1.404v-3.66h-.78v-1.116h.78v-1.644h1.38v1.644h1.608v1.116h-1.608m5.329 5.604c-.52 0-.988-.092-1.404-.276a2.536 2.536 0 0 1-.972-.768 1.943 1.943 0 0 1-.384-1.092h1.416a.99.99 0 0 0 .396.708c.248.184.556.276.924.276.384 0 .68-.072.888-.216.216-.152.324-.344.324-.576 0-.248-.12-.432-.36-.552-.232-.12-.604-.252-1.116-.396a10.83 10.83 0 0 1-1.212-.396 2.176 2.176 0 0 1-.816-.588c-.224-.264-.336-.612-.336-1.044 0-.352.104-.672.312-.96.208-.296.504-.528.888-.696.392-.168.84-.252 1.344-.252.752 0 1.356.192 1.812.576.464.376.712.892.744 1.548h-1.368a.974.974 0 0 0-.36-.708c-.216-.176-.508-.264-.876-.264-.36 0-.636.068-.828.204a.632.632 0 0 0-.288.54c0 .176.064.324.192.444s.284.216.468.288c.184.064.456.148.816.252.48.128.872.26 1.176.396.312.128.58.32.804.576.224.256.34.596.348 1.02 0 .376-.104.712-.312 1.008-.208.296-.504.528-.888.696-.376.168-.82.252-1.332.252"/><path fill="#2A2C37" fill-rule="evenodd" d="M8 134.4a6.4 6.4 0 1 0 0-12.801A6.4 6.4 0 0 0 8 134.4m2.966-7.434a.8.8 0 0 0-1.131-1.132L7.2 128.469l-1.034-1.035a.802.802 0 0 0-1.356.569.8.8 0 0 0 .225.563l1.6 1.6a.8.8 0 0 0 1.13 0l3.2-3.2" clip-rule="evenodd"/><path fill="#2A2C37" d="M30.732 126.144c0 .424-.1.824-.3 1.2-.2.376-.52.684-.96.924-.44.232-1.004.348-1.692.348h-1.512V132H24.9v-8.34h2.88c.64 0 1.18.112 1.62.336.448.216.78.512.996.888.224.376.336.796.336 1.26M27.78 127.5c.52 0 .908-.116 1.164-.348.256-.24.384-.576.384-1.008 0-.912-.516-1.368-1.548-1.368h-1.512v2.724h1.512m3.86 1.164c0-.664.137-1.252.409-1.764a3.047 3.047 0 0 1 2.712-1.62c.52 0 .972.104 1.356.312.392.2.704.452.936.756v-.96h1.38V132h-1.38v-.984a2.717 2.717 0 0 1-.948.78c-.4.208-.856.312-1.368.312a2.938 2.938 0 0 1-1.56-.432 3.206 3.206 0 0 1-1.128-1.224c-.272-.528-.408-1.124-.408-1.788m5.413.024c0-.456-.096-.852-.288-1.188a1.938 1.938 0 0 0-.732-.768 1.93 1.93 0 0 0-.984-.264c-.352 0-.68.088-.984.264-.304.168-.552.42-.744.756-.184.328-.276.72-.276 1.176 0 .456.092.856.276 1.2.192.344.44.608.744.792a1.974 1.974 0 0 0 1.968 0c.304-.176.548-.432.732-.768.192-.344.288-.744.288-1.2m9.188-3.3-4.056 9.72H40.77l1.344-3.216-2.604-6.504h1.524l1.86 5.04 1.932-5.04h1.416m9.097-.108c.52 0 .984.108 1.392.324.416.216.74.536.972.96.24.424.36.936.36 1.536v3.9h-1.356v-3.696c0-.592-.148-1.044-.444-1.356-.296-.32-.7-.48-1.212-.48s-.92.16-1.224.48c-.296.312-.444.764-.444 1.356V132h-1.356v-3.696c0-.592-.148-1.044-.444-1.356-.296-.32-.7-.48-1.212-.48s-.92.16-1.224.48c-.296.312-.444.764-.444 1.356V132h-1.368v-6.612h1.368v.756c.224-.272.508-.484.852-.636a2.7 2.7 0 0 1 1.104-.228c.528 0 1 .112 1.416.336.416.224.736.548.96.972.2-.4.512-.716.936-.948.424-.24.88-.36 1.368-.36m10.585 3.252c0 .248-.016.472-.048.672h-5.052c.04.528.236.952.588 1.272.352.32.784.48 1.296.48.736 0 1.256-.308 1.56-.924h1.476a2.998 2.998 0 0 1-1.092 1.5c-.52.384-1.168.576-1.944.576-.632 0-1.2-.14-1.704-.42a3.139 3.139 0 0 1-1.176-1.2c-.28-.52-.42-1.12-.42-1.8 0-.68.136-1.276.408-1.788.28-.52.668-.92 1.164-1.2.504-.28 1.08-.42 1.728-.42.624 0 1.18.136 1.668.408.488.272.868.656 1.14 1.152.272.488.408 1.052.408 1.692m-1.428-.432c-.008-.504-.188-.908-.54-1.212-.352-.304-.788-.456-1.308-.456-.472 0-.876.152-1.212.456-.336.296-.536.7-.6 1.212h3.66m6.17-2.82c.52 0 .984.108 1.392.324.416.216.74.536.972.96.232.424.348.936.348 1.536v3.9H72.02v-3.696c0-.592-.148-1.044-.444-1.356-.296-.32-.7-.48-1.212-.48s-.92.16-1.224.48c-.296.312-.444.764-.444 1.356V132h-1.368v-6.612h1.368v.756c.224-.272.508-.484.852-.636a2.785 2.785 0 0 1 1.116-.228m6.113 1.224v3.66c0 .248.056.428.168.54.12.104.32.156.6.156h.84V132h-1.08c-.616 0-1.088-.144-1.416-.432-.328-.288-.492-.756-.492-1.404v-3.66h-.78v-1.116h.78v-1.644h1.38v1.644h1.608v1.116h-1.608m8.974 5.604c-.624 0-1.188-.14-1.692-.42a3.113 3.113 0 0 1-1.188-1.2c-.288-.52-.432-1.12-.432-1.8 0-.672.148-1.268.444-1.788.296-.52.7-.92 1.212-1.2a3.517 3.517 0 0 1 1.716-.42c.632 0 1.204.14 1.716.42.512.28.916.68 1.212 1.2.296.52.444 1.116.444 1.788 0 .672-.152 1.268-.456 1.788-.304.52-.72.924-1.248 1.212-.52.28-1.096.42-1.728.42m0-1.188c.352 0 .68-.084.984-.252.312-.168.564-.42.756-.756.192-.336.288-.744.288-1.224s-.092-.884-.276-1.212a1.855 1.855 0 0 0-.732-.756 2.002 2.002 0 0 0-.984-.252c-.352 0-.68.084-.984.252-.296.168-.532.42-.708.756-.176.328-.264.732-.264 1.212 0 .712.18 1.264.54 1.656.368.384.828.576 1.38.576m7.616-4.416h-1.224V132h-1.38v-5.496h-.78v-1.116h.78v-.468c0-.76.2-1.312.6-1.656.408-.352 1.044-.528 1.908-.528v1.14c-.416 0-.708.08-.876.24-.168.152-.252.42-.252.804v.468h1.224v1.116m10.438-1.116V132h-1.368v-.78c-.216.272-.5.488-.852.648a2.7 2.7 0 0 1-1.104.228c-.52 0-.988-.108-1.404-.324a2.388 2.388 0 0 1-.972-.96c-.232-.424-.348-.936-.348-1.536v-3.888h1.356v3.684c0 .592.148 1.048.444 1.368.296.312.7.468 1.212.468s.916-.156 1.212-.468c.304-.32.456-.776.456-1.368v-3.684zm3.461 1.116v3.66c0 .248.056.428.168.54.12.104.32.156.6.156h.84V132h-1.08c-.616 0-1.088-.144-1.416-.432-.328-.288-.492-.756-.492-1.404v-3.66h-.78v-1.116h.78v-1.644h1.38v1.644h1.608v1.116zm3.625-1.992a.847.847 0 0 1-.624-.252.847.847 0 0 1-.252-.624c0-.248.084-.456.252-.624a.847.847 0 0 1 .624-.252c.24 0 .444.084.612.252a.847.847 0 0 1 .252.624.847.847 0 0 1-.252.624.833.833 0 0 1-.612.252m.672.876V132h-1.368v-6.612zm3.224-2.268V132h-1.368v-8.88zm2.552 1.392a.847.847 0 0 1-.624-.252.847.847 0 0 1-.252-.624c0-.248.084-.456.252-.624a.847.847 0 0 1 .624-.252c.24 0 .444.084.612.252a.847.847 0 0 1 .252.624.847.847 0 0 1-.252.624.833.833 0 0 1-.612.252m.672.876V132h-1.368v-6.612zm3.452 1.116v3.66c0 .248.056.428.168.54.12.104.32.156.6.156h.84V132h-1.08c-.616 0-1.088-.144-1.416-.432-.328-.288-.492-.756-.492-1.404v-3.66h-.78v-1.116h.78v-1.644h1.38v1.644h1.608v1.116zm8.881-1.116-4.056 9.72h-1.416l1.344-3.216-2.604-6.504h1.524l1.86 5.04 1.932-5.04zm6.669 6.72c-.52 0-.988-.092-1.404-.276a2.536 2.536 0 0 1-.972-.768 1.943 1.943 0 0 1-.384-1.092h1.416a.99.99 0 0 0 .396.708c.248.184.556.276.924.276.384 0 .68-.072.888-.216.216-.152.324-.344.324-.576 0-.248-.12-.432-.36-.552-.232-.12-.604-.252-1.116-.396a10.83 10.83 0 0 1-1.212-.396 2.176 2.176 0 0 1-.816-.588c-.224-.264-.336-.612-.336-1.044 0-.352.104-.672.312-.96.208-.296.504-.528.888-.696.392-.168.84-.252 1.344-.252.752 0 1.356.192 1.812.576.464.376.712.892.744 1.548h-1.368a.974.974 0 0 0-.36-.708c-.216-.176-.508-.264-.876-.264-.36 0-.636.068-.828.204a.632.632 0 0 0-.288.54c0 .176.064.324.192.444s.284.216.468.288c.184.064.456.148.816.252.48.128.872.26 1.176.396.312.128.58.32.804.576.224.256.34.596.348 1.02 0 .376-.104.712-.312 1.008-.208.296-.504.528-.888.696-.376.168-.82.252-1.332.252m10.13-3.576c0 .248-.016.472-.048.672h-5.052c.04.528.236.952.588 1.272.352.32.784.48 1.296.48.736 0 1.256-.308 1.56-.924h1.476a2.998 2.998 0 0 1-1.092 1.5c-.52.384-1.168.576-1.944.576-.632 0-1.2-.14-1.704-.42a3.139 3.139 0 0 1-1.176-1.2c-.28-.52-.42-1.12-.42-1.8 0-.68.136-1.276.408-1.788.28-.52.668-.92 1.164-1.2.504-.28 1.08-.42 1.728-.42.624 0 1.18.136 1.668.408.488.272.868.656 1.14 1.152.272.488.408 1.052.408 1.692m-1.428-.432c-.008-.504-.188-.908-.54-1.212-.352-.304-.788-.456-1.308-.456-.472 0-.876.152-1.212.456-.336.296-.536.7-.6 1.212zm4.203-1.752c.2-.336.464-.596.792-.78.336-.192.732-.288 1.188-.288v1.416h-.348c-.536 0-.944.136-1.224.408-.272.272-.408.744-.408 1.416V132h-1.368v-6.612h1.368zm5.853 4.428 1.872-5.388h1.452l-2.52 6.612h-1.632l-2.508-6.612h1.464zm5.114-6.264a.847.847 0 0 1-.624-.252.847.847 0 0 1-.252-.624c0-.248.084-.456.252-.624a.847.847 0 0 1 .624-.252c.24 0 .444.084.612.252a.847.847 0 0 1 .252.624.847.847 0 0 1-.252.624.833.833 0 0 1-.612.252m.672.876V132h-1.368v-6.612zm1.4 3.3c0-.68.136-1.276.408-1.788.28-.52.664-.92 1.152-1.2.488-.28 1.048-.42 1.68-.42.8 0 1.46.192 1.98.576.528.376.884.916 1.068 1.62h-1.476a1.56 1.56 0 0 0-.576-.768c-.264-.184-.596-.276-.996-.276-.56 0-1.008.2-1.344.6-.328.392-.492.944-.492 1.656s.164 1.268.492 1.668c.336.4.784.6 1.344.6.792 0 1.316-.348 1.572-1.044h1.476c-.192.672-.552 1.208-1.08 1.608-.528.392-1.184.588-1.968.588-.632 0-1.192-.14-1.68-.42a3.08 3.08 0 0 1-1.152-1.2c-.272-.52-.408-1.12-.408-1.8m13.772-.156c0 .248-.016.472-.048.672h-5.052c.04.528.236.952.588 1.272.352.32.784.48 1.296.48.736 0 1.256-.308 1.56-.924h1.476a2.998 2.998 0 0 1-1.092 1.5c-.52.384-1.168.576-1.944.576-.632 0-1.2-.14-1.704-.42a3.139 3.139 0 0 1-1.176-1.2c-.28-.52-.42-1.12-.42-1.8 0-.68.136-1.276.408-1.788.28-.52.668-.92 1.164-1.2.504-.28 1.08-.42 1.728-.42.624 0 1.18.136 1.668.408.488.272.868.656 1.14 1.152.272.488.408 1.052.408 1.692m-1.428-.432c-.008-.504-.188-.908-.54-1.212-.352-.304-.788-.456-1.308-.456-.472 0-.876.152-1.212.456-.336.296-.536.7-.6 1.212zm5.234 4.008c-.52 0-.988-.092-1.404-.276a2.536 2.536 0 0 1-.972-.768 1.943 1.943 0 0 1-.384-1.092h1.416a.99.99 0 0 0 .396.708c.248.184.556.276.924.276.384 0 .68-.072.888-.216.216-.152.324-.344.324-.576 0-.248-.12-.432-.36-.552-.232-.12-.604-.252-1.116-.396a10.83 10.83 0 0 1-1.212-.396 2.176 2.176 0 0 1-.816-.588c-.224-.264-.336-.612-.336-1.044 0-.352.104-.672.312-.96.208-.296.504-.528.888-.696.392-.168.84-.252 1.344-.252.752 0 1.356.192 1.812.576.464.376.712.892.744 1.548h-1.368a.974.974 0 0 0-.36-.708c-.216-.176-.508-.264-.876-.264-.36 0-.636.068-.828.204a.632.632 0 0 0-.288.54c0 .176.064.324.192.444s.284.216.468.288c.184.064.456.148.816.252.48.128.872.26 1.176.396.312.128.58.32.804.576.224.256.34.596.348 1.02 0 .376-.104.712-.312 1.008-.208.296-.504.528-.888.696-.376.168-.82.252-1.332.252"/><path fill="#2A2C37" fill-rule="evenodd" d="M8 166.4a6.4 6.4 0 1 0 0-12.801A6.4 6.4 0 0 0 8 166.4m2.966-7.434a.8.8 0 0 0-1.131-1.132L7.2 160.469l-1.034-1.035a.802.802 0 0 0-1.356.569.8.8 0 0 0 .225.563l1.6 1.6a.8.8 0 0 0 1.13 0l3.2-3.2" clip-rule="evenodd"/><path fill="#161616" d="M28.704 164.084c-.776 0-1.492-.18-2.148-.54a4.16 4.16 0 0 1-1.548-1.524c-.376-.656-.564-1.392-.564-2.208 0-.816.188-1.548.564-2.196a4.07 4.07 0 0 1 1.548-1.512 4.316 4.316 0 0 1 2.148-.552c.784 0 1.5.184 2.148.552.656.36 1.172.864 1.548 1.512.376.648.564 1.38.564 2.196 0 .816-.188 1.552-.564 2.208a4.047 4.047 0 0 1-1.548 1.524c-.648.36-1.364.54-2.148.54m0-1.188c.552 0 1.044-.124 1.476-.372a2.63 2.63 0 0 0 1.008-1.08c.248-.472.372-1.016.372-1.632 0-.616-.124-1.156-.372-1.62a2.55 2.55 0 0 0-1.008-1.068 2.911 2.911 0 0 0-1.476-.372c-.552 0-1.044.124-1.476.372a2.628 2.628 0 0 0-1.02 1.068c-.24.464-.36 1.004-.36 1.62 0 .616.12 1.16.36 1.632.248.464.588.824 1.02 1.08.432.248.924.372 1.476.372m9.002-5.616c.52 0 .984.108 1.392.324.416.216.74.536.972.96.232.424.348.936.348 1.536v3.9h-1.356v-3.696c0-.592-.148-1.044-.444-1.356-.296-.32-.7-.48-1.212-.48s-.92.16-1.224.48c-.296.312-.444.764-.444 1.356V164H34.37v-6.612h1.368v.756c.224-.272.508-.484.852-.636a2.785 2.785 0 0 1 1.116-.228m5.885-2.16V164h-1.368v-8.88h1.368m2.552 1.392a.847.847 0 0 1-.624-.252.847.847 0 0 1-.252-.624c0-.248.084-.456.252-.624a.847.847 0 0 1 .624-.252c.24 0 .444.084.612.252a.847.847 0 0 1 .252.624.847.847 0 0 1-.252.624.833.833 0 0 1-.612.252m.672.876V164h-1.368v-6.612h1.368m5.192-.108c.52 0 .984.108 1.392.324.416.216.74.536.972.96.232.424.348.936.348 1.536v3.9h-1.356v-3.696c0-.592-.148-1.044-.444-1.356-.296-.32-.7-.48-1.212-.48s-.92.16-1.224.48c-.296.312-.444.764-.444 1.356V164h-1.368v-6.612h1.368v.756c.224-.272.508-.484.852-.636a2.785 2.785 0 0 1 1.116-.228m10.577 3.252c0 .248-.016.472-.048.672h-5.052c.04.528.236.952.588 1.272.352.32.784.48 1.296.48.736 0 1.256-.308 1.56-.924h1.476a2.998 2.998 0 0 1-1.092 1.5c-.52.384-1.168.576-1.944.576-.632 0-1.2-.14-1.704-.42a3.139 3.139 0 0 1-1.176-1.2c-.28-.52-.42-1.12-.42-1.8 0-.68.136-1.276.408-1.788.28-.52.668-.92 1.164-1.2.504-.28 1.08-.42 1.728-.42.624 0 1.18.136 1.668.408.488.272.868.656 1.14 1.152.272.488.408 1.052.408 1.692m-1.428-.432c-.008-.504-.188-.908-.54-1.212-.352-.304-.788-.456-1.308-.456-.472 0-.876.152-1.212.456-.336.296-.536.7-.6 1.212h3.66m7.608-1.596v3.66c0 .248.056.428.168.54.12.104.32.156.6.156h.84V164h-1.08c-.616 0-1.088-.144-1.416-.432-.328-.288-.492-.756-.492-1.404v-3.66h-.78v-1.116h.78v-1.644h1.38v1.644h1.608v1.116h-1.608m4.297-.156c.2-.336.464-.596.792-.78.336-.192.732-.288 1.188-.288v1.416h-.348c-.536 0-.944.136-1.224.408-.272.272-.408.744-.408 1.416V164h-1.368v-6.612h1.368v.96m2.841 2.316c0-.664.136-1.252.408-1.764a3.047 3.047 0 0 1 2.712-1.62c.52 0 .972.104 1.356.312.392.2.704.452.936.756v-.96h1.38V164h-1.38v-.984a2.717 2.717 0 0 1-.948.78c-.4.208-.856.312-1.368.312a2.938 2.938 0 0 1-1.56-.432 3.206 3.206 0 0 1-1.128-1.224c-.272-.528-.408-1.124-.408-1.788m5.412.024c0-.456-.096-.852-.288-1.188a1.938 1.938 0 0 0-.732-.768 1.93 1.93 0 0 0-.984-.264c-.352 0-.68.088-.984.264-.304.168-.552.42-.744.756-.184.328-.276.72-.276 1.176 0 .456.092.856.276 1.2.192.344.44.608.744.792a1.974 1.974 0 0 0 1.968 0c.304-.176.548-.432.732-.768.192-.344.288-.744.288-1.2m6.573-3.408c.52 0 .984.108 1.392.324.416.216.74.536.972.96.232.424.348.936.348 1.536v3.9h-1.356v-3.696c0-.592-.148-1.044-.444-1.356-.296-.32-.7-.48-1.212-.48s-.92.16-1.224.48c-.296.312-.444.764-.444 1.356V164H84.55v-6.612h1.368v.756c.224-.272.508-.484.852-.636a2.785 2.785 0 0 1 1.116-.228m6.917 6.828c-.52 0-.988-.092-1.404-.276a2.536 2.536 0 0 1-.972-.768 1.943 1.943 0 0 1-.384-1.092h1.416a.99.99 0 0 0 .396.708c.248.184.556.276.924.276.384 0 .68-.072.888-.216.216-.152.324-.344.324-.576 0-.248-.12-.432-.36-.552-.232-.12-.604-.252-1.116-.396a10.83 10.83 0 0 1-1.212-.396 2.176 2.176 0 0 1-.816-.588c-.224-.264-.336-.612-.336-1.044 0-.352.104-.672.312-.96.208-.296.504-.528.888-.696.392-.168.84-.252 1.344-.252.752 0 1.356.192 1.812.576.464.376.712.892.744 1.548h-1.368a.974.974 0 0 0-.36-.708c-.216-.176-.508-.264-.876-.264-.36 0-.636.068-.828.204a.632.632 0 0 0-.288.54c0 .176.064.324.192.444s.284.216.468.288c.184.064.456.148.816.252.48.128.872.26 1.176.396.312.128.58.32.804.576.224.256.34.596.348 1.02 0 .376-.104.712-.312 1.008-.208.296-.504.528-.888.696-.376.168-.82.252-1.332.252m6.842-5.604h-1.224V164h-1.38v-5.496h-.78v-1.116h.78v-.468c0-.76.2-1.312.6-1.656.408-.352 1.044-.528 1.908-.528v1.14c-.416 0-.708.08-.876.24-.168.152-.252.42-.252.804v.468h1.224zm7.332 2.028c0 .248-.016.472-.048.672h-5.052c.04.528.236.952.588 1.272.352.32.784.48 1.296.48.736 0 1.256-.308 1.56-.924h1.476a2.998 2.998 0 0 1-1.092 1.5c-.52.384-1.168.576-1.944.576-.632 0-1.2-.14-1.704-.42a3.139 3.139 0 0 1-1.176-1.2c-.28-.52-.42-1.12-.42-1.8 0-.68.136-1.276.408-1.788.28-.52.668-.92 1.164-1.2.504-.28 1.08-.42 1.728-.42.624 0 1.18.136 1.668.408.488.272.868.656 1.14 1.152.272.488.408 1.052.408 1.692m-1.428-.432c-.008-.504-.188-.908-.54-1.212-.352-.304-.788-.456-1.308-.456-.472 0-.876.152-1.212.456-.336.296-.536.7-.6 1.212zm4.203-1.752c.2-.336.464-.596.792-.78.336-.192.732-.288 1.188-.288v1.416h-.348c-.536 0-.944.136-1.224.408-.272.272-.408.744-.408 1.416V164h-1.368v-6.612h1.368zm5.697 5.76c-.52 0-.988-.092-1.404-.276a2.536 2.536 0 0 1-.972-.768 1.943 1.943 0 0 1-.384-1.092h1.416a.99.99 0 0 0 .396.708c.248.184.556.276.924.276.384 0 .68-.072.888-.216.216-.152.324-.344.324-.576 0-.248-.12-.432-.36-.552-.232-.12-.604-.252-1.116-.396a10.83 10.83 0 0 1-1.212-.396 2.176 2.176 0 0 1-.816-.588c-.224-.264-.336-.612-.336-1.044 0-.352.104-.672.312-.96.208-.296.504-.528.888-.696.392-.168.84-.252 1.344-.252.752 0 1.356.192 1.812.576.464.376.712.892.744 1.548h-1.368a.974.974 0 0 0-.36-.708c-.216-.176-.508-.264-.876-.264-.36 0-.636.068-.828.204a.632.632 0 0 0-.288.54c0 .176.064.324.192.444s.284.216.468.288c.184.064.456.148.816.252.48.128.872.26 1.176.396.312.128.58.32.804.576.224.256.34.596.348 1.02 0 .376-.104.712-.312 1.008-.208.296-.504.528-.888.696-.376.168-.82.252-1.332.252m6.791-3.444c0-.664.136-1.252.408-1.764a3.047 3.047 0 0 1 2.712-1.62c.52 0 .972.104 1.356.312.392.2.704.452.936.756v-.96h1.38V164h-1.38v-.984a2.717 2.717 0 0 1-.948.78c-.4.208-.856.312-1.368.312a2.938 2.938 0 0 1-1.56-.432 3.206 3.206 0 0 1-1.128-1.224c-.272-.528-.408-1.124-.408-1.788m5.412.024c0-.456-.096-.852-.288-1.188a1.938 1.938 0 0 0-.732-.768 1.93 1.93 0 0 0-.984-.264c-.352 0-.68.088-.984.264-.304.168-.552.42-.744.756-.184.328-.276.72-.276 1.176 0 .456.092.856.276 1.2.192.344.44.608.744.792a1.974 1.974 0 0 0 1.968 0c.304-.176.548-.432.732-.768.192-.344.288-.744.288-1.2m6.573-3.408c.52 0 .984.108 1.392.324.416.216.74.536.972.96.232.424.348.936.348 1.536v3.9h-1.356v-3.696c0-.592-.148-1.044-.444-1.356-.296-.32-.7-.48-1.212-.48s-.92.16-1.224.48c-.296.312-.444.764-.444 1.356V164h-1.368v-6.612h1.368v.756c.224-.272.508-.484.852-.636a2.785 2.785 0 0 1 1.116-.228m4.061 3.384c0-.664.136-1.252.408-1.764a3.047 3.047 0 0 1 2.724-1.62c.432 0 .856.096 1.272.288.424.184.76.432 1.008.744v-3.192h1.38V164h-1.38v-.996a2.55 2.55 0 0 1-.936.792c-.392.208-.844.312-1.356.312a3.021 3.021 0 0 1-1.584-.432 3.206 3.206 0 0 1-1.128-1.224c-.272-.528-.408-1.124-.408-1.788m5.412.024c0-.456-.096-.852-.288-1.188a1.938 1.938 0 0 0-.732-.768 1.93 1.93 0 0 0-.984-.264c-.352 0-.68.088-.984.264-.304.168-.552.42-.744.756-.184.328-.276.72-.276 1.176 0 .456.092.856.276 1.2.192.344.44.608.744.792a1.974 1.974 0 0 0 1.968 0c.304-.176.548-.432.732-.768.192-.344.288-.744.288-1.2m7.782-2.328a2.78 2.78 0 0 1 .948-.768c.4-.208.852-.312 1.356-.312.576 0 1.1.144 1.572.432.48.28.856.676 1.128 1.188.272.512.408 1.1.408 1.764 0 .664-.136 1.26-.408 1.788-.272.52-.648.928-1.128 1.224a2.96 2.96 0 0 1-1.572.432c-.504 0-.952-.1-1.344-.3a3.083 3.083 0 0 1-.96-.768v4.104h-1.368v-9.756h1.368zm4.02 2.304c0-.456-.096-.848-.288-1.176a1.832 1.832 0 0 0-.744-.756 1.974 1.974 0 0 0-1.968 0 2.022 2.022 0 0 0-.744.768c-.184.336-.276.732-.276 1.188 0 .456.092.856.276 1.2.192.336.44.592.744.768a1.974 1.974 0 0 0 1.968 0c.312-.184.56-.448.744-.792.192-.344.288-.744.288-1.2m2.349 0c0-.664.136-1.252.408-1.764a3.047 3.047 0 0 1 2.712-1.62c.52 0 .972.104 1.356.312.392.2.704.452.936.756v-.96h1.38V164h-1.38v-.984a2.717 2.717 0 0 1-.948.78c-.4.208-.856.312-1.368.312a2.938 2.938 0 0 1-1.56-.432 3.206 3.206 0 0 1-1.128-1.224c-.272-.528-.408-1.124-.408-1.788m5.412.024c0-.456-.096-.852-.288-1.188a1.938 1.938 0 0 0-.732-.768 1.93 1.93 0 0 0-.984-.264c-.352 0-.68.088-.984.264-.304.168-.552.42-.744.756-.184.328-.276.72-.276 1.176 0 .456.092.856.276 1.2.192.344.44.608.744.792a1.974 1.974 0 0 0 1.968 0c.304-.176.548-.432.732-.768.192-.344.288-.744.288-1.2m9.189-3.3-4.056 9.72h-1.416l1.344-3.216-2.604-6.504h1.524l1.86 5.04 1.932-5.04zm9.096-.108c.52 0 .984.108 1.392.324.416.216.74.536.972.96.24.424.36.936.36 1.536v3.9h-1.356v-3.696c0-.592-.148-1.044-.444-1.356-.296-.32-.7-.48-1.212-.48s-.92.16-1.224.48c-.296.312-.444.764-.444 1.356V164h-1.356v-3.696c0-.592-.148-1.044-.444-1.356-.296-.32-.7-.48-1.212-.48s-.92.16-1.224.48c-.296.312-.444.764-.444 1.356V164h-1.368v-6.612h1.368v.756c.224-.272.508-.484.852-.636a2.7 2.7 0 0 1 1.104-.228c.528 0 1 .112 1.416.336.416.224.736.548.96.972.2-.4.512-.716.936-.948.424-.24.88-.36 1.368-.36m10.585 3.252c0 .248-.016.472-.048.672h-5.052c.04.528.236.952.588 1.272.352.32.784.48 1.296.48.736 0 1.256-.308 1.56-.924h1.476a2.998 2.998 0 0 1-1.092 1.5c-.52.384-1.168.576-1.944.576-.632 0-1.2-.14-1.704-.42a3.139 3.139 0 0 1-1.176-1.2c-.28-.52-.42-1.12-.42-1.8 0-.68.136-1.276.408-1.788.28-.52.668-.92 1.164-1.2.504-.28 1.08-.42 1.728-.42.624 0 1.18.136 1.668.408.488.272.868.656 1.14 1.152.272.488.408 1.052.408 1.692m-1.428-.432c-.008-.504-.188-.908-.54-1.212-.352-.304-.788-.456-1.308-.456-.472 0-.876.152-1.212.456-.336.296-.536.7-.6 1.212zm6.17-2.82c.52 0 .984.108 1.392.324.416.216.74.536.972.96.232.424.348.936.348 1.536v3.9h-1.356v-3.696c0-.592-.148-1.044-.444-1.356-.296-.32-.7-.48-1.212-.48s-.92.16-1.224.48c-.296.312-.444.764-.444 1.356V164h-1.368v-6.612h1.368v.756c.224-.272.508-.484.852-.636a2.785 2.785 0 0 1 1.116-.228m6.113 1.224v3.66c0 .248.056.428.168.54.12.104.32.156.6.156h.84V164h-1.08c-.616 0-1.088-.144-1.416-.432-.328-.288-.492-.756-.492-1.404v-3.66h-.78v-1.116h.78v-1.644h1.38v1.644h1.608v1.116z"/></svg>