<svg width="289" height="289" viewBox="0 0 289 289" fill="none" xmlns="http://www.w3.org/2000/svg">
<mask id="mask0_52_993" style="mask-type:luminance" maskUnits="userSpaceOnUse" x="0" y="0" width="289" height="289">
<path d="M137.124 288.854L288.855 151.731L151.731 -3.14196e-05L0.000471966 137.123L137.124 288.854Z" fill="white"/>
</mask>
<g mask="url(#mask0_52_993)">
<path fill-rule="evenodd" clip-rule="evenodd" d="M183.019 163.64C181.146 164.533 168.418 160.359 164.995 157.812C164.217 157.234 164.162 154.546 164.647 151.296C165.583 145.975 167.099 127.367 167.797 114.408C168.639 96.3813 160.958 77.7897 162.571 75.6207C174.444 59.663 169.296 11.1865 153.221 -12.2053C134.587 -39.3062 124.68 -25.016 136.43 -9.29406C151.889 11.3533 159.069 33.543 157.852 56.9469C157.434 64.8189 157.106 64.9358 153.293 58.85C134.138 28.7137 88.887 48.5999 94.2134 84.8146C97.8431 109.177 127.874 115.273 149.293 96.0681C154.166 91.6304 157.681 112.898 155.845 136.322C154.276 155.975 154.928 154.774 148.329 152.273C119.993 141.299 114.788 145.37 124.639 170.63C129.025 181.955 131.488 198.951 131.47 218.795C131.496 226.395 135.648 224.55 141.803 214.327C148.437 203.137 160.441 189.925 172.371 180.389C189.214 166.685 185.8 162.339 183.019 163.64ZM142.545 91.168C124.131 101.297 100.118 84.5134 105.037 65.0682C108.158 52.5877 132.481 56.1221 142.228 70.4743C149.965 82.0067 150.034 87.1122 142.545 91.168Z" fill="#DFC147" fill-opacity="0.41"/>
</g>
</svg>
