<svg width="203" height="203" viewBox="0 0 203 203" fill="none" xmlns="http://www.w3.org/2000/svg">
<rect width="203" height="203" rx="30.0741" fill="#F2F2F2"/>
<circle cx="101.5" cy="101.5" r="101.5" fill="#F2F2F2"/>
<path fill-rule="evenodd" clip-rule="evenodd" d="M77.5811 63.3936C94.7029 61.9053 111.921 61.9053 129.043 63.3936L137.254 64.1074C145.112 64.7904 151.477 70.7693 152.65 78.5683C155.116 94.9705 155.116 111.649 152.65 128.052C152.434 129.486 152.042 130.86 151.498 132.15C151.137 133.005 150.023 133.135 149.399 132.448L125.36 106.004C124.273 104.809 122.585 104.368 121.052 104.879L107.292 109.465L87.3299 87.008C86.5838 86.1686 85.5245 85.6741 84.4019 85.6411C83.2793 85.6081 82.1928 86.0396 81.3987 86.8337L54.68 113.552C53.8576 114.375 52.4552 113.851 52.3896 112.69C51.7468 101.305 52.2752 89.8713 53.9749 78.5683C55.1477 70.7693 61.5127 64.7904 69.3698 64.1074L77.5811 63.3936ZM114.186 86.9986C114.186 82.4943 117.838 78.8429 122.342 78.8429C126.846 78.8429 130.498 82.4943 130.498 86.9986C130.498 91.5029 126.846 95.1543 122.342 95.1543C117.838 95.1543 114.186 91.5029 114.186 86.9986Z" fill="#646464"/>
<path d="M54.163 125.596C53.8621 125.897 53.7191 126.322 53.779 126.743C53.841 127.179 53.9048 127.614 53.9702 128.049C55.1429 135.848 61.508 141.827 69.365 142.51L77.5764 143.224C94.6982 144.712 111.917 144.712 129.039 143.224L137.25 142.51C139.559 142.309 141.739 141.651 143.696 140.624C144.438 140.235 144.562 139.255 143.999 138.635L121.702 114.108C121.34 113.71 120.777 113.563 120.267 113.733L107.316 118.05C105.768 118.566 104.062 118.11 102.978 116.891L85.0605 96.7335C84.541 96.149 83.6365 96.1224 83.0835 96.6759L54.163 125.596Z" fill="#646464"/>
</svg>
