<svg width="691" height="341" viewBox="0 0 691 341" fill="none" xmlns="http://www.w3.org/2000/svg">
<path fill-rule="evenodd" clip-rule="evenodd" d="M218.292 66.9157V39.7334C218.292 37.2477 216.824 34.9953 214.551 33.9876L140.687 1.22447L140.206 -4.80274e-05L139.865 0.860913L139.507 0.699219V1.92022L139.961 2.00589L139.559 2.16321L152.154 34.1833C152.731 35.6368 153.824 36.8246 155.222 37.5169L182.369 50.9437L155.213 64.3653C153.815 65.0576 152.722 66.2454 152.154 67.6989L139 101.128L180.901 82.6107C183.174 81.6047 184.642 79.3497 184.642 76.8605V51.9952L218.292 66.9157ZM183.96 50.1658L184.642 49.8661V50.4674L216.894 64.7683V39.7343C216.894 37.8 215.757 36.0485 213.992 35.2645L141.421 3.0757L153.457 33.672C153.902 34.8021 154.75 35.7268 155.834 36.2652L183.803 50.0942L183.96 50.1658ZM183.243 52.0686V76.8605C183.243 78.7965 182.107 80.5507 180.333 81.3329L141.543 98.4761L153.457 68.2111C153.894 67.0801 154.75 66.1562 155.834 65.6178L183.243 52.0686Z" fill="#E5E5FD" fill-opacity="0.29"/>
<path fill-rule="evenodd" clip-rule="evenodd" d="M277.292 66.9157V39.7334C277.292 37.2477 275.824 34.9953 273.551 33.9876L199.687 1.22447L199.206 -4.80274e-05L198.865 0.860913L198.507 0.699219V1.92022L198.961 2.00589L198.559 2.16321L211.154 34.1833C211.731 35.6368 212.824 36.8246 214.222 37.5169L241.369 50.9437L214.213 64.3653C212.815 65.0576 211.722 66.2454 211.154 67.6989L198 101.128L239.901 82.6107C242.174 81.6047 243.642 79.3497 243.642 76.8605V51.9952L277.292 66.9157ZM242.96 50.1658L243.642 49.8661V50.4674L275.894 64.7683V39.7343C275.894 37.8 274.757 36.0485 272.992 35.2645L200.421 3.0757L212.457 33.672C212.902 34.8021 213.75 35.7268 214.834 36.2652L242.803 50.0942L242.96 50.1658ZM242.243 52.0686V76.8605C242.243 78.7965 241.107 80.5507 239.333 81.3329L200.543 98.4761L212.457 68.2111C212.894 67.0801 213.75 66.1562 214.834 65.6178L242.243 52.0686Z" fill="#E5E5FD" fill-opacity="0.29"/>
<path fill-rule="evenodd" clip-rule="evenodd" d="M336.292 66.9157V39.7334C336.292 37.2477 334.824 34.9953 332.551 33.9876L258.687 1.22447L258.206 -4.80274e-05L257.865 0.860913L257.507 0.699219V1.92022L257.961 2.00589L257.559 2.16321L270.154 34.1833C270.731 35.6368 271.824 36.8246 273.222 37.5169L300.369 50.9437L273.213 64.3653C271.815 65.0576 270.722 66.2454 270.154 67.6989L257 101.128L298.901 82.6107C301.174 81.6047 302.642 79.3497 302.642 76.8605V51.9952L336.292 66.9157ZM301.96 50.1658L302.642 49.8661V50.4674L334.894 64.7683V39.7343C334.894 37.8 333.757 36.0485 331.992 35.2645L259.421 3.0757L271.457 33.672C271.902 34.8021 272.75 35.7268 273.834 36.2652L301.803 50.0942L301.96 50.1658ZM301.243 52.0686V76.8605C301.243 78.7965 300.107 80.5507 298.333 81.3329L259.543 98.4761L271.457 68.2111C271.894 67.0801 272.75 66.1562 273.834 65.6178L301.243 52.0686Z" fill="#E5E5FD" fill-opacity="0.29"/>
<path fill-rule="evenodd" clip-rule="evenodd" d="M395.292 66.9157V39.7334C395.292 37.2477 393.824 34.9953 391.551 33.9876L317.687 1.22447L317.206 -4.80274e-05L316.865 0.860913L316.507 0.699219V1.92022L316.961 2.00589L316.559 2.16321L329.154 34.1833C329.731 35.6368 330.824 36.8246 332.222 37.5169L359.369 50.9437L332.213 64.3653C330.815 65.0576 329.722 66.2454 329.154 67.6989L316 101.128L357.901 82.6107C360.174 81.6047 361.642 79.3497 361.642 76.8605V51.9952L395.292 66.9157ZM360.96 50.1658L361.642 49.8661V50.4674L393.894 64.7683V39.7343C393.894 37.8 392.757 36.0485 390.992 35.2645L318.421 3.0757L330.457 33.672C330.902 34.8021 331.75 35.7268 332.834 36.2652L360.803 50.0942L360.96 50.1658ZM360.243 52.0686V76.8605C360.243 78.7965 359.107 80.5507 357.333 81.3329L318.543 98.4761L330.457 68.2111C330.894 67.0801 331.75 66.1562 332.834 65.6178L360.243 52.0686Z" fill="#E5E5FD" fill-opacity="0.29"/>
<path fill-rule="evenodd" clip-rule="evenodd" d="M454.292 66.9157V39.7334C454.292 37.2477 452.824 34.9953 450.551 33.9876L376.687 1.22447L376.206 -4.80274e-05L375.865 0.860913L375.507 0.699219V1.92022L375.961 2.00589L375.559 2.16321L388.154 34.1833C388.731 35.6368 389.824 36.8246 391.222 37.5169L418.369 50.9437L391.213 64.3653C389.815 65.0576 388.722 66.2454 388.154 67.6989L375 101.128L416.901 82.6107C419.174 81.6047 420.642 79.3497 420.642 76.8605V51.9952L454.292 66.9157ZM419.96 50.1658L420.642 49.8661V50.4674L452.894 64.7683V39.7343C452.894 37.8 451.757 36.0485 449.992 35.2645L377.421 3.0757L389.457 33.672C389.902 34.8021 390.75 35.7268 391.834 36.2652L419.803 50.0942L419.96 50.1658ZM419.243 52.0686V76.8605C419.243 78.7965 418.107 80.5507 416.333 81.3329L377.543 98.4761L389.457 68.2111C389.894 67.0801 390.75 66.1562 391.834 65.6178L419.243 52.0686Z" fill="#E5E5FD" fill-opacity="0.29"/>
<path fill-rule="evenodd" clip-rule="evenodd" d="M513.292 66.9157V39.7334C513.292 37.2477 511.824 34.9953 509.551 33.9876L435.687 1.22447L435.206 -4.80274e-05L434.865 0.860913L434.507 0.699219V1.92022L434.961 2.00589L434.559 2.16321L447.154 34.1833C447.731 35.6368 448.824 36.8246 450.222 37.5169L477.369 50.9437L450.213 64.3653C448.815 65.0576 447.722 66.2454 447.154 67.6989L434 101.128L475.901 82.6107C478.174 81.6047 479.642 79.3497 479.642 76.8605V51.9952L513.292 66.9157ZM478.96 50.1658L479.642 49.8661V50.4674L511.894 64.7683V39.7343C511.894 37.8 510.757 36.0485 508.992 35.2645L436.421 3.0757L448.457 33.672C448.902 34.8021 449.75 35.7268 450.834 36.2652L478.803 50.0942L478.96 50.1658ZM478.243 52.0686V76.8605C478.243 78.7965 477.107 80.5507 475.333 81.3329L436.543 98.4761L448.457 68.2111C448.894 67.0801 449.75 66.1562 450.834 65.6178L478.243 52.0686Z" fill="#E5E5FD" fill-opacity="0.29"/>
<path fill-rule="evenodd" clip-rule="evenodd" d="M572.292 66.9157V39.7334C572.292 37.2477 570.824 34.9953 568.551 33.9876L494.687 1.22447L494.206 -4.80274e-05L493.865 0.860913L493.507 0.699219V1.92022L493.961 2.00589L493.559 2.16321L506.154 34.1833C506.731 35.6368 507.824 36.8246 509.222 37.5169L536.369 50.9437L509.213 64.3653C507.815 65.0576 506.722 66.2454 506.154 67.6989L493 101.128L534.901 82.6107C537.174 81.6047 538.642 79.3497 538.642 76.8605V51.9952L572.292 66.9157ZM537.96 50.1658L538.642 49.8661V50.4674L570.894 64.7683V39.7343C570.894 37.8 569.757 36.0485 567.992 35.2645L495.421 3.0757L507.457 33.672C507.902 34.8021 508.75 35.7268 509.834 36.2652L537.803 50.0942L537.96 50.1658ZM537.243 52.0686V76.8605C537.243 78.7965 536.107 80.5507 534.333 81.3329L495.543 98.4761L507.457 68.2111C507.894 67.0801 508.75 66.1562 509.834 65.6178L537.243 52.0686Z" fill="#E5E5FD" fill-opacity="0.29"/>
<path fill-rule="evenodd" clip-rule="evenodd" d="M631.292 66.9157V39.7334C631.292 37.2477 629.824 34.9953 627.551 33.9876L553.687 1.22447L553.206 -4.80274e-05L552.865 0.860913L552.507 0.699219V1.92022L552.961 2.00589L552.559 2.16321L565.154 34.1833C565.731 35.6368 566.824 36.8246 568.222 37.5169L595.369 50.9437L568.213 64.3653C566.815 65.0576 565.722 66.2454 565.154 67.6989L552 101.128L593.901 82.6107C596.174 81.6047 597.642 79.3497 597.642 76.8605V51.9952L631.292 66.9157ZM596.96 50.1658L597.642 49.8661V50.4674L629.894 64.7683V39.7343C629.894 37.8 628.757 36.0485 626.992 35.2645L554.421 3.0757L566.457 33.672C566.902 34.8021 567.75 35.7268 568.834 36.2652L596.803 50.0942L596.96 50.1658ZM596.243 52.0686V76.8605C596.243 78.7965 595.107 80.5507 593.333 81.3329L554.543 98.4761L566.457 68.2111C566.894 67.0801 567.75 66.1562 568.834 65.6178L596.243 52.0686Z" fill="#E5E5FD" fill-opacity="0.29"/>
<path fill-rule="evenodd" clip-rule="evenodd" d="M690.292 66.9157V39.7334C690.292 37.2477 688.824 34.9953 686.551 33.9876L612.687 1.22447L612.206 -4.80274e-05L611.865 0.860913L611.507 0.699219V1.92022L611.961 2.00589L611.559 2.16321L624.154 34.1833C624.731 35.6368 625.824 36.8246 627.222 37.5169L654.369 50.9437L627.213 64.3653C625.815 65.0576 624.722 66.2454 624.154 67.6989L611 101.128L652.901 82.6107C655.174 81.6047 656.642 79.3497 656.642 76.8605V51.9952L690.292 66.9157ZM655.96 50.1658L656.642 49.8661V50.4674L688.894 64.7683V39.7343C688.894 37.8 687.757 36.0485 685.992 35.2645L613.421 3.0757L625.457 33.672C625.902 34.8021 626.75 35.7268 627.834 36.2652L655.803 50.0942L655.96 50.1658ZM655.243 52.0686V76.8605C655.243 78.7965 654.107 80.5507 652.333 81.3329L613.543 98.4761L625.457 68.2111C625.894 67.0801 626.75 66.1562 627.834 65.6178L655.243 52.0686Z" fill="#E5E5FD" fill-opacity="0.29"/>
<path fill-rule="evenodd" clip-rule="evenodd" d="M188.292 152.916V125.733C188.292 123.248 186.824 120.995 184.551 119.988L110.687 87.2245L110.206 86L109.865 86.8609L109.507 86.6992V87.9202L109.961 88.0059L109.559 88.1632L122.154 120.183C122.731 121.637 123.824 122.825 125.222 123.517L152.369 136.944L125.213 150.365C123.815 151.058 122.722 152.245 122.154 153.699L109 187.128L150.901 168.611C153.174 167.605 154.642 165.35 154.642 162.861V137.995L188.292 152.916ZM153.96 136.166L154.642 135.866V136.467L186.894 150.768V125.734C186.894 123.8 185.757 122.049 183.992 121.265L111.421 89.0757L123.457 119.672C123.902 120.802 124.75 121.727 125.834 122.265L153.803 136.094L153.96 136.166ZM153.243 138.069V162.861C153.243 164.796 152.107 166.551 150.333 167.333L111.543 184.476L123.457 154.211C123.894 153.08 124.75 152.156 125.834 151.618L153.243 138.069Z" fill="#E5E5FD" fill-opacity="0.29"/>
<path fill-rule="evenodd" clip-rule="evenodd" d="M247.292 152.916V125.733C247.292 123.248 245.824 120.995 243.551 119.988L169.687 87.2245L169.206 86L168.865 86.8609L168.507 86.6992V87.9202L168.961 88.0059L168.559 88.1632L181.154 120.183C181.731 121.637 182.824 122.825 184.222 123.517L211.369 136.944L184.213 150.365C182.815 151.058 181.722 152.245 181.154 153.699L168 187.128L209.901 168.611C212.174 167.605 213.642 165.35 213.642 162.861V137.995L247.292 152.916ZM212.96 136.166L213.642 135.866V136.467L245.894 150.768V125.734C245.894 123.8 244.757 122.049 242.992 121.265L170.421 89.0757L182.457 119.672C182.902 120.802 183.75 121.727 184.834 122.265L212.803 136.094L212.96 136.166ZM212.243 138.069V162.861C212.243 164.796 211.107 166.551 209.333 167.333L170.543 184.476L182.457 154.211C182.894 153.08 183.75 152.156 184.834 151.618L212.243 138.069Z" fill="#E5E5FD" fill-opacity="0.29"/>
<path fill-rule="evenodd" clip-rule="evenodd" d="M306.292 152.916V125.733C306.292 123.248 304.824 120.995 302.551 119.988L228.687 87.2245L228.206 86L227.865 86.8609L227.507 86.6992V87.9202L227.961 88.0059L227.559 88.1632L240.154 120.183C240.731 121.637 241.824 122.825 243.222 123.517L270.369 136.944L243.213 150.365C241.815 151.058 240.722 152.245 240.154 153.699L227 187.128L268.901 168.611C271.174 167.605 272.642 165.35 272.642 162.861V137.995L306.292 152.916ZM271.96 136.166L272.642 135.866V136.467L304.894 150.768V125.734C304.894 123.8 303.757 122.049 301.992 121.265L229.421 89.0757L241.457 119.672C241.902 120.802 242.75 121.727 243.834 122.265L271.803 136.094L271.96 136.166ZM271.243 138.069V162.861C271.243 164.796 270.107 166.551 268.333 167.333L229.543 184.476L241.457 154.211C241.894 153.08 242.75 152.156 243.834 151.618L271.243 138.069Z" fill="#E5E5FD" fill-opacity="0.29"/>
<path fill-rule="evenodd" clip-rule="evenodd" d="M365.292 152.916V125.733C365.292 123.248 363.824 120.995 361.551 119.988L287.687 87.2245L287.206 86L286.865 86.8609L286.507 86.6992V87.9202L286.961 88.0059L286.559 88.1632L299.154 120.183C299.731 121.637 300.824 122.825 302.222 123.517L329.369 136.944L302.213 150.365C300.815 151.058 299.722 152.245 299.154 153.699L286 187.128L327.901 168.611C330.174 167.605 331.642 165.35 331.642 162.861V137.995L365.292 152.916ZM330.96 136.166L331.642 135.866V136.467L363.894 150.768V125.734C363.894 123.8 362.757 122.049 360.992 121.265L288.421 89.0757L300.457 119.672C300.902 120.802 301.75 121.727 302.834 122.265L330.803 136.094L330.96 136.166ZM330.243 138.069V162.861C330.243 164.796 329.107 166.551 327.333 167.333L288.543 184.476L300.457 154.211C300.894 153.08 301.75 152.156 302.834 151.618L330.243 138.069Z" fill="#E5E5FD" fill-opacity="0.29"/>
<path fill-rule="evenodd" clip-rule="evenodd" d="M424.292 152.916V125.733C424.292 123.248 422.824 120.995 420.551 119.988L346.687 87.2245L346.206 86L345.865 86.8609L345.507 86.6992V87.9202L345.961 88.0059L345.559 88.1632L358.154 120.183C358.731 121.637 359.824 122.825 361.222 123.517L388.369 136.944L361.213 150.365C359.815 151.058 358.722 152.245 358.154 153.699L345 187.128L386.901 168.611C389.174 167.605 390.642 165.35 390.642 162.861V137.995L424.292 152.916ZM389.96 136.166L390.642 135.866V136.467L422.894 150.768V125.734C422.894 123.8 421.757 122.049 419.992 121.265L347.421 89.0757L359.457 119.672C359.902 120.802 360.75 121.727 361.834 122.265L389.803 136.094L389.96 136.166ZM389.243 138.069V162.861C389.243 164.796 388.107 166.551 386.333 167.333L347.543 184.476L359.457 154.211C359.894 153.08 360.75 152.156 361.834 151.618L389.243 138.069Z" fill="#E5E5FD" fill-opacity="0.29"/>
<path fill-rule="evenodd" clip-rule="evenodd" d="M483.292 152.916V125.733C483.292 123.248 481.824 120.995 479.551 119.988L405.687 87.2245L405.206 86L404.865 86.8609L404.507 86.6992V87.9202L404.961 88.0059L404.559 88.1632L417.154 120.183C417.731 121.637 418.824 122.825 420.222 123.517L447.369 136.944L420.213 150.365C418.815 151.058 417.722 152.245 417.154 153.699L404 187.128L445.901 168.611C448.174 167.605 449.642 165.35 449.642 162.861V137.995L483.292 152.916ZM448.96 136.166L449.642 135.866V136.467L481.894 150.768V125.734C481.894 123.8 480.757 122.049 478.992 121.265L406.421 89.0757L418.457 119.672C418.902 120.802 419.75 121.727 420.834 122.265L448.803 136.094L448.96 136.166ZM448.243 138.069V162.861C448.243 164.796 447.107 166.551 445.333 167.333L406.543 184.476L418.457 154.211C418.894 153.08 419.75 152.156 420.834 151.618L448.243 138.069Z" fill="#E5E5FD" fill-opacity="0.29"/>
<path fill-rule="evenodd" clip-rule="evenodd" d="M542.292 152.916V125.733C542.292 123.248 540.824 120.995 538.551 119.988L464.687 87.2245L464.206 86L463.865 86.8609L463.507 86.6992V87.9202L463.961 88.0059L463.559 88.1632L476.154 120.183C476.731 121.637 477.824 122.825 479.222 123.517L506.369 136.944L479.213 150.365C477.815 151.058 476.722 152.245 476.154 153.699L463 187.128L504.901 168.611C507.174 167.605 508.642 165.35 508.642 162.861V137.995L542.292 152.916ZM507.96 136.166L508.642 135.866V136.467L540.894 150.768V125.734C540.894 123.8 539.757 122.049 537.992 121.265L465.421 89.0757L477.457 119.672C477.902 120.802 478.75 121.727 479.834 122.265L507.803 136.094L507.96 136.166ZM507.243 138.069V162.861C507.243 164.796 506.107 166.551 504.333 167.333L465.543 184.476L477.457 154.211C477.894 153.08 478.75 152.156 479.834 151.618L507.243 138.069Z" fill="#E5E5FD" fill-opacity="0.29"/>
<path fill-rule="evenodd" clip-rule="evenodd" d="M601.292 152.916V125.733C601.292 123.248 599.824 120.995 597.551 119.988L523.687 87.2245L523.206 86L522.865 86.8609L522.507 86.6992V87.9202L522.961 88.0059L522.559 88.1632L535.154 120.183C535.731 121.637 536.824 122.825 538.222 123.517L565.369 136.944L538.213 150.365C536.815 151.058 535.722 152.245 535.154 153.699L522 187.128L563.901 168.611C566.174 167.605 567.642 165.35 567.642 162.861V137.995L601.292 152.916ZM566.96 136.166L567.642 135.866V136.467L599.894 150.768V125.734C599.894 123.8 598.757 122.049 596.992 121.265L524.421 89.0757L536.457 119.672C536.902 120.802 537.75 121.727 538.834 122.265L566.803 136.094L566.96 136.166ZM566.243 138.069V162.861C566.243 164.796 565.107 166.551 563.333 167.333L524.543 184.476L536.457 154.211C536.894 153.08 537.75 152.156 538.834 151.618L566.243 138.069Z" fill="#E5E5FD" fill-opacity="0.29"/>
<path fill-rule="evenodd" clip-rule="evenodd" d="M660.292 152.916V125.733C660.292 123.248 658.824 120.995 656.551 119.988L582.687 87.2245L582.206 86L581.865 86.8609L581.507 86.6992V87.9202L581.961 88.0059L581.559 88.1632L594.154 120.183C594.731 121.637 595.824 122.825 597.222 123.517L624.369 136.944L597.213 150.365C595.815 151.058 594.722 152.245 594.154 153.699L581 187.128L622.901 168.611C625.174 167.605 626.642 165.35 626.642 162.861V137.995L660.292 152.916ZM625.96 136.166L626.642 135.866V136.467L658.894 150.768V125.734C658.894 123.8 657.757 122.049 655.992 121.265L583.421 89.0757L595.457 119.672C595.902 120.802 596.75 121.727 597.834 122.265L625.803 136.094L625.96 136.166ZM625.243 138.069V162.861C625.243 164.796 624.107 166.551 622.333 167.333L583.543 184.476L595.457 154.211C595.894 153.08 596.75 152.156 597.834 151.618L625.243 138.069Z" fill="#E5E5FD" fill-opacity="0.29"/>
<path fill-rule="evenodd" clip-rule="evenodd" d="M119.292 238.916V211.733C119.292 209.248 117.824 206.995 115.551 205.988L41.6869 173.224L41.2062 172L40.8653 172.861L40.507 172.699V173.92L40.9614 174.006L40.5594 174.163L53.1542 206.183C53.7311 207.637 54.8236 208.825 56.2221 209.517L83.3694 222.944L56.2133 236.365C54.8149 237.058 53.7223 238.245 53.1542 239.699L40 273.128L81.9011 254.611C84.1736 253.605 85.6419 251.35 85.6419 248.861V223.995L119.292 238.916ZM84.9602 222.166L85.6419 221.866V222.467L117.894 236.768V211.734C117.894 209.8 116.757 208.049 114.992 207.265L42.4211 175.076L54.4565 205.672C54.9023 206.802 55.75 207.727 56.8338 208.265L84.8028 222.094L84.9602 222.166ZM84.2434 224.069V248.861C84.2434 250.796 83.1072 252.551 81.3329 253.333L42.5435 270.476L54.4565 240.211C54.8935 239.08 55.75 238.156 56.8338 237.618L84.2434 224.069Z" fill="#E5E5FD" fill-opacity="0.29"/>
<path fill-rule="evenodd" clip-rule="evenodd" d="M178.292 238.916V211.733C178.292 209.248 176.824 206.995 174.551 205.988L100.687 173.224L100.206 172L99.8653 172.861L99.507 172.699V173.92L99.9614 174.006L99.5594 174.163L112.154 206.183C112.731 207.637 113.824 208.825 115.222 209.517L142.369 222.944L115.213 236.365C113.815 237.058 112.722 238.245 112.154 239.699L99 273.128L140.901 254.611C143.174 253.605 144.642 251.35 144.642 248.861V223.995L178.292 238.916ZM143.96 222.166L144.642 221.866V222.467L176.894 236.768V211.734C176.894 209.8 175.757 208.049 173.992 207.265L101.421 175.076L113.457 205.672C113.902 206.802 114.75 207.727 115.834 208.265L143.803 222.094L143.96 222.166ZM143.243 224.069V248.861C143.243 250.796 142.107 252.551 140.333 253.333L101.543 270.476L113.457 240.211C113.894 239.08 114.75 238.156 115.834 237.618L143.243 224.069Z" fill="#E5E5FD" fill-opacity="0.29"/>
<path fill-rule="evenodd" clip-rule="evenodd" d="M237.292 238.916V211.733C237.292 209.248 235.824 206.995 233.551 205.988L159.687 173.224L159.206 172L158.865 172.861L158.507 172.699V173.92L158.961 174.006L158.559 174.163L171.154 206.183C171.731 207.637 172.824 208.825 174.222 209.517L201.369 222.944L174.213 236.365C172.815 237.058 171.722 238.245 171.154 239.699L158 273.128L199.901 254.611C202.174 253.605 203.642 251.35 203.642 248.861V223.995L237.292 238.916ZM202.96 222.166L203.642 221.866V222.467L235.894 236.768V211.734C235.894 209.8 234.757 208.049 232.992 207.265L160.421 175.076L172.457 205.672C172.902 206.802 173.75 207.727 174.834 208.265L202.803 222.094L202.96 222.166ZM202.243 224.069V248.861C202.243 250.796 201.107 252.551 199.333 253.333L160.543 270.476L172.457 240.211C172.894 239.08 173.75 238.156 174.834 237.618L202.243 224.069Z" fill="#E5E5FD" fill-opacity="0.29"/>
<path fill-rule="evenodd" clip-rule="evenodd" d="M296.292 238.916V211.733C296.292 209.248 294.824 206.995 292.551 205.988L218.687 173.224L218.206 172L217.865 172.861L217.507 172.699V173.92L217.961 174.006L217.559 174.163L230.154 206.183C230.731 207.637 231.824 208.825 233.222 209.517L260.369 222.944L233.213 236.365C231.815 237.058 230.722 238.245 230.154 239.699L217 273.128L258.901 254.611C261.174 253.605 262.642 251.35 262.642 248.861V223.995L296.292 238.916ZM261.96 222.166L262.642 221.866V222.467L294.894 236.768V211.734C294.894 209.8 293.757 208.049 291.992 207.265L219.421 175.076L231.457 205.672C231.902 206.802 232.75 207.727 233.834 208.265L261.803 222.094L261.96 222.166ZM261.243 224.069V248.861C261.243 250.796 260.107 252.551 258.333 253.333L219.543 270.476L231.457 240.211C231.894 239.08 232.75 238.156 233.834 237.618L261.243 224.069Z" fill="#E5E5FD" fill-opacity="0.29"/>
<path fill-rule="evenodd" clip-rule="evenodd" d="M355.292 238.916V211.733C355.292 209.248 353.824 206.995 351.551 205.988L277.687 173.224L277.206 172L276.865 172.861L276.507 172.699V173.92L276.961 174.006L276.559 174.163L289.154 206.183C289.731 207.637 290.824 208.825 292.222 209.517L319.369 222.944L292.213 236.365C290.815 237.058 289.722 238.245 289.154 239.699L276 273.128L317.901 254.611C320.174 253.605 321.642 251.35 321.642 248.861V223.995L355.292 238.916ZM320.96 222.166L321.642 221.866V222.467L353.894 236.768V211.734C353.894 209.8 352.757 208.049 350.992 207.265L278.421 175.076L290.457 205.672C290.902 206.802 291.75 207.727 292.834 208.265L320.803 222.094L320.96 222.166ZM320.243 224.069V248.861C320.243 250.796 319.107 252.551 317.333 253.333L278.543 270.476L290.457 240.211C290.894 239.08 291.75 238.156 292.834 237.618L320.243 224.069Z" fill="#E5E5FD" fill-opacity="0.29"/>
<path fill-rule="evenodd" clip-rule="evenodd" d="M414.292 238.916V211.733C414.292 209.248 412.824 206.995 410.551 205.988L336.687 173.224L336.206 172L335.865 172.861L335.507 172.699V173.92L335.961 174.006L335.559 174.163L348.154 206.183C348.731 207.637 349.824 208.825 351.222 209.517L378.369 222.944L351.213 236.365C349.815 237.058 348.722 238.245 348.154 239.699L335 273.128L376.901 254.611C379.174 253.605 380.642 251.35 380.642 248.861V223.995L414.292 238.916ZM379.96 222.166L380.642 221.866V222.467L412.894 236.768V211.734C412.894 209.8 411.757 208.049 409.992 207.265L337.421 175.076L349.457 205.672C349.902 206.802 350.75 207.727 351.834 208.265L379.803 222.094L379.96 222.166ZM379.243 224.069V248.861C379.243 250.796 378.107 252.551 376.333 253.333L337.543 270.476L349.457 240.211C349.894 239.08 350.75 238.156 351.834 237.618L379.243 224.069Z" fill="#E5E5FD" fill-opacity="0.29"/>
<path fill-rule="evenodd" clip-rule="evenodd" d="M473.292 238.916V211.733C473.292 209.248 471.824 206.995 469.551 205.988L395.687 173.224L395.206 172L394.865 172.861L394.507 172.699V173.92L394.961 174.006L394.559 174.163L407.154 206.183C407.731 207.637 408.824 208.825 410.222 209.517L437.369 222.944L410.213 236.365C408.815 237.058 407.722 238.245 407.154 239.699L394 273.128L435.901 254.611C438.174 253.605 439.642 251.35 439.642 248.861V223.995L473.292 238.916ZM438.96 222.166L439.642 221.866V222.467L471.894 236.768V211.734C471.894 209.8 470.757 208.049 468.992 207.265L396.421 175.076L408.457 205.672C408.902 206.802 409.75 207.727 410.834 208.265L438.803 222.094L438.96 222.166ZM438.243 224.069V248.861C438.243 250.796 437.107 252.551 435.333 253.333L396.543 270.476L408.457 240.211C408.894 239.08 409.75 238.156 410.834 237.618L438.243 224.069Z" fill="#E5E5FD" fill-opacity="0.29"/>
<path fill-rule="evenodd" clip-rule="evenodd" d="M532.292 238.916V211.733C532.292 209.248 530.824 206.995 528.551 205.988L454.687 173.224L454.206 172L453.865 172.861L453.507 172.699V173.92L453.961 174.006L453.559 174.163L466.154 206.183C466.731 207.637 467.824 208.825 469.222 209.517L496.369 222.944L469.213 236.365C467.815 237.058 466.722 238.245 466.154 239.699L453 273.128L494.901 254.611C497.174 253.605 498.642 251.35 498.642 248.861V223.995L532.292 238.916ZM497.96 222.166L498.642 221.866V222.467L530.894 236.768V211.734C530.894 209.8 529.757 208.049 527.992 207.265L455.421 175.076L467.457 205.672C467.902 206.802 468.75 207.727 469.834 208.265L497.803 222.094L497.96 222.166ZM497.243 224.069V248.861C497.243 250.796 496.107 252.551 494.333 253.333L455.543 270.476L467.457 240.211C467.894 239.08 468.75 238.156 469.834 237.618L497.243 224.069Z" fill="#E5E5FD" fill-opacity="0.29"/>
<path fill-rule="evenodd" clip-rule="evenodd" d="M591.292 238.916V211.733C591.292 209.248 589.824 206.995 587.551 205.988L513.687 173.224L513.206 172L512.865 172.861L512.507 172.699V173.92L512.961 174.006L512.559 174.163L525.154 206.183C525.731 207.637 526.824 208.825 528.222 209.517L555.369 222.944L528.213 236.365C526.815 237.058 525.722 238.245 525.154 239.699L512 273.128L553.901 254.611C556.174 253.605 557.642 251.35 557.642 248.861V223.995L591.292 238.916ZM556.96 222.166L557.642 221.866V222.467L589.894 236.768V211.734C589.894 209.8 588.757 208.049 586.992 207.265L514.421 175.076L526.457 205.672C526.902 206.802 527.75 207.727 528.834 208.265L556.803 222.094L556.96 222.166ZM556.243 224.069V248.861C556.243 250.796 555.107 252.551 553.333 253.333L514.543 270.476L526.457 240.211C526.894 239.08 527.75 238.156 528.834 237.618L556.243 224.069Z" fill="#E5E5FD" fill-opacity="0.29"/>
<path fill-rule="evenodd" clip-rule="evenodd" d="M79.292 305.916V278.733C79.292 276.248 77.8238 273.995 75.5513 272.988L1.68693 240.224L1.20617 239L0.865282 239.861L0.507006 239.699V240.92L0.961413 241.006L0.559392 241.163L13.1542 273.183C13.7311 274.637 14.8236 275.825 16.2221 276.517L43.3694 289.944L16.2133 303.365C14.8149 304.058 13.7223 305.245 13.1542 306.699L0 340.128L41.9011 321.611C44.1736 320.605 45.6419 318.35 45.6419 315.861V290.995L79.292 305.916ZM44.9602 289.166L45.6419 288.866V289.467L77.8936 303.768V278.734C77.8936 276.8 76.7574 275.049 74.9919 274.265L2.42108 242.076L14.4565 272.672C14.9023 273.802 15.75 274.727 16.8338 275.265L44.8028 289.094L44.9602 289.166ZM44.2434 291.069V315.861C44.2434 317.796 43.1072 319.551 41.3329 320.333L2.54346 337.476L14.4565 307.211C14.8935 306.08 15.75 305.156 16.8338 304.618L44.2434 291.069Z" fill="#E5E5FD" fill-opacity="0.29"/>
<path fill-rule="evenodd" clip-rule="evenodd" d="M138.292 305.916V278.733C138.292 276.248 136.824 273.995 134.551 272.988L60.6869 240.224L60.2062 239L59.8653 239.861L59.507 239.699V240.92L59.9614 241.006L59.5594 241.163L72.1542 273.183C72.7311 274.637 73.8236 275.825 75.2221 276.517L102.369 289.944L75.2133 303.365C73.8149 304.058 72.7223 305.245 72.1542 306.699L59 340.128L100.901 321.611C103.174 320.605 104.642 318.35 104.642 315.861V290.995L138.292 305.916ZM103.96 289.166L104.642 288.866V289.467L136.894 303.768V278.734C136.894 276.8 135.757 275.049 133.992 274.265L61.4211 242.076L73.4565 272.672C73.9023 273.802 74.75 274.727 75.8338 275.265L103.803 289.094L103.96 289.166ZM103.243 291.069V315.861C103.243 317.796 102.107 319.551 100.333 320.333L61.5435 337.476L73.4565 307.211C73.8935 306.08 74.75 305.156 75.8338 304.618L103.243 291.069Z" fill="#E5E5FD" fill-opacity="0.29"/>
<path fill-rule="evenodd" clip-rule="evenodd" d="M197.292 305.916V278.733C197.292 276.248 195.824 273.995 193.551 272.988L119.687 240.224L119.206 239L118.865 239.861L118.507 239.699V240.92L118.961 241.006L118.559 241.163L131.154 273.183C131.731 274.637 132.824 275.825 134.222 276.517L161.369 289.944L134.213 303.365C132.815 304.058 131.722 305.245 131.154 306.699L118 340.128L159.901 321.611C162.174 320.605 163.642 318.35 163.642 315.861V290.995L197.292 305.916ZM162.96 289.166L163.642 288.866V289.467L195.894 303.768V278.734C195.894 276.8 194.757 275.049 192.992 274.265L120.421 242.076L132.457 272.672C132.902 273.802 133.75 274.727 134.834 275.265L162.803 289.094L162.96 289.166ZM162.243 291.069V315.861C162.243 317.796 161.107 319.551 159.333 320.333L120.543 337.476L132.457 307.211C132.894 306.08 133.75 305.156 134.834 304.618L162.243 291.069Z" fill="#E5E5FD" fill-opacity="0.29"/>
<path fill-rule="evenodd" clip-rule="evenodd" d="M256.292 305.916V278.733C256.292 276.248 254.824 273.995 252.551 272.988L178.687 240.224L178.206 239L177.865 239.861L177.507 239.699V240.92L177.961 241.006L177.559 241.163L190.154 273.183C190.731 274.637 191.824 275.825 193.222 276.517L220.369 289.944L193.213 303.365C191.815 304.058 190.722 305.245 190.154 306.699L177 340.128L218.901 321.611C221.174 320.605 222.642 318.35 222.642 315.861V290.995L256.292 305.916ZM221.96 289.166L222.642 288.866V289.467L254.894 303.768V278.734C254.894 276.8 253.757 275.049 251.992 274.265L179.421 242.076L191.457 272.672C191.902 273.802 192.75 274.727 193.834 275.265L221.803 289.094L221.96 289.166ZM221.243 291.069V315.861C221.243 317.796 220.107 319.551 218.333 320.333L179.543 337.476L191.457 307.211C191.894 306.08 192.75 305.156 193.834 304.618L221.243 291.069Z" fill="#E5E5FD" fill-opacity="0.29"/>
<path fill-rule="evenodd" clip-rule="evenodd" d="M315.292 305.916V278.733C315.292 276.248 313.824 273.995 311.551 272.988L237.687 240.224L237.206 239L236.865 239.861L236.507 239.699V240.92L236.961 241.006L236.559 241.163L249.154 273.183C249.731 274.637 250.824 275.825 252.222 276.517L279.369 289.944L252.213 303.365C250.815 304.058 249.722 305.245 249.154 306.699L236 340.128L277.901 321.611C280.174 320.605 281.642 318.35 281.642 315.861V290.995L315.292 305.916ZM280.96 289.166L281.642 288.866V289.467L313.894 303.768V278.734C313.894 276.8 312.757 275.049 310.992 274.265L238.421 242.076L250.457 272.672C250.902 273.802 251.75 274.727 252.834 275.265L280.803 289.094L280.96 289.166ZM280.243 291.069V315.861C280.243 317.796 279.107 319.551 277.333 320.333L238.543 337.476L250.457 307.211C250.894 306.08 251.75 305.156 252.834 304.618L280.243 291.069Z" fill="#E5E5FD" fill-opacity="0.29"/>
<path fill-rule="evenodd" clip-rule="evenodd" d="M374.292 305.916V278.733C374.292 276.248 372.824 273.995 370.551 272.988L296.687 240.224L296.206 239L295.865 239.861L295.507 239.699V240.92L295.961 241.006L295.559 241.163L308.154 273.183C308.731 274.637 309.824 275.825 311.222 276.517L338.369 289.944L311.213 303.365C309.815 304.058 308.722 305.245 308.154 306.699L295 340.128L336.901 321.611C339.174 320.605 340.642 318.35 340.642 315.861V290.995L374.292 305.916ZM339.96 289.166L340.642 288.866V289.467L372.894 303.768V278.734C372.894 276.8 371.757 275.049 369.992 274.265L297.421 242.076L309.457 272.672C309.902 273.802 310.75 274.727 311.834 275.265L339.803 289.094L339.96 289.166ZM339.243 291.069V315.861C339.243 317.796 338.107 319.551 336.333 320.333L297.543 337.476L309.457 307.211C309.894 306.08 310.75 305.156 311.834 304.618L339.243 291.069Z" fill="#E5E5FD" fill-opacity="0.29"/>
<path fill-rule="evenodd" clip-rule="evenodd" d="M433.292 305.916V278.733C433.292 276.248 431.824 273.995 429.551 272.988L355.687 240.224L355.206 239L354.865 239.861L354.507 239.699V240.92L354.961 241.006L354.559 241.163L367.154 273.183C367.731 274.637 368.824 275.825 370.222 276.517L397.369 289.944L370.213 303.365C368.815 304.058 367.722 305.245 367.154 306.699L354 340.128L395.901 321.611C398.174 320.605 399.642 318.35 399.642 315.861V290.995L433.292 305.916ZM398.96 289.166L399.642 288.866V289.467L431.894 303.768V278.734C431.894 276.8 430.757 275.049 428.992 274.265L356.421 242.076L368.457 272.672C368.902 273.802 369.75 274.727 370.834 275.265L398.803 289.094L398.96 289.166ZM398.243 291.069V315.861C398.243 317.796 397.107 319.551 395.333 320.333L356.543 337.476L368.457 307.211C368.894 306.08 369.75 305.156 370.834 304.618L398.243 291.069Z" fill="#E5E5FD" fill-opacity="0.29"/>
<path fill-rule="evenodd" clip-rule="evenodd" d="M492.292 305.916V278.733C492.292 276.248 490.824 273.995 488.551 272.988L414.687 240.224L414.206 239L413.865 239.861L413.507 239.699V240.92L413.961 241.006L413.559 241.163L426.154 273.183C426.731 274.637 427.824 275.825 429.222 276.517L456.369 289.944L429.213 303.365C427.815 304.058 426.722 305.245 426.154 306.699L413 340.128L454.901 321.611C457.174 320.605 458.642 318.35 458.642 315.861V290.995L492.292 305.916ZM457.96 289.166L458.642 288.866V289.467L490.894 303.768V278.734C490.894 276.8 489.757 275.049 487.992 274.265L415.421 242.076L427.457 272.672C427.902 273.802 428.75 274.727 429.834 275.265L457.803 289.094L457.96 289.166ZM457.243 291.069V315.861C457.243 317.796 456.107 319.551 454.333 320.333L415.543 337.476L427.457 307.211C427.894 306.08 428.75 305.156 429.834 304.618L457.243 291.069Z" fill="#E5E5FD" fill-opacity="0.29"/>
<path fill-rule="evenodd" clip-rule="evenodd" d="M551.292 305.916V278.733C551.292 276.248 549.824 273.995 547.551 272.988L473.687 240.224L473.206 239L472.865 239.861L472.507 239.699V240.92L472.961 241.006L472.559 241.163L485.154 273.183C485.731 274.637 486.824 275.825 488.222 276.517L515.369 289.944L488.213 303.365C486.815 304.058 485.722 305.245 485.154 306.699L472 340.128L513.901 321.611C516.174 320.605 517.642 318.35 517.642 315.861V290.995L551.292 305.916ZM516.96 289.166L517.642 288.866V289.467L549.894 303.768V278.734C549.894 276.8 548.757 275.049 546.992 274.265L474.421 242.076L486.457 272.672C486.902 273.802 487.75 274.727 488.834 275.265L516.803 289.094L516.96 289.166ZM516.243 291.069V315.861C516.243 317.796 515.107 319.551 513.333 320.333L474.543 337.476L486.457 307.211C486.894 306.08 487.75 305.156 488.834 304.618L516.243 291.069Z" fill="#E5E5FD" fill-opacity="0.29"/>
</svg>
