<svg width="160" height="160" viewBox="0 0 160 160" fill="none" xmlns="http://www.w3.org/2000/svg">
<g clip-path="url(#clip0_76_1113)">
<mask id="mask0_76_1113" style="mask-type:luminance" maskUnits="userSpaceOnUse" x="0" y="0" width="160" height="160">
<path d="M160 0H0V160H160V0Z" fill="white"/>
</mask>
<g mask="url(#mask0_76_1113)">
<path d="M158.596 61.1872C158.539 61.1873 158.483 61.1677 158.436 61.1312L80.8056 0.904351C80.5693 0.721923 80.2886 0.624429 80.0011 0.624976C79.7137 0.625522 79.4332 0.72408 79.1976 0.907404L2.12618 61.1306C2.06522 61.1782 1.98977 61.1969 1.91643 61.1826C1.84309 61.1683 1.77787 61.122 1.73511 61.0541C1.69235 60.9862 1.67556 60.9022 1.68843 60.8205C1.7013 60.7388 1.74278 60.6661 1.80374 60.6185L78.8752 0.395299C79.2052 0.138683 79.5978 0.000739727 80.0002 2.96676e-06C80.4027 -0.000733793 80.7957 0.13577 81.1264 0.391177L158.757 60.6179C158.806 60.6559 158.843 60.7105 158.862 60.7735C158.881 60.8365 158.882 60.9047 158.864 60.9682C158.846 61.0318 158.811 61.0873 158.763 61.1267C158.714 61.166 158.656 61.1873 158.596 61.1872Z" fill="#3F3D56"/>
<path d="M6.53027 63.3221L80.0775 2.60132L154.183 67.6426L83.867 114.078L45.6915 104.385L6.53027 63.3221Z" fill="#E6E6E6"/>
<path d="M48.9138 142.76H12.5797C12.3566 142.76 12.1356 142.711 11.9294 142.617C11.7232 142.522 11.5358 142.382 11.378 142.207C11.2201 142.031 11.0949 141.823 11.0094 141.593C10.924 141.363 10.88 141.117 10.88 140.869C10.88 140.62 10.924 140.374 11.0094 140.145C11.0949 139.915 11.2201 139.706 11.378 139.531C11.5358 139.355 11.7232 139.216 11.9294 139.121C12.1356 139.026 12.3566 138.977 12.5797 138.978H48.9138C49.1369 138.977 49.3579 139.026 49.5641 139.121C49.7703 139.216 49.9577 139.355 50.1155 139.531C50.2734 139.706 50.3986 139.915 50.4841 140.145C50.5695 140.374 50.6135 140.62 50.6135 140.869C50.6135 141.117 50.5695 141.363 50.4841 141.593C50.3986 141.823 50.2734 142.031 50.1155 142.207C49.9577 142.382 49.7703 142.522 49.5641 142.617C49.3579 142.711 49.1369 142.76 48.9138 142.76Z" fill="#7D7BF7"/>
<path d="M25.6156 134.63H12.5797C12.3566 134.63 12.1356 134.581 11.9294 134.486C11.7232 134.392 11.5358 134.252 11.378 134.077C11.2201 133.901 11.0949 133.692 11.0094 133.463C10.924 133.233 10.88 132.987 10.88 132.739C10.88 132.49 10.924 132.244 11.0094 132.014C11.0949 131.785 11.2201 131.576 11.378 131.401C11.5358 131.225 11.7232 131.086 11.9294 130.991C12.1356 130.896 12.3566 130.847 12.5797 130.848H25.6156C25.8387 130.847 26.0596 130.896 26.2658 130.991C26.4721 131.086 26.6594 131.225 26.8173 131.401C26.9752 131.576 27.1004 131.785 27.1858 132.014C27.2713 132.244 27.3153 132.49 27.3153 132.739C27.3153 132.987 27.2713 133.233 27.1858 133.463C27.1004 133.692 26.9752 133.901 26.8173 134.077C26.6594 134.252 26.4721 134.392 26.2658 134.486C26.0596 134.581 25.8387 134.63 25.6156 134.63Z" fill="#7D7BF7"/>
<path d="M81.1116 97.1428C80.8354 97.1432 80.5618 97.0835 80.3062 96.9671L34.9474 76.001V10.3737C34.948 9.79338 35.1552 9.23702 35.5236 8.82667C35.8919 8.41632 36.3914 8.18549 36.9123 8.18481H123.93C124.451 8.18549 124.95 8.41632 125.319 8.82667C125.687 9.23702 125.894 9.79338 125.895 10.3737V76.0468L125.809 76.0874L81.9413 96.9568C81.6786 97.0798 81.3965 97.1431 81.1116 97.1428Z" fill="white"/>
<path d="M81.1117 97.299C80.8172 97.2994 80.5255 97.2358 80.2528 97.1118L34.8071 76.1054V10.3737C34.8078 9.7519 35.0298 9.15579 35.4244 8.71613C35.8191 8.27646 36.3542 8.02915 36.9124 8.02844H123.93C124.488 8.02915 125.023 8.27646 125.418 8.71613C125.813 9.15579 126.035 9.7519 126.035 10.3737V76.15L81.9965 97.1005C81.7164 97.2318 81.4156 97.2993 81.1117 97.299ZM35.3685 75.6877L80.4669 96.5336C80.8876 96.7237 81.3587 96.7206 81.7772 96.5249L125.474 75.7372V10.3737C125.473 9.91772 125.311 9.48058 125.021 9.15817C124.732 8.83575 124.339 8.65438 123.93 8.65384H36.9124C36.5031 8.65438 36.1107 8.83575 35.8213 9.15817C35.5318 9.48058 35.369 9.91772 35.3685 10.3737V75.6877Z" fill="#3F3D56"/>
<path d="M158.035 60.5619H157.979L125.754 75.8904L81.6646 96.8631C81.4923 96.9438 81.3075 96.9859 81.1206 96.987C80.9337 96.9881 80.7484 96.9481 80.5754 96.8693L35.0877 75.8466L2.07155 60.5869L2.02111 60.5619H1.96491C1.44396 60.5625 0.944513 60.7934 0.576146 61.2037C0.207779 61.6141 0.000578035 62.1704 0 62.7508V157.811C0.000578777 158.391 0.207779 158.948 0.576146 159.358C0.944513 159.769 1.44396 159.999 1.96491 160H158.035C158.556 159.999 159.055 159.769 159.424 159.358C159.792 158.948 159.999 158.391 160 157.811V62.7508C159.999 62.1704 159.792 61.6141 159.424 61.2037C159.055 60.7934 158.556 60.5625 158.035 60.5619ZM159.439 157.811C159.438 158.226 159.291 158.623 159.027 158.917C158.764 159.21 158.407 159.374 158.035 159.375H1.96491C1.59272 159.374 1.23582 159.21 0.972648 158.917C0.709471 158.623 0.561552 158.226 0.561404 157.811V62.7508C0.561913 62.3465 0.702698 61.958 0.954324 61.6666C1.20595 61.3753 1.54894 61.2035 1.9116 61.1873L35.0877 76.522L80.3594 97.4478C80.8494 97.6699 81.3986 97.6666 81.8864 97.4384L125.754 76.5689L158.091 61.1873C158.453 61.2047 158.795 61.3769 159.046 61.6681C159.297 61.9593 159.438 62.3471 159.439 62.7508V157.811Z" fill="#3F3D56"/>
<path d="M80.6583 78.5333C78.9838 78.5368 77.3537 77.9336 76.0138 76.8147L75.9308 76.7452L58.44 61.8271C57.6299 61.1357 56.9501 60.2734 56.4392 59.2893C55.9284 58.3052 55.5965 57.2186 55.4626 56.0917C55.3287 54.9647 55.3953 53.8194 55.6588 52.7211C55.9222 51.6229 56.3772 50.5932 56.9978 49.6908C57.6185 48.7884 58.3926 48.0311 59.276 47.462C60.1594 46.8929 61.1348 46.5232 62.1464 46.374C63.1581 46.2248 64.1862 46.2991 65.1721 46.5925C66.158 46.886 67.0823 47.3929 67.8923 48.0843L79.2216 57.7616L105.994 18.866C106.615 17.9639 107.39 17.2068 108.273 16.6381C109.157 16.0693 110.132 15.7 111.144 15.5513C112.156 15.4025 113.184 15.4772 114.169 15.771C115.155 16.0649 116.079 16.5722 116.889 17.2639L116.723 17.5157L116.894 17.2676C118.527 18.6661 119.596 20.7294 119.866 23.0048C120.135 25.2801 119.584 27.5817 118.332 29.4045L86.8406 75.155C86.1123 76.2093 85.1757 77.0624 84.1035 77.6483C83.0314 78.2342 81.8525 78.537 80.6583 78.5333Z" fill="#7D7BF7"/>
</g>
</g>
<defs>
<clipPath id="clip0_76_1113">
<rect width="160" height="160" fill="white"/>
</clipPath>
</defs>
</svg>
