<svg width="397" height="462" viewBox="0 0 397 462" fill="none" xmlns="http://www.w3.org/2000/svg">
<g clip-path="url(#clip0_98_1086)">
<rect width="397" height="462" fill="#F2F2F2"/>
<path opacity="0.8" d="M46.7 298.8H-31.9L-44.5 336H-98.2L-22 125.4H37.4L113.6 336H59.3L46.7 298.8ZM33.5 259.2L7.40001 182.1L-18.4 259.2H33.5ZM264.291 228C276.491 230.6 286.291 236.7 293.691 246.3C301.091 255.7 304.791 266.5 304.791 278.7C304.791 296.3 298.591 310.3 286.191 320.7C273.991 330.9 256.891 336 234.891 336H136.791V125.4H231.591C252.991 125.4 269.691 130.3 281.691 140.1C293.891 149.9 299.991 163.2 299.991 180C299.991 192.4 296.691 202.7 290.091 210.9C283.691 219.1 275.091 224.8 264.291 228ZM188.091 210.6H221.691C230.091 210.6 236.491 208.8 240.891 205.2C245.491 201.4 247.791 195.9 247.791 188.7C247.791 181.5 245.491 176 240.891 172.2C236.491 168.4 230.091 166.5 221.691 166.5H188.091V210.6ZM225.891 294.6C234.491 294.6 241.091 292.7 245.691 288.9C250.491 284.9 252.891 279.2 252.891 271.8C252.891 264.4 250.391 258.6 245.391 254.4C240.591 250.2 233.891 248.1 225.291 248.1H188.091V294.6H225.891ZM410.745 338.1C395.345 338.1 381.545 335.6 369.345 330.6C357.145 325.6 347.345 318.2 339.945 308.4C332.745 298.6 328.945 286.8 328.545 273H383.145C383.945 280.8 386.645 286.8 391.245 291C395.845 295 401.845 297 409.245 297C416.845 297 422.845 295.3 427.245 291.9C431.645 288.3 433.845 283.4 433.845 277.2C433.845 272 432.045 267.7 428.445 264.3C425.045 260.9 420.745 258.1 415.545 255.9C410.545 253.7 403.345 251.2 393.945 248.4C380.345 244.2 369.245 240 360.645 235.8C352.045 231.6 344.645 225.4 338.445 217.2C332.245 209 329.145 198.3 329.145 185.1C329.145 165.5 336.245 150.2 350.445 139.2C364.645 128 383.145 122.4 405.945 122.4C429.145 122.4 447.845 128 462.045 139.2C476.245 150.2 483.845 165.6 484.845 185.4H429.345C428.945 178.6 426.445 173.3 421.845 169.5C417.245 165.5 411.345 163.5 404.145 163.5C397.945 163.5 392.945 165.2 389.145 168.6C385.345 171.8 383.445 176.5 383.445 182.7C383.445 189.5 386.645 194.8 393.045 198.6C399.445 202.4 409.445 206.5 423.045 210.9C436.645 215.5 447.645 219.9 456.045 224.1C464.645 228.3 472.045 234.4 478.245 242.4C484.445 250.4 487.545 260.7 487.545 273.3C487.545 285.3 484.445 296.2 478.245 306C472.245 315.8 463.445 323.6 451.845 329.4C440.245 335.2 426.545 338.1 410.745 338.1Z" fill="url(#paint0_linear_98_1086)"/>
</g>
<defs>
<linearGradient id="paint0_linear_98_1086" x1="199" y1="21" x2="209.193" y2="385.8" gradientUnits="userSpaceOnUse">
<stop stop-color="white"/>
<stop offset="1" stop-color="white" stop-opacity="0"/>
</linearGradient>
<clipPath id="clip0_98_1086">
<rect width="397" height="462" fill="white"/>
</clipPath>
</defs>
</svg>
